<?xml version="1.0" encoding="UTF-8"?>
<svg width="750" height="860" version="1.1" viewBox="0 0 750 860" xmlns="http://www.w3.org/2000/svg">
 <g transform="translate(-145.64 -115.85)">
  <g transform="translate(-2.7636 -3.5433)">
   <circle cx="493.19" cy="463.41" r="320.06" fill="none" stroke="#000" stroke-width="40"/>
   <rect transform="rotate(50)" x="991.45" y="-99.754" width="91.704" height="104.44" fill="none" stroke="#000" stroke-width="20"/>
   <g stroke-linejoin="round">
    <path transform="rotate(50 744.04 1098.1)" d="m523.65 840.16h124.99a57.231 57.231 45 0 1 57.231 57.231v34.557a57.231 57.231 135 0 1-57.231 57.231h-124.99a57.231 57.231 45 0 1-57.231-57.231v-34.557a57.231 57.231 135 0 1 57.231-57.231z" fill-rule="evenodd" stroke-width="20"/>
    <path transform="translate(8.566 -.36366)" d="m372.8 263.65h223.66a26.365 26.365 45 0 1 26.365 26.365v282.18a91.704 91.704 135 0 1-91.704 91.704h-158.32a26.365 26.365 45 0 1-26.365-26.365v-347.51a26.365 26.365 135 0 1 26.365-26.365z" fill="#fff" stroke="#000" stroke-width="25"/>
    <rect x="417.14" y="306.29" width="152.12" height="132.18" fill="none" stroke="#000" stroke-width="15"/>
   </g>
   <circle cx="539.68" cy="532.81" r="17.831" fill-rule="evenodd"/>
   <circle cx="583.02" cy="511.79" r="17.831" fill-rule="evenodd"/>
   <g fill="none" stroke="#000">
    <path d="m547.03 639.23c-6.4011-11.078-12.802-22.157-19.203-33.235" stroke-width="6"/>
    <path d="m459.23 593.71c6.7546-4.5313 13.509-9.0626 20.264-13.594" stroke-linecap="round" stroke-width="10"/>
    <path d="m493.47 593.71c6.7546-4.5313 13.509-9.0626 20.264-13.594" stroke-linecap="round" stroke-width="10"/>
    <path d="m567.77 627.28c-6.4011-11.078-12.802-22.157-19.203-33.235" stroke-width="6"/>
    <path d="m588.51 615.32c-6.4011-11.078-12.802-22.157-19.203-33.235" stroke-width="6"/>
    <path d="m421.91 483.91v76.879" stroke-width="25"/>
    <path d="m460.35 522.35h-76.879" stroke-width="25"/>
   </g>
   <g fill-rule="evenodd">
    <rect x="480.51" y="366.8" width="35" height="20"/>
    <rect x="480.51" y="395.47" width="25" height="25"/>
    <rect x="505.51" y="336.8" width="30" height="40"/>
    <rect x="467.38" y="324.3" width="60" height="25"/>
    <rect x="450.88" y="336.8" width="30" height="25"/>
   </g>
  </g>
 </g>
</svg>
