<?xml version="1.0" encoding="UTF-8"?>
<!-- Created with Inkscape (http://www.inkscape.org/) -->
<svg width="125.38" height="163.78" version="1.1" viewBox="0 0 125.38 163.78" xmlns="http://www.w3.org/2000/svg">
 <g stroke-linecap="round" stroke-linejoin="round" stroke-width=".432">
  <path transform="scale(1.3333)" d="m14.617 0.215h64.801v122.4h-64.801z" fill="#ffffc2" fill-opacity=".6" stroke="#840000"/>
  <g fill="none">
   <path transform="scale(1.3333)" d="m14.617 14.617h-14.398" stroke="#840000"/>
   <g stroke="#008484">
    <path transform="scale(1.3333)" d="m17.715 11.594h3.601"/>
    <path transform="scale(1.3333)" d="m20.594 16.199-1.223-1.726"/>
    <path transform="scale(1.3333)" d="m18.508 16.199v-3.597h1.367l0.359 0.214 0.215 0.145 0.145 0.359v0.504l-0.145 0.36-0.215 0.144-0.359 0.145h-1.367"/>
    <path transform="scale(1.3333)" d="m21.316 11.594h3.598"/>
    <path transform="scale(1.3333)" d="m22.105 16.199v-3.597h0.868l0.504 0.214 0.359 0.289 0.215 0.36 0.144 0.719v0.504l-0.144 0.648-0.215 0.359-0.359 0.36-0.504 0.144h-0.868"/>
   </g>
   <g stroke="#840000">
    <path transform="scale(1.3333)" d="m8.426 13.68h-2.086"/>
    <path transform="scale(1.3333)" d="m7.418 13.68v-3.602l-0.359 0.508-0.36 0.359-0.359 0.145"/>
    <path transform="scale(1.3333)" d="m14.617 21.816h-14.398"/>
   </g>
   <g stroke="#008484">
    <path transform="scale(1.3333)" d="m18.363 22.391h1.727"/>
    <path transform="scale(1.3333)" d="m18.004 23.398 1.223-3.597 1.222 3.597"/>
    <path transform="scale(1.3333)" d="m22.324 19.801h0.36l0.289 0.215 0.215 0.144 0.144 0.36 0.145 0.648v0.863l-0.145 0.723-0.144 0.285-0.215 0.219-0.289 0.14h-0.36l-0.359-0.14-0.145-0.219-0.218-0.285-0.141-0.723v-0.863l0.141-0.648 0.218-0.36 0.145-0.144 0.359-0.215"/>
   </g>
   <path transform="scale(1.3333)" d="m6.34 17.641 0.215-0.145 0.289-0.215h0.863l0.359 0.215 0.145 0.145 0.215 0.359v0.289l-0.215 0.574-2.016 2.016h2.231" stroke="#840000"/>
   <path transform="scale(1.3333)" d="m14.617 29.016h-14.398" stroke="#840000"/>
   <g stroke="#008484">
    <path transform="scale(1.3333)" d="m18.363 29.594h1.727"/>
    <path transform="scale(1.3333)" d="m18.004 30.602 1.223-3.602 1.222 3.602"/>
    <path transform="scale(1.3333)" d="m23.477 30.602h-2.016"/>
    <path transform="scale(1.3333)" d="m22.469 30.602v-3.602l-0.364 0.504-0.285 0.359-0.359 0.145"/>
   </g>
   <path transform="scale(1.3333)" d="m6.195 24.48h2.231l-1.223 1.368h0.504l0.359 0.214 0.145 0.145 0.215 0.359v0.868l-0.215 0.285-0.145 0.219-0.359 0.14h-1.008l-0.359-0.14-0.145-0.219" stroke="#840000"/>
   <path transform="scale(1.3333)" d="m14.617 36.215h-14.398" stroke="#840000"/>
   <g stroke="#008484">
    <path transform="scale(1.3333)" d="m18.363 36.793h1.727"/>
    <path transform="scale(1.3333)" d="m18.004 37.801 1.223-3.602 1.222 3.602"/>
    <path transform="scale(1.3333)" d="m21.461 34.559 0.141-0.145 0.363-0.215h0.863l0.36 0.215 0.144 0.145 0.145 0.363v0.285l-0.145 0.578-2.016 2.016h2.161"/>
   </g>
   <g stroke="#840000">
    <path transform="scale(1.3333)" d="m8.066 32.902v2.379"/>
    <path transform="scale(1.3333)" d="m7.203 31.535-0.863 2.52h2.23"/>
    <path transform="scale(1.3333)" d="m14.617 43.414h-14.398"/>
   </g>
   <g stroke="#008484">
    <path transform="scale(1.3333)" d="m18.363 43.992h1.727"/>
    <path transform="scale(1.3333)" d="m18.004 45 1.223-3.602 1.222 3.602"/>
    <path transform="scale(1.3333)" d="m21.316 41.398h2.161l-1.153 1.372h0.504l0.36 0.214 0.144 0.145 0.145 0.359v0.864l-0.145 0.289-0.144 0.214-0.36 0.145h-1.008l-0.359-0.145-0.145-0.214"/>
   </g>
   <path transform="scale(1.3333)" d="m8.211 38.879h-1.656l-0.215 1.73 0.215-0.144 0.289-0.219h0.863l0.359 0.219 0.145 0.144 0.215 0.36v0.863l-0.215 0.289-0.145 0.215-0.359 0.144h-0.863l-0.289-0.144-0.215-0.215" stroke="#840000"/>
   <path transform="scale(1.3333)" d="m14.617 50.617h-14.398" stroke="#840000"/>
   <g stroke="#008484">
    <path transform="scale(1.3333)" d="m18.363 51.191h1.727"/>
    <path transform="scale(1.3333)" d="m18.004 52.199 1.223-3.597 1.222 3.597"/>
    <path transform="scale(1.3333)" d="m23.188 49.824v2.375"/>
    <path transform="scale(1.3333)" d="m22.324 48.457-0.863 2.52h2.23"/>
   </g>
   <path transform="scale(1.3333)" d="m8.066 46.078h-0.648l-0.359 0.219-0.215 0.144-0.289 0.504-0.215 0.719v1.367l0.215 0.289 0.144 0.215 0.36 0.145h0.648l0.359-0.145 0.145-0.215 0.215-0.289v-0.863l-0.215-0.359-0.145-0.145-0.359-0.215h-0.648l-0.36 0.215-0.144 0.145-0.215 0.359" stroke="#840000"/>
   <path transform="scale(1.3333)" d="m14.617 57.816h-14.398" stroke="#840000"/>
   <g stroke="#008484">
    <path transform="scale(1.3333)" d="m20.449 56.016-0.359-0.215h-0.504l-0.504 0.215-0.359 0.289-0.215 0.359-0.145 0.719v0.504l0.145 0.648 0.215 0.36 0.359 0.363 0.504 0.14h0.289l0.574-0.14 0.145-0.219v-1.152h-0.719"/>
    <path transform="scale(1.3333)" d="m22.105 59.398v-3.597l2.09 3.597v-3.597"/>
    <path transform="scale(1.3333)" d="m25.922 59.398v-3.597h0.863l0.508 0.215 0.359 0.289 0.145 0.359 0.141 0.719v0.504l-0.141 0.648-0.145 0.36-0.359 0.363-0.508 0.14h-0.863"/>
    <path transform="scale(1.3333)" d="m28.66 59.762h2.735"/>
    <path transform="scale(1.3333)" d="m34.273 59.398-1.148-1.726"/>
    <path transform="scale(1.3333)" d="m32.258 59.398v-3.597h1.371l0.359 0.215 0.145 0.144 0.14 0.36v0.503l-0.14 0.36-0.145 0.144-0.359 0.145h-1.371"/>
    <path transform="scale(1.3333)" d="m35.715 58.391h1.656"/>
    <path transform="scale(1.3333)" d="m35.355 59.398 1.153-3.597 1.222 3.597"/>
    <path transform="scale(1.3333)" d="m38.953 59.398v-3.597l1.152 2.59 1.227-2.59v3.597"/>
   </g>
   <path transform="scale(1.3333)" d="m6.195 53.281h2.375l-1.511 3.598" stroke="#840000"/>
   <path transform="scale(1.3333)" d="m14.617 65.016h-14.398" stroke="#840000"/>
   <g stroke="#008484">
    <path transform="scale(1.3333)" d="m18.363 65.594h1.727"/>
    <path transform="scale(1.3333)" d="m18.004 66.602 1.223-3.602 1.222 3.602"/>
    <path transform="scale(1.3333)" d="m23.332 63h-1.73l-0.141 1.727 0.141-0.141 0.363-0.219h0.863l0.36 0.219 0.144 0.141 0.145 0.363v0.863l-0.145 0.285-0.144 0.219-0.36 0.145h-0.863l-0.363-0.145-0.141-0.219"/>
   </g>
   <path transform="scale(1.3333)" d="m7.059 62.062-0.36-0.214-0.144-0.145-0.215-0.359v-0.145l0.215-0.359 0.144-0.145 0.36-0.215h0.648l0.359 0.215 0.145 0.145 0.215 0.359v0.145l-0.215 0.359-0.145 0.145-0.359 0.214h-0.648l-0.36 0.145-0.144 0.145-0.215 0.359v0.723l0.215 0.285 0.144 0.219 0.36 0.14h0.648l0.359-0.14 0.145-0.219 0.215-0.285v-0.723l-0.215-0.359-0.145-0.145-0.359-0.145" stroke="#840000"/>
   <path transform="scale(1.3333)" d="m14.617 72.215h-14.398" stroke="#840000"/>
   <path transform="scale(1.3333)" d="m18.508 73.801v-3.602h0.863l0.504 0.215 0.359 0.289 0.215 0.359 0.145 0.723v0.504l-0.145 0.649-0.215 0.359-0.359 0.359-0.504 0.145h-0.863" stroke="#008484"/>
   <path transform="scale(1.3333)" d="m22.828 70.199h0.36l0.289 0.215 0.214 0.145 0.145 0.363 0.215 0.644v0.868l-0.215 0.718-0.145 0.289-0.214 0.215-0.289 0.145h-0.36l-0.359-0.145-0.145-0.215-0.219-0.289-0.14-0.718v-0.868l0.14-0.644 0.219-0.363 0.145-0.145 0.359-0.215" stroke="#008484"/>
   <path transform="scale(1.3333)" d="m6.699 71.281h0.719l0.289-0.144 0.215-0.215 0.289-0.508 0.215-0.644v-1.372l-0.215-0.359-0.145-0.144-0.359-0.215h-0.648l-0.36 0.215-0.144 0.144-0.215 0.359v0.868l0.215 0.285 0.144 0.219 0.36 0.14h0.648l0.359-0.14 0.145-0.219 0.215-0.285" stroke="#840000"/>
   <path transform="scale(1.3333)" d="m14.617 79.414h-14.398" stroke="#840000"/>
   <g stroke="#008484">
    <path transform="scale(1.3333)" d="m18.508 81v-3.602h0.863l0.504 0.219 0.359 0.285 0.215 0.364 0.145 0.718v0.504l-0.145 0.649-0.215 0.359-0.359 0.359-0.504 0.145h-0.863"/>
    <path transform="scale(1.3333)" d="m24.051 81h-2.086"/>
    <path transform="scale(1.3333)" d="m22.973 81v-3.602l-0.289 0.504-0.36 0.364-0.359 0.14"/>
   </g>
   <g stroke="#840000">
    <path transform="scale(1.3333)" d="m6.699 78.48h-2.09"/>
    <path transform="scale(1.3333)" d="m5.691 78.48v-3.601l-0.359 0.504-0.359 0.359-0.364 0.145"/>
    <path transform="scale(1.3333)" d="m8.93 74.879h0.363l0.285 0.219 0.219 0.14 0.141 0.364 0.218 0.644v0.867l-0.218 0.719-0.141 0.289-0.219 0.215-0.285 0.144h-0.363l-0.36-0.144-0.144-0.215-0.215-0.289-0.145-0.719v-0.867l0.145-0.644 0.215-0.364 0.144-0.14 0.36-0.219"/>
    <path transform="scale(1.3333)" d="m14.617 86.617h-14.398"/>
   </g>
   <path transform="scale(1.3333)" d="m18.508 88.199v-3.597h0.863l0.504 0.214 0.359 0.289 0.215 0.36 0.145 0.719v0.504l-0.145 0.648-0.215 0.359-0.359 0.36-0.504 0.144h-0.863" stroke="#008484"/>
   <path transform="scale(1.3333)" d="m21.965 84.961 0.14-0.145 0.364-0.214h0.863l0.359 0.214 0.145 0.145 0.215 0.359v0.289l-0.215 0.575-2.016 2.015h2.231" stroke="#008484"/>
   <g stroke="#840000">
    <path transform="scale(1.3333)" d="m6.699 85.68h-2.09"/>
    <path transform="scale(1.3333)" d="m5.691 85.68v-3.602l-0.359 0.508-0.359 0.359-0.364 0.145"/>
    <path transform="scale(1.3333)" d="m10.156 85.68h-2.09"/>
    <path transform="scale(1.3333)" d="m9.074 85.68v-3.602l-0.289 0.508-0.359 0.359-0.36 0.145"/>
    <path transform="scale(1.3333)" d="m14.617 93.816h-14.398"/>
   </g>
   <path transform="scale(1.3333)" d="m18.508 95.398v-3.597h0.863l0.504 0.215 0.359 0.289 0.215 0.359 0.145 0.719v0.504l-0.145 0.648-0.215 0.36-0.359 0.363-0.504 0.14h-0.863" stroke="#008484"/>
   <path transform="scale(1.3333)" d="m21.82 91.801h2.231l-1.223 1.367h0.504l0.359 0.215 0.145 0.144 0.215 0.36v0.867l-0.215 0.285-0.145 0.219-0.359 0.14h-1.008l-0.359-0.14-0.145-0.219" stroke="#008484"/>
   <g stroke="#840000">
    <path transform="scale(1.3333)" d="m6.699 92.879h-2.09"/>
    <path transform="scale(1.3333)" d="m5.691 92.879v-3.598l-0.359 0.504-0.359 0.36-0.364 0.144"/>
    <path transform="scale(1.3333)" d="m8.066 89.641 0.145-0.145 0.359-0.215h0.864l0.363 0.215 0.141 0.145 0.218 0.359v0.289l-0.218 0.574-2.016 2.016h2.234"/>
    <path transform="scale(1.3333)" d="m14.617 101.02h-14.398"/>
   </g>
   <g stroke="#008484">
    <path transform="scale(1.3333)" d="m17.715 97.992h3.601"/>
    <path transform="scale(1.3333)" d="m20.594 102.6-1.223-1.731"/>
    <path transform="scale(1.3333)" d="m18.508 102.6v-3.602h1.367l0.359 0.215 0.215 0.144 0.145 0.36v0.504l-0.145 0.363-0.215 0.141-0.359 0.144h-1.367"/>
    <path transform="scale(1.3333)" d="m21.316 97.992h3.743"/>
    <path transform="scale(1.3333)" d="m22.828 99h0.649l0.359 0.215 0.359 0.289 0.145 0.719v1.152l-0.145 0.723-0.359 0.359-0.359 0.145h-0.649l-0.359-0.145-0.364-0.359-0.14-0.723v-1.152l0.14-0.719 0.364-0.289 0.359-0.215"/>
    <path transform="scale(1.3333)" d="m25.059 97.992h4.105"/>
    <path transform="scale(1.3333)" d="m25.922 102.6v-3.602l1.152 2.594 1.227-2.594v3.602"/>
    <path transform="scale(1.3333)" d="m29.164 97.992h2.734"/>
    <path transform="scale(1.3333)" d="m29.164 102.96h2.734"/>
    <path transform="scale(1.3333)" d="m31.898 97.992h3.602"/>
    <path transform="scale(1.3333)" d="m34.852 102.24-0.215 0.219-0.504 0.145h-0.363l-0.504-0.145-0.36-0.359-0.144-0.364-0.145-0.644v-0.504l0.145-0.723 0.144-0.359 0.36-0.289 0.504-0.215h0.363l0.504 0.215 0.215 0.144"/>
    <path transform="scale(1.3333)" d="m35.5 97.992h3.453"/>
    <path transform="scale(1.3333)" d="m36.219 102.46 0.504 0.145h0.863l0.289-0.145 0.215-0.219 0.144-0.285v-0.359l-0.144-0.364-0.215-0.14-0.289-0.219-0.719-0.144-0.359-0.141-0.145-0.219-0.144-0.359v-0.289l0.144-0.36 0.145-0.144 0.359-0.215h0.863l0.504 0.215"/>
   </g>
   <g stroke="#840000">
    <path transform="scale(1.3333)" d="m6.699 100.08h-2.09"/>
    <path transform="scale(1.3333)" d="m5.691 100.08v-3.598l-0.359 0.504-0.359 0.36-0.364 0.144"/>
    <path transform="scale(1.3333)" d="m7.922 96.48h2.234l-1.226 1.368h0.504l0.363 0.214 0.141 0.145 0.218 0.359v0.868l-0.218 0.285-0.141 0.219-0.363 0.14h-1.008l-0.36-0.14-0.144-0.219"/>
    <path transform="scale(1.3333)" d="m14.617 108.22h-14.398"/>
   </g>
   <g stroke="#008484">
    <path transform="scale(1.3333)" d="m20.449 106.41-0.359-0.215h-0.504l-0.504 0.215-0.359 0.289-0.215 0.359-0.145 0.723v0.504l0.145 0.649 0.215 0.359 0.359 0.359 0.504 0.145h0.289l0.574-0.145 0.145-0.215v-1.152h-0.719"/>
    <path transform="scale(1.3333)" d="m22.105 109.8v-3.602l2.09 3.602v-3.602"/>
    <path transform="scale(1.3333)" d="m25.922 109.8v-3.602h0.863l0.508 0.215 0.359 0.289 0.145 0.359 0.141 0.723v0.504l-0.141 0.649-0.145 0.359-0.359 0.359-0.508 0.145h-0.863"/>
   </g>
   <g stroke="#840000">
    <path transform="scale(1.3333)" d="m6.699 107.28h-2.09"/>
    <path transform="scale(1.3333)" d="m5.691 107.28v-3.601l-0.359 0.504-0.359 0.359-0.364 0.145"/>
    <path transform="scale(1.3333)" d="m9.797 104.9v2.379"/>
    <path transform="scale(1.3333)" d="m8.93 103.54-0.864 2.52h2.235"/>
    <path transform="scale(1.3333)" d="m79.418 108.22h14.402"/>
   </g>
   <g stroke="#008484">
    <path transform="scale(1.3333)" d="m66.027 105.19h3.602"/>
    <path transform="scale(1.3333)" d="m68.906 109.8-1.222-1.731"/>
    <path transform="scale(1.3333)" d="m66.891 109.8v-3.602h1.367l0.289 0.215 0.215 0.145 0.144 0.363v0.504l-0.144 0.359-0.215 0.145-0.289 0.14h-1.367"/>
    <path transform="scale(1.3333)" d="m69.629 105.19h3.238"/>
    <path transform="scale(1.3333)" d="m70.492 107.93h1.153"/>
    <path transform="scale(1.3333)" d="m72.148 109.8h-1.656v-3.602h1.656"/>
    <path transform="scale(1.3333)" d="m72.867 105.19h3.457"/>
    <path transform="scale(1.3333)" d="m73.516 109.66 0.574 0.145h0.793l0.359-0.145 0.219-0.215 0.141-0.289v-0.359l-0.141-0.359-0.219-0.145-0.359-0.219-0.649-0.14-0.359-0.145-0.145-0.219-0.214-0.359v-0.285l0.214-0.363 0.145-0.145 0.359-0.215h0.864l0.504 0.215"/>
   </g>
   <g stroke="#840000">
    <path transform="scale(1.3333)" d="m85.898 107.28h-2.086"/>
    <path transform="scale(1.3333)" d="m84.891 107.28v-3.601l-0.36 0.504-0.359 0.359-0.36 0.145"/>
    <path transform="scale(1.3333)" d="m89.141 103.68h-1.731l-0.144 1.726 0.144-0.14 0.36-0.219h0.867l0.359 0.219 0.145 0.14 0.214 0.364v0.863l-0.214 0.289-0.145 0.215-0.359 0.144h-0.867l-0.36-0.144-0.144-0.215"/>
    <path transform="scale(1.3333)" d="m79.418 101.02h14.402"/>
   </g>
   <g stroke="#008484">
    <path transform="scale(1.3333)" d="m65.668 102.6-1.227-1.731"/>
    <path transform="scale(1.3333)" d="m63.578 102.6v-3.602h1.367l0.364 0.215 0.214 0.144 0.145 0.36v0.504l-0.145 0.363-0.214 0.141-0.364 0.144h-1.367"/>
    <path transform="scale(1.3333)" d="m67.035 101.59h1.727"/>
    <path transform="scale(1.3333)" d="m66.676 102.6 1.222-3.602 1.227 3.602"/>
    <path transform="scale(1.3333)" d="m72.148 102.6h-2.015"/>
    <path transform="scale(1.3333)" d="m71.141 102.6v-3.602l-0.364 0.504-0.285 0.359-0.359 0.145"/>
    <path transform="scale(1.3333)" d="m73.371 99h2.375l-1.512 3.602"/>
   </g>
   <g stroke="#840000">
    <path transform="scale(1.3333)" d="m85.898 100.08h-2.086"/>
    <path transform="scale(1.3333)" d="m84.891 100.08v-3.598l-0.36 0.504-0.359 0.36-0.36 0.144"/>
    <path transform="scale(1.3333)" d="m88.996 96.48h-0.723l-0.285 0.215-0.218 0.145-0.36 0.504-0.144 0.718v1.372l0.144 0.285 0.219 0.219 0.359 0.14h0.649l0.359-0.14 0.145-0.219 0.214-0.285v-0.868l-0.214-0.359-0.145-0.145-0.359-0.214h-0.649l-0.359 0.214-0.219 0.145-0.144 0.359"/>
    <path transform="scale(1.3333)" d="m79.418 93.816h14.402"/>
   </g>
   <g stroke="#008484">
    <path transform="scale(1.3333)" d="m65.668 95.398-1.227-1.726"/>
    <path transform="scale(1.3333)" d="m63.578 95.398v-3.597h1.367l0.364 0.215 0.214 0.144 0.145 0.36v0.503l-0.145 0.36-0.214 0.144-0.364 0.145h-1.367"/>
    <path transform="scale(1.3333)" d="m67.035 94.391h1.727"/>
    <path transform="scale(1.3333)" d="m66.676 95.398 1.222-3.597 1.227 3.597"/>
    <path transform="scale(1.3333)" d="m72.148 95.398h-2.015"/>
    <path transform="scale(1.3333)" d="m71.141 95.398v-3.597l-0.364 0.504-0.285 0.359-0.359 0.145"/>
    <path transform="scale(1.3333)" d="m75.242 91.801h-0.648l-0.36 0.215-0.144 0.144-0.36 0.504-0.214 0.719v1.371l0.214 0.285 0.145 0.219 0.359 0.14h0.649l0.359-0.14 0.219-0.219 0.141-0.285v-0.867l-0.141-0.36-0.219-0.144-0.359-0.215h-0.649l-0.359 0.215-0.145 0.144-0.214 0.36"/>
   </g>
   <g stroke="#840000">
    <path transform="scale(1.3333)" d="m85.898 92.879h-2.086"/>
    <path transform="scale(1.3333)" d="m84.891 92.879v-3.598l-0.36 0.504-0.359 0.36-0.36 0.144"/>
    <path transform="scale(1.3333)" d="m87.125 89.281h2.375l-1.512 3.598"/>
    <path transform="scale(1.3333)" d="m79.418 86.617h14.402"/>
   </g>
   <g stroke="#008484">
    <path transform="scale(1.3333)" d="m65.668 88.199-1.227-1.726"/>
    <path transform="scale(1.3333)" d="m63.578 88.199v-3.597h1.367l0.364 0.214 0.214 0.145 0.145 0.359v0.504l-0.145 0.36-0.214 0.144-0.364 0.145h-1.367"/>
    <path transform="scale(1.3333)" d="m67.035 87.191h1.727"/>
    <path transform="scale(1.3333)" d="m66.676 88.199 1.222-3.597 1.227 3.597"/>
    <path transform="scale(1.3333)" d="m72.148 88.199h-2.015"/>
    <path transform="scale(1.3333)" d="m71.141 88.199v-3.597l-0.364 0.503-0.285 0.36-0.359 0.144"/>
    <path transform="scale(1.3333)" d="m75.461 84.602h-1.731l-0.214 1.726 0.214-0.144 0.36-0.215h0.793l0.359 0.215 0.219 0.144 0.141 0.36v0.863l-0.141 0.289-0.219 0.215-0.359 0.144h-0.793l-0.36-0.144-0.214-0.215"/>
   </g>
   <g stroke="#840000">
    <path transform="scale(1.3333)" d="m85.898 85.68h-2.086"/>
    <path transform="scale(1.3333)" d="m84.891 85.68v-3.602l-0.36 0.508-0.359 0.359-0.36 0.145"/>
    <path transform="scale(1.3333)" d="m87.988 83.664-0.359-0.215-0.219-0.144-0.144-0.36v-0.144l0.144-0.36 0.219-0.144 0.359-0.219h0.649l0.359 0.219 0.145 0.144 0.214 0.36v0.144l-0.214 0.36-0.145 0.144-0.359 0.215h-0.649l-0.359 0.145-0.219 0.144-0.144 0.359v0.719l0.144 0.289 0.219 0.215 0.359 0.145h0.649l0.359-0.145 0.145-0.215 0.214-0.289v-0.719l-0.214-0.359-0.145-0.144-0.359-0.145"/>
    <path transform="scale(1.3333)" d="m79.418 79.414h14.402"/>
   </g>
   <g stroke="#008484">
    <path transform="scale(1.3333)" d="m65.668 81-1.227-1.727"/>
    <path transform="scale(1.3333)" d="m63.578 81v-3.602h1.367l0.364 0.219 0.214 0.145 0.145 0.359v0.504l-0.145 0.359-0.214 0.145-0.364 0.144h-1.367"/>
    <path transform="scale(1.3333)" d="m67.035 79.992h1.727"/>
    <path transform="scale(1.3333)" d="m66.676 81 1.222-3.602 1.227 3.602"/>
    <path transform="scale(1.3333)" d="m72.148 81h-2.015"/>
    <path transform="scale(1.3333)" d="m71.141 81v-3.602l-0.364 0.504-0.285 0.364-0.359 0.14"/>
    <path transform="scale(1.3333)" d="m75.242 78.625v2.375"/>
    <path transform="scale(1.3333)" d="m74.379 77.258-0.863 2.519h2.23"/>
   </g>
   <g stroke="#840000">
    <path transform="scale(1.3333)" d="m85.898 78.48h-2.086"/>
    <path transform="scale(1.3333)" d="m84.891 78.48v-3.601l-0.36 0.504-0.359 0.359-0.36 0.145"/>
    <path transform="scale(1.3333)" d="m87.629 78.48h0.644l0.364-0.144 0.14-0.215 0.364-0.504 0.214-0.648v-1.367l-0.214-0.364-0.145-0.14-0.359-0.219h-0.649l-0.359 0.219-0.219 0.14-0.144 0.364v0.863l0.144 0.289 0.219 0.215 0.359 0.144h0.649l0.359-0.144 0.145-0.215 0.214-0.289"/>
    <path transform="scale(1.3333)" d="m79.418 72.215h14.402"/>
   </g>
   <g stroke="#008484">
    <path transform="scale(1.3333)" d="m67.035 72.793h1.727"/>
    <path transform="scale(1.3333)" d="m66.676 73.801 1.222-3.602 1.227 3.602"/>
    <path transform="scale(1.3333)" d="m72.148 73.801h-2.015"/>
    <path transform="scale(1.3333)" d="m71.141 73.801v-3.602l-0.364 0.504-0.285 0.359-0.359 0.145"/>
    <path transform="scale(1.3333)" d="m75.461 70.199h-1.731l-0.214 1.731 0.214-0.145 0.36-0.219h0.793l0.359 0.219 0.219 0.145 0.141 0.359v0.863l-0.141 0.289-0.219 0.215-0.359 0.145h-0.793l-0.36-0.145-0.214-0.215"/>
   </g>
   <g stroke="#840000">
    <path transform="scale(1.3333)" d="m83.812 68.039 0.215-0.144 0.36-0.215h0.793l0.359 0.215 0.215 0.144 0.144 0.359v0.29l-0.144 0.578-2.086 2.015h2.23"/>
    <path transform="scale(1.3333)" d="m88.133 67.68h0.359l0.285 0.215 0.219 0.144 0.145 0.359 0.214 0.649v0.863l-0.214 0.723-0.145 0.289-0.219 0.215-0.285 0.144h-0.359l-0.363-0.144-0.141-0.215-0.219-0.289-0.144-0.723v-0.863l0.144-0.649 0.219-0.359 0.141-0.144 0.363-0.215"/>
    <path transform="scale(1.3333)" d="m79.418 65.016h14.402"/>
   </g>
   <g stroke="#008484">
    <path transform="scale(1.3333)" d="m52.777 63 1.227 3.602 1.223-3.602"/>
    <path transform="scale(1.3333)" d="m58.469 66.238-0.145 0.219-0.578 0.145h-0.285l-0.578-0.145-0.289-0.359-0.215-0.364-0.145-0.644v-0.504l0.145-0.723 0.215-0.359 0.289-0.289 0.578-0.215h0.285l0.578 0.215 0.145 0.144"/>
    <path transform="scale(1.3333)" d="m62.066 66.238-0.144 0.219-0.574 0.145h-0.289l-0.575-0.145-0.289-0.359-0.215-0.364-0.144-0.644v-0.504l0.144-0.723 0.215-0.359 0.289-0.289 0.575-0.215h0.289l0.574 0.215 0.144 0.144"/>
    <path transform="scale(1.3333)" d="m62.715 66.961h2.808"/>
    <path transform="scale(1.3333)" d="m68.402 66.602-1.222-1.731"/>
    <path transform="scale(1.3333)" d="m66.316 66.602v-3.602h1.368l0.359 0.215 0.215 0.144 0.144 0.36v0.504l-0.144 0.363-0.215 0.141-0.359 0.144h-1.368"/>
    <path transform="scale(1.3333)" d="m69.77 65.594h1.73"/>
    <path transform="scale(1.3333)" d="m69.41 66.602 1.227-3.602 1.222 3.602"/>
    <path transform="scale(1.3333)" d="m73.012 66.602v-3.602l1.222 2.594 1.227-2.594v3.602"/>
   </g>
   <g stroke="#840000">
    <path transform="scale(1.3333)" d="m83.812 60.84 0.215-0.145 0.36-0.215h0.793l0.359 0.215 0.215 0.145 0.144 0.359v0.289l-0.144 0.574-2.086 2.016h2.23"/>
    <path transform="scale(1.3333)" d="m89.355 64.078h-2.089"/>
    <path transform="scale(1.3333)" d="m88.273 64.078v-3.598l-0.285 0.504-0.359 0.36-0.363 0.144"/>
    <path transform="scale(1.3333)" d="m79.418 57.816h14.402"/>
   </g>
   <g stroke="#008484">
    <path transform="scale(1.3333)" d="m67.035 58.391h1.727"/>
    <path transform="scale(1.3333)" d="m66.676 59.398 1.222-3.597 1.227 3.597"/>
    <path transform="scale(1.3333)" d="m72.148 59.398h-2.015"/>
    <path transform="scale(1.3333)" d="m71.141 59.398v-3.597l-0.364 0.504-0.285 0.359-0.359 0.145"/>
    <path transform="scale(1.3333)" d="m75.242 57.023v2.375"/>
    <path transform="scale(1.3333)" d="m74.379 55.656-0.863 2.52h2.23"/>
   </g>
   <g stroke="#840000">
    <path transform="scale(1.3333)" d="m83.812 53.641 0.215-0.145 0.36-0.215h0.793l0.359 0.215 0.215 0.145 0.144 0.359v0.289l-0.144 0.574-2.086 2.016h2.23"/>
    <path transform="scale(1.3333)" d="m87.266 53.641 0.144-0.145 0.36-0.215h0.867l0.359 0.215 0.145 0.145 0.214 0.359v0.289l-0.214 0.574-2.016 2.016h2.23"/>
    <path transform="scale(1.3333)" d="m79.418 50.617h14.402"/>
   </g>
   <g stroke="#008484">
    <path transform="scale(1.3333)" d="m70.492 51.191h1.656"/>
    <path transform="scale(1.3333)" d="m70.133 52.199 1.148-3.597 1.227 3.597"/>
    <path transform="scale(1.3333)" d="m74.234 50.184-0.359-0.215-0.145-0.145-0.214-0.359v-0.145l0.214-0.359 0.145-0.145 0.359-0.214h0.649l0.359 0.214 0.219 0.145 0.141 0.359v0.145l-0.141 0.359-0.219 0.145-0.359 0.215h-0.649l-0.359 0.144-0.145 0.145-0.214 0.359v0.719l0.214 0.289 0.145 0.215 0.359 0.144h0.649l0.359-0.144 0.219-0.215 0.141-0.289v-0.719l-0.141-0.359-0.219-0.145-0.359-0.144"/>
   </g>
   <g stroke="#840000">
    <path transform="scale(1.3333)" d="m83.812 46.441 0.215-0.144 0.36-0.219h0.793l0.359 0.219 0.215 0.144 0.144 0.36v0.289l-0.144 0.574-2.086 2.016h2.23"/>
    <path transform="scale(1.3333)" d="m87.125 46.078h2.23l-1.222 1.371h0.504l0.359 0.215 0.145 0.145 0.214 0.359v0.863l-0.214 0.289-0.145 0.215-0.359 0.145h-1.008l-0.363-0.145-0.141-0.215"/>
    <path transform="scale(1.3333)" d="m79.418 43.414h14.402"/>
   </g>
   <g stroke="#008484">
    <path transform="scale(1.3333)" d="m70.492 43.992h1.656"/>
    <path transform="scale(1.3333)" d="m70.133 45 1.148-3.602 1.227 3.602"/>
    <path transform="scale(1.3333)" d="m73.371 41.398h2.375l-1.512 3.602"/>
   </g>
   <g stroke="#840000">
    <path transform="scale(1.3333)" d="m83.812 39.238 0.215-0.14 0.36-0.219h0.793l0.359 0.219 0.215 0.14 0.144 0.364v0.285l-0.144 0.578-2.086 2.015h2.23"/>
    <path transform="scale(1.3333)" d="m88.996 40.105v2.375"/>
    <path transform="scale(1.3333)" d="m88.133 38.734-0.867 2.524h2.234"/>
    <path transform="scale(1.3333)" d="m79.418 36.215h14.402"/>
   </g>
   <g stroke="#008484">
    <path transform="scale(1.3333)" d="m70.492 36.793h1.656"/>
    <path transform="scale(1.3333)" d="m70.133 37.801 1.148-3.602 1.227 3.602"/>
    <path transform="scale(1.3333)" d="m75.242 34.199h-0.648l-0.36 0.215-0.144 0.145-0.36 0.503-0.214 0.723v1.367l0.214 0.289 0.145 0.215 0.359 0.145h0.649l0.359-0.145 0.219-0.215 0.141-0.289v-0.863l-0.141-0.359-0.219-0.145-0.359-0.219h-0.649l-0.359 0.219-0.145 0.145-0.214 0.359"/>
   </g>
   <g stroke="#840000">
    <path transform="scale(1.3333)" d="m83.812 32.039 0.215-0.144 0.36-0.215h0.793l0.359 0.215 0.215 0.144 0.144 0.359v0.29l-0.144 0.578-2.086 2.015h2.23"/>
    <path transform="scale(1.3333)" d="m89.141 31.68h-1.731l-0.144 1.726 0.144-0.14 0.36-0.219h0.867l0.359 0.219 0.145 0.14 0.214 0.364v0.863l-0.214 0.289-0.145 0.215-0.359 0.144h-0.867l-0.36-0.144-0.144-0.215"/>
    <path transform="scale(1.3333)" d="m79.418 29.016h14.402"/>
   </g>
   <g stroke="#008484">
    <path transform="scale(1.3333)" d="m69.266 25.992h3.601"/>
    <path transform="scale(1.3333)" d="m72.148 30.238-0.144 0.219-0.504 0.145h-0.359l-0.504-0.145-0.364-0.359-0.14-0.364-0.219-0.644v-0.504l0.219-0.723 0.14-0.359 0.364-0.289 0.504-0.215h0.359l0.504 0.215 0.144 0.144"/>
    <path transform="scale(1.3333)" d="m72.867 25.992h3.457"/>
    <path transform="scale(1.3333)" d="m73.516 30.457 0.574 0.145h0.793l0.359-0.145 0.219-0.219 0.141-0.285v-0.359l-0.141-0.364-0.219-0.14-0.359-0.219-0.649-0.144-0.359-0.141-0.145-0.219-0.214-0.359v-0.289l0.214-0.36 0.145-0.144 0.359-0.215h0.864l0.504 0.215"/>
   </g>
   <g stroke="#840000">
    <path transform="scale(1.3333)" d="m83.812 24.84 0.215-0.145 0.36-0.215h0.793l0.359 0.215 0.215 0.145 0.144 0.359v0.289l-0.144 0.574-2.086 2.016h2.23"/>
    <path transform="scale(1.3333)" d="m88.996 24.48h-0.723l-0.285 0.215-0.218 0.145-0.36 0.504-0.144 0.718v1.372l0.144 0.285 0.219 0.219 0.359 0.14h0.649l0.359-0.14 0.145-0.219 0.214-0.285v-0.868l-0.214-0.359-0.145-0.145-0.359-0.214h-0.649l-0.359 0.214-0.219 0.145-0.144 0.359"/>
    <path transform="scale(1.3333)" d="m79.418 21.816h14.402"/>
   </g>
   <g stroke="#008484">
    <path transform="scale(1.3333)" d="m68.547 18.793h4.176"/>
    <path transform="scale(1.3333)" d="m69.125 19.801 0.789 3.597 0.723-2.589 0.644 2.589 0.867-3.597"/>
    <path transform="scale(1.3333)" d="m72.723 18.793h3.601"/>
    <path transform="scale(1.3333)" d="m75.602 23.398-1.223-1.726"/>
    <path transform="scale(1.3333)" d="m73.516 23.398v-3.597h1.367l0.359 0.215 0.219 0.144 0.141 0.36v0.503l-0.141 0.36-0.219 0.144-0.359 0.145h-1.367"/>
   </g>
   <g stroke="#840000">
    <path transform="scale(1.3333)" d="m83.812 17.641 0.215-0.145 0.36-0.215h0.793l0.359 0.215 0.215 0.145 0.144 0.359v0.289l-0.144 0.574-2.086 2.016h2.23"/>
    <path transform="scale(1.3333)" d="m87.125 17.281h2.375l-1.512 3.598"/>
    <path transform="scale(1.3333)" d="m79.418 14.617h14.402"/>
   </g>
   <g stroke="#008484">
    <path transform="scale(1.3333)" d="m66.316 12.602 1.223 3.597 1.223-3.597"/>
    <path transform="scale(1.3333)" d="m72.004 15.84-0.145 0.215-0.578 0.144h-0.285l-0.504-0.144-0.359-0.36-0.219-0.359-0.144-0.648v-0.504l0.144-0.719 0.219-0.36 0.359-0.289 0.504-0.214h0.285l0.578 0.214 0.145 0.145"/>
    <path transform="scale(1.3333)" d="m75.602 15.84-0.141 0.215-0.578 0.144h-0.289l-0.504-0.144-0.36-0.36-0.214-0.359-0.145-0.648v-0.504l0.145-0.719 0.214-0.36 0.36-0.289 0.504-0.214h0.289l0.578 0.214 0.141 0.145"/>
   </g>
   <path transform="scale(1.3333)" d="m83.812 10.441 0.215-0.144 0.36-0.219h0.793l0.359 0.219 0.215 0.144 0.144 0.36v0.289l-0.144 0.574-2.086 2.016h2.23" stroke="#840000"/>
   <path transform="scale(1.3333)" d="m87.988 11.664-0.359-0.215-0.219-0.144-0.144-0.36v-0.144l0.144-0.36 0.219-0.144 0.359-0.219h0.649l0.359 0.219 0.145 0.144 0.214 0.36v0.144l-0.214 0.36-0.145 0.144-0.359 0.215h-0.649l-0.359 0.145-0.219 0.144-0.144 0.359v0.719l0.144 0.289 0.219 0.215 0.359 0.145h0.649l0.359-0.145 0.145-0.215 0.214-0.289v-0.719l-0.214-0.359-0.145-0.144-0.359-0.145" stroke="#840000"/>
  </g>
 </g>
</svg>
