<?xml version="1.0" encoding="UTF-8"?>
<!-- Created with Inkscape (http://www.inkscape.org/) -->
<svg width="202.18" height="144.58" version="1.1" viewBox="0 0 202.18 144.58" xmlns="http://www.w3.org/2000/svg">
 <g stroke-linecap="round" stroke-linejoin="round" stroke-width=".432">
  <path transform="scale(1.3333)" d="m14.617 14.617h122.4v79.203h-122.4z" fill="#ffffc2" fill-opacity=".6" stroke="#840000"/>
  <g fill="none">
   <path transform="scale(1.3333)" d="m50.617 93.82v14.399" stroke="#840000"/>
   <g stroke="#008484">
    <path transform="scale(1.3333)" d="m51.195 90.004v-1.731"/>
    <path transform="scale(1.3333)" d="m52.203 90.363-3.601-1.222 3.601-1.227"/>
    <path transform="scale(1.3333)" d="m52.203 84.891v2.015"/>
    <path transform="scale(1.3333)" d="m52.203 85.898h-3.601l0.503 0.36 0.364 0.289 0.14 0.359"/>
    <path transform="scale(1.3333)" d="m48.602 83.668v-2.234l1.371 1.226v-0.578l0.215-0.285 0.144-0.219 0.359-0.144h0.864l0.289 0.144 0.215 0.219 0.144 0.285v1.082l-0.144 0.359-0.215 0.145"/>
   </g>
   <g stroke="#840000">
    <path transform="scale(1.3333)" d="m49.684 99.938v2.089"/>
    <path transform="scale(1.3333)" d="m49.684 101.02h-3.602l0.504 0.289 0.359 0.359 0.145 0.359"/>
    <path transform="scale(1.3333)" d="m137.02 72.219h14.398"/>
   </g>
   <path transform="scale(1.3333)" d="m127.73 73.805v-3.602h0.864l0.504 0.215 0.363 0.289 0.141 0.359 0.144 0.719v0.508l-0.144 0.645-0.141 0.363-0.363 0.359-0.504 0.145h-0.864" stroke="#008484"/>
   <path transform="scale(1.3333)" d="m133.06 70.203h-1.727l-0.219 1.727 0.219-0.145 0.359-0.215h0.793l0.36 0.215 0.215 0.145 0.144 0.363v0.863l-0.144 0.285-0.215 0.219-0.36 0.145h-0.793l-0.359-0.145-0.219-0.219" stroke="#008484"/>
   <g stroke="#840000">
    <path transform="scale(1.3333)" d="m143.5 71.281h-2.09"/>
    <path transform="scale(1.3333)" d="m142.49 71.281v-3.597l-0.359 0.504-0.363 0.359-0.36 0.144"/>
    <path transform="scale(1.3333)" d="m145.73 67.684h0.36l0.289 0.214 0.215 0.145 0.144 0.359 0.215 0.649v0.863l-0.215 0.723-0.144 0.285-0.215 0.219-0.289 0.14h-0.36l-0.359-0.14-0.144-0.219-0.215-0.285-0.145-0.723v-0.863l0.145-0.649 0.215-0.359 0.144-0.145 0.359-0.214"/>
    <path transform="scale(1.3333)" d="m137.02 65.02h14.398"/>
   </g>
   <path transform="scale(1.3333)" d="m127.73 66.602v-3.598h0.864l0.504 0.215 0.363 0.289 0.141 0.359 0.144 0.719v0.504l-0.144 0.648-0.141 0.36-0.363 0.363-0.504 0.141h-0.864" stroke="#008484"/>
   <path transform="scale(1.3333)" d="m132.84 63.004h-0.649l-0.359 0.215-0.145 0.144-0.359 0.504-0.219 0.719v1.367l0.219 0.289 0.145 0.219 0.359 0.141h0.648l0.36-0.141 0.215-0.219 0.144-0.289v-0.863l-0.144-0.36-0.215-0.144-0.36-0.215h-0.648l-0.359 0.215-0.145 0.144-0.219 0.36" stroke="#008484"/>
   <g stroke="#840000">
    <path transform="scale(1.3333)" d="m143.5 64.082h-2.09"/>
    <path transform="scale(1.3333)" d="m142.49 64.082v-3.598l-0.359 0.504-0.363 0.36-0.36 0.144"/>
    <path transform="scale(1.3333)" d="m146.95 64.082h-2.086"/>
    <path transform="scale(1.3333)" d="m145.88 64.082v-3.598l-0.289 0.504-0.359 0.36-0.36 0.144"/>
    <path transform="scale(1.3333)" d="m137.02 57.82h14.398"/>
   </g>
   <path transform="scale(1.3333)" d="m127.73 59.402v-3.597h0.864l0.504 0.215 0.363 0.289 0.141 0.359 0.144 0.719v0.504l-0.144 0.648-0.141 0.359-0.363 0.36-0.504 0.144h-0.864" stroke="#008484"/>
   <path transform="scale(1.3333)" d="m130.97 55.805h2.375l-1.512 3.597" stroke="#008484"/>
   <g stroke="#840000">
    <path transform="scale(1.3333)" d="m143.5 56.883h-2.09"/>
    <path transform="scale(1.3333)" d="m142.49 56.883v-3.602l-0.359 0.504-0.363 0.363-0.36 0.145"/>
    <path transform="scale(1.3333)" d="m144.87 53.645 0.145-0.145 0.359-0.219h0.863l0.36 0.219 0.144 0.145 0.215 0.359v0.289l-0.215 0.574-2.015 2.016h2.23"/>
    <path transform="scale(1.3333)" d="m137.02 50.617h14.398"/>
   </g>
   <g stroke="#008484">
    <path transform="scale(1.3333)" d="m117.58 47.594h3.602"/>
    <path transform="scale(1.3333)" d="m120.53 52.203-1.222-1.726"/>
    <path transform="scale(1.3333)" d="m118.44 52.203v-3.601h1.371l0.36 0.218 0.144 0.145 0.215 0.359v0.504l-0.215 0.36-0.144 0.144-0.36 0.145h-1.371"/>
    <path transform="scale(1.3333)" d="m121.18 47.594h3.312"/>
    <path transform="scale(1.3333)" d="m122.04 50.332h1.223"/>
    <path transform="scale(1.3333)" d="m123.77 52.203h-1.727v-3.601h1.727"/>
    <path transform="scale(1.3333)" d="m124.49 47.594h3.383"/>
    <path transform="scale(1.3333)" d="m125.14 52.059 0.504 0.144h0.863l0.359-0.144 0.145-0.215 0.215-0.289v-0.36l-0.215-0.359-0.145-0.145-0.359-0.214-0.649-0.145-0.359-0.144-0.219-0.215-0.14-0.364v-0.285l0.14-0.359 0.219-0.145 0.359-0.218h0.864l0.504 0.218"/>
    <path transform="scale(1.3333)" d="m127.88 47.594h3.238"/>
    <path transform="scale(1.3333)" d="m128.74 50.332h1.227"/>
    <path transform="scale(1.3333)" d="m130.47 52.203h-1.731v-3.601h1.731"/>
    <path transform="scale(1.3333)" d="m131.11 47.594h2.809"/>
    <path transform="scale(1.3333)" d="m131.48 48.602h2.085"/>
    <path transform="scale(1.3333)" d="m132.48 52.203v-3.601"/>
   </g>
   <g stroke="#840000">
    <path transform="scale(1.3333)" d="m143.5 49.684h-2.09"/>
    <path transform="scale(1.3333)" d="m142.49 49.684v-3.602l-0.359 0.504-0.363 0.359-0.36 0.145"/>
    <path transform="scale(1.3333)" d="m144.72 46.082h2.23l-1.223 1.367h0.504l0.36 0.219 0.144 0.144 0.215 0.36v0.863l-0.215 0.289-0.144 0.215-0.36 0.145h-1.007l-0.36-0.145-0.144-0.215"/>
    <path transform="scale(1.3333)" d="m137.02 43.418h14.398"/>
   </g>
   <g stroke="#008484">
    <path transform="scale(1.3333)" d="m113.33 40.395h3.598"/>
    <path transform="scale(1.3333)" d="m116.21 45.004-1.152-1.731"/>
    <path transform="scale(1.3333)" d="m114.2 45.004v-3.602h1.367l0.36 0.215 0.144 0.145 0.145 0.363v0.504l-0.145 0.359-0.144 0.145-0.36 0.14h-1.367"/>
    <path transform="scale(1.3333)" d="m116.93 40.395h3.097"/>
    <path transform="scale(1.3333)" d="m117.58 43.996h1.731"/>
    <path transform="scale(1.3333)" d="m117.29 45.004 1.148-3.602 1.227 3.602"/>
    <path transform="scale(1.3333)" d="m120.03 40.395h4.106"/>
    <path transform="scale(1.3333)" d="m120.89 45.004v-3.602l1.152 2.594 1.223-2.594v3.602"/>
    <path transform="scale(1.3333)" d="m124.13 40.395h2.734"/>
    <path transform="scale(1.3333)" d="m124.13 45.363h2.734"/>
    <path transform="scale(1.3333)" d="m126.87 40.395h3.602"/>
    <path transform="scale(1.3333)" d="m129.75 44.645-0.144 0.214-0.504 0.145h-0.36l-0.504-0.145-0.359-0.359-0.145-0.359-0.214-0.649v-0.504l0.214-0.722 0.145-0.36 0.359-0.289 0.504-0.215h0.36l0.504 0.215 0.144 0.145"/>
    <path transform="scale(1.3333)" d="m130.47 40.395h3.453"/>
    <path transform="scale(1.3333)" d="m131.11 44.859 0.578 0.145h0.793l0.36-0.145 0.215-0.214 0.144-0.29v-0.359l-0.144-0.359-0.215-0.145-0.36-0.219-0.648-0.14-0.359-0.145-0.145-0.218-0.219-0.36v-0.285l0.219-0.363 0.145-0.145 0.359-0.215h0.863l0.504 0.215"/>
   </g>
   <g stroke="#840000">
    <path transform="scale(1.3333)" d="m143.5 42.484h-2.09"/>
    <path transform="scale(1.3333)" d="m142.49 42.484v-3.601l-0.359 0.504-0.363 0.359-0.36 0.145"/>
    <path transform="scale(1.3333)" d="m146.59 40.105v2.379"/>
    <path transform="scale(1.3333)" d="m145.73 38.738-0.863 2.52h2.231"/>
    <path transform="scale(1.3333)" d="m137.02 36.219h14.398"/>
   </g>
   <g stroke="#008484">
    <path transform="scale(1.3333)" d="m123.27 37.805-1.223-1.731"/>
    <path transform="scale(1.3333)" d="m121.18 37.805v-3.602h1.367l0.359 0.215 0.219 0.144 0.141 0.36v0.504l-0.141 0.359-0.219 0.145-0.359 0.144h-1.367"/>
    <path transform="scale(1.3333)" d="m124.64 36.797h1.726"/>
    <path transform="scale(1.3333)" d="m124.27 37.805 1.227-3.602 1.223 3.602"/>
    <path transform="scale(1.3333)" d="m129.75 37.805h-2.016"/>
    <path transform="scale(1.3333)" d="m128.74 37.805v-3.602l-0.359 0.504-0.289 0.359-0.36 0.145"/>
    <path transform="scale(1.3333)" d="m132.84 35.426v2.379"/>
    <path transform="scale(1.3333)" d="m131.98 34.059-0.867 2.519h2.235"/>
   </g>
   <g stroke="#840000">
    <path transform="scale(1.3333)" d="m143.5 35.281h-2.09"/>
    <path transform="scale(1.3333)" d="m142.49 35.281v-3.597l-0.359 0.504-0.363 0.359-0.36 0.144"/>
    <path transform="scale(1.3333)" d="m146.74 31.684h-1.726l-0.145 1.726 0.145-0.144 0.359-0.215h0.863l0.36 0.215 0.144 0.144 0.215 0.36v0.867l-0.215 0.285-0.144 0.219-0.36 0.14h-0.863l-0.359-0.14-0.145-0.219"/>
    <path transform="scale(1.3333)" d="m137.02 29.02h14.398"/>
   </g>
   <g stroke="#008484">
    <path transform="scale(1.3333)" d="m123.27 30.602-1.223-1.727"/>
    <path transform="scale(1.3333)" d="m121.18 30.602v-3.598h1.367l0.359 0.215 0.219 0.144 0.141 0.36v0.504l-0.141 0.359-0.219 0.144-0.359 0.145h-1.367"/>
    <path transform="scale(1.3333)" d="m124.64 29.594h1.726"/>
    <path transform="scale(1.3333)" d="m124.27 30.602 1.227-3.598 1.223 3.598"/>
    <path transform="scale(1.3333)" d="m129.75 30.602h-2.016"/>
    <path transform="scale(1.3333)" d="m128.74 30.602v-3.598l-0.359 0.504-0.289 0.359-0.36 0.145"/>
    <path transform="scale(1.3333)" d="m133.06 27.004h-1.727l-0.219 1.726 0.219-0.144 0.359-0.215h0.793l0.36 0.215 0.215 0.144 0.144 0.36v0.863l-0.144 0.289-0.215 0.219-0.36 0.141h-0.793l-0.359-0.141-0.219-0.219"/>
   </g>
   <g stroke="#840000">
    <path transform="scale(1.3333)" d="m143.5 28.082h-2.09"/>
    <path transform="scale(1.3333)" d="m142.49 28.082v-3.598l-0.359 0.504-0.363 0.36-0.36 0.144"/>
    <path transform="scale(1.3333)" d="m146.59 24.484h-0.719l-0.289 0.215-0.215 0.145-0.359 0.504-0.145 0.718v1.368l0.145 0.289 0.215 0.215 0.359 0.144h0.648l0.36-0.144 0.144-0.215 0.215-0.289v-0.864l-0.215-0.359-0.144-0.145-0.36-0.214h-0.648l-0.359 0.214-0.215 0.145-0.145 0.359"/>
    <path transform="scale(1.3333)" d="m101.02 14.617v-14.398"/>
   </g>
   <g stroke="#008484">
    <path transform="scale(1.3333)" d="m102.6 28.301-1.727 1.222"/>
    <path transform="scale(1.3333)" d="m102.6 30.387h-3.598v-1.367l0.215-0.36 0.144-0.144 0.36-0.215h0.504l0.359 0.215 0.144 0.144 0.145 0.36v1.367"/>
    <path transform="scale(1.3333)" d="m101.59 26.93v-1.727"/>
    <path transform="scale(1.3333)" d="m102.6 27.293-3.598-1.227 3.598-1.152"/>
    <path transform="scale(1.3333)" d="m102.6 21.82v2.016"/>
    <path transform="scale(1.3333)" d="m102.6 22.828h-3.598l0.504 0.36 0.359 0.289 0.145 0.359"/>
    <path transform="scale(1.3333)" d="m99.004 18.723v0.648l0.215 0.359 0.144 0.145 0.504 0.359 0.719 0.215h1.367l0.289-0.215 0.219-0.144 0.141-0.36v-0.648l-0.141-0.359-0.219-0.215-0.289-0.145h-0.863l-0.36 0.145-0.144 0.215-0.215 0.359v0.648l0.215 0.36 0.144 0.144 0.36 0.215"/>
   </g>
   <g stroke="#840000">
    <path transform="scale(1.3333)" d="m100.08 8.066v2.09"/>
    <path transform="scale(1.3333)" d="m100.08 9.074h-3.598l0.504 0.36 0.36 0.363 0.144 0.359"/>
    <path transform="scale(1.3333)" d="m96.484 6.844v-2.375l3.598 1.511"/>
    <path transform="scale(1.3333)" d="m93.82 14.617v-14.398"/>
   </g>
   <g stroke="#008484">
    <path transform="scale(1.3333)" d="m95.402 28.301-1.726 1.222"/>
    <path transform="scale(1.3333)" d="m95.402 30.387h-3.597v-1.367l0.215-0.36 0.144-0.144 0.359-0.215h0.504l0.36 0.215 0.144 0.144 0.145 0.36v1.367"/>
    <path transform="scale(1.3333)" d="m94.395 26.93v-1.727"/>
    <path transform="scale(1.3333)" d="m95.402 27.293-3.597-1.227 3.597-1.152"/>
    <path transform="scale(1.3333)" d="m95.402 21.82v2.016"/>
    <path transform="scale(1.3333)" d="m95.402 22.828h-3.597l0.504 0.36 0.359 0.289 0.144 0.359"/>
    <path transform="scale(1.3333)" d="m91.805 20.594v-2.375l3.597 1.511"/>
   </g>
   <g stroke="#840000">
    <path transform="scale(1.3333)" d="m92.883 8.066v2.09"/>
    <path transform="scale(1.3333)" d="m92.883 9.074h-3.602l0.504 0.36 0.363 0.363 0.145 0.359"/>
    <path transform="scale(1.3333)" d="m90.867 5.98-0.215 0.36-0.144 0.215-0.36 0.144h-0.144l-0.359-0.144-0.145-0.215-0.219-0.36v-0.648l0.219-0.359 0.145-0.145 0.359-0.219h0.144l0.36 0.219 0.144 0.145 0.215 0.359v0.648l0.145 0.36 0.144 0.215 0.36 0.144h0.718l0.289-0.144 0.215-0.215 0.145-0.36v-0.648l-0.145-0.359-0.215-0.145-0.289-0.219h-0.718l-0.36 0.219-0.144 0.145-0.145 0.359"/>
    <path transform="scale(1.3333)" d="m86.617 14.617v-14.398"/>
   </g>
   <g stroke="#008484">
    <path transform="scale(1.3333)" d="m88.203 28.301-1.726 1.222"/>
    <path transform="scale(1.3333)" d="m88.203 30.387h-3.601v-1.367l0.218-0.36 0.145-0.144 0.359-0.215h0.504l0.36 0.215 0.144 0.144 0.145 0.36v1.367"/>
    <path transform="scale(1.3333)" d="m87.195 26.93v-1.727"/>
    <path transform="scale(1.3333)" d="m88.203 27.293-3.601-1.227 3.601-1.152"/>
    <path transform="scale(1.3333)" d="m88.203 21.82v2.016"/>
    <path transform="scale(1.3333)" d="m88.203 22.828h-3.601l0.503 0.36 0.364 0.289 0.14 0.359"/>
    <path transform="scale(1.3333)" d="m86.188 19.73-0.215 0.36-0.145 0.144-0.359 0.215h-0.145l-0.359-0.215-0.145-0.144-0.218-0.36v-0.648l0.218-0.359 0.145-0.215 0.359-0.145h0.145l0.359 0.145 0.145 0.215 0.215 0.359v0.648l0.144 0.36 0.145 0.144 0.359 0.215h0.719l0.289-0.215 0.215-0.144 0.144-0.36v-0.648l-0.144-0.359-0.215-0.215-0.289-0.145h-0.719l-0.359 0.145-0.145 0.215-0.144 0.359"/>
   </g>
   <g stroke="#840000">
    <path transform="scale(1.3333)" d="m85.684 8.066v2.09"/>
    <path transform="scale(1.3333)" d="m85.684 9.074h-3.602l0.504 0.36 0.359 0.363 0.145 0.359"/>
    <path transform="scale(1.3333)" d="m85.684 6.34v-0.649l-0.145-0.359-0.215-0.144-0.504-0.36-0.648-0.219h-1.367l-0.364 0.219-0.14 0.145-0.219 0.359v0.648l0.219 0.36 0.14 0.215 0.364 0.144h0.863l0.285-0.144 0.219-0.215 0.144-0.36v-0.648l-0.144-0.359-0.219-0.145-0.285-0.219"/>
    <path transform="scale(1.3333)" d="m57.82 93.82v14.399"/>
   </g>
   <g stroke="#008484">
    <path transform="scale(1.3333)" d="m58.395 90.004v-1.731"/>
    <path transform="scale(1.3333)" d="m59.402 90.363-3.597-1.222 3.597-1.227"/>
    <path transform="scale(1.3333)" d="m59.402 84.891v2.015"/>
    <path transform="scale(1.3333)" d="m59.402 85.898h-3.597l0.504 0.36 0.359 0.289 0.144 0.359"/>
    <path transform="scale(1.3333)" d="m57.027 81.797h2.375"/>
    <path transform="scale(1.3333)" d="m55.66 82.66 2.52 0.863v-2.23"/>
   </g>
   <path transform="scale(1.3333)" d="m53.645 102.03-0.145-0.215-0.219-0.289v-0.863l0.219-0.359 0.145-0.145 0.359-0.218h0.289l0.574 0.218 2.016 2.016v-2.234" stroke="#840000"/>
   <path transform="scale(1.3333)" d="m79.418 14.617v-14.398" stroke="#840000"/>
   <g stroke="#008484">
    <path transform="scale(1.3333)" d="m81.004 28.301-1.731 1.222"/>
    <path transform="scale(1.3333)" d="m81.004 30.387h-3.602v-1.367l0.215-0.36 0.145-0.144 0.363-0.215h0.504l0.359 0.215 0.145 0.144 0.14 0.36v1.367"/>
    <path transform="scale(1.3333)" d="m79.996 26.93v-1.727"/>
    <path transform="scale(1.3333)" d="m81.004 27.293-3.602-1.227 3.602-1.152"/>
    <path transform="scale(1.3333)" d="m81.004 21.82v2.016"/>
    <path transform="scale(1.3333)" d="m81.004 22.828h-3.602l0.504 0.36 0.36 0.289 0.144 0.359"/>
    <path transform="scale(1.3333)" d="m81.004 20.09v-0.719l-0.145-0.289-0.214-0.215-0.504-0.359-0.649-0.145h-1.367l-0.363 0.145-0.145 0.215-0.215 0.359v0.648l0.215 0.36 0.145 0.144 0.363 0.215h0.863l0.285-0.215 0.219-0.144 0.145-0.36v-0.648l-0.145-0.359-0.219-0.215-0.285-0.145"/>
   </g>
   <g stroke="#840000">
    <path transform="scale(1.3333)" d="m75.242 10.156-0.144-0.218-0.215-0.36v-0.793l0.215-0.359 0.144-0.215 0.36-0.145h0.289l0.578 0.145 2.015 2.09v-2.235"/>
    <path transform="scale(1.3333)" d="m74.883 5.836v-0.359l0.215-0.289 0.144-0.215 0.36-0.145 0.648-0.219h0.863l0.723 0.219 0.289 0.145 0.215 0.215 0.144 0.289v0.359l-0.144 0.359-0.215 0.145-0.289 0.215-0.723 0.144h-0.863l-0.648-0.144-0.36-0.215-0.144-0.145-0.215-0.359"/>
    <path transform="scale(1.3333)" d="m72.219 14.617v-14.398"/>
   </g>
   <g stroke="#008484">
    <path transform="scale(1.3333)" d="m73.805 28.301-1.731 1.222"/>
    <path transform="scale(1.3333)" d="m73.805 30.387h-3.602v-1.367l0.215-0.36 0.144-0.144 0.36-0.215h0.504l0.359 0.215 0.145 0.144 0.144 0.36v1.367"/>
    <path transform="scale(1.3333)" d="m72.797 26.93v-1.727"/>
    <path transform="scale(1.3333)" d="m73.805 27.293-3.602-1.227 3.602-1.152"/>
    <path transform="scale(1.3333)" d="m70.562 23.836-0.144-0.145-0.215-0.359v-0.863l0.215-0.364 0.144-0.14 0.36-0.145h0.289l0.574 0.145 2.02 2.086v-2.231"/>
    <path transform="scale(1.3333)" d="m70.203 19.586v-0.359l0.215-0.36 0.144-0.144 0.36-0.215 0.648-0.145h0.864l0.722 0.145 0.285 0.215 0.219 0.144 0.145 0.36v0.359l-0.145 0.289-0.219 0.215-0.285 0.144-0.722 0.215h-0.864l-0.648-0.215-0.36-0.144-0.144-0.215-0.215-0.289"/>
   </g>
   <g stroke="#840000">
    <path transform="scale(1.3333)" d="m68.043 10.156-0.145-0.218-0.214-0.36v-0.793l0.214-0.359 0.145-0.215 0.359-0.145h0.289l0.575 0.145 2.015 2.09v-2.235"/>
    <path transform="scale(1.3333)" d="m71.281 4.609v2.09"/>
    <path transform="scale(1.3333)" d="m71.281 5.691h-3.597l0.504 0.289 0.359 0.36 0.144 0.359"/>
    <path transform="scale(1.3333)" d="m65.02 14.617v-14.398"/>
   </g>
   <g stroke="#008484">
    <path transform="scale(1.3333)" d="m66.602 28.301-1.727 1.222"/>
    <path transform="scale(1.3333)" d="m66.602 30.387h-3.598v-1.367l0.215-0.36 0.144-0.144 0.36-0.215h0.504l0.359 0.215 0.144 0.144 0.145 0.36v1.367"/>
    <path transform="scale(1.3333)" d="m65.594 26.93v-1.727"/>
    <path transform="scale(1.3333)" d="m66.602 27.293-3.598-1.227 3.598-1.152"/>
    <path transform="scale(1.3333)" d="m63.363 23.836-0.144-0.145-0.215-0.359v-0.863l0.215-0.364 0.144-0.14 0.36-0.145h0.289l0.574 0.145 2.016 2.086v-2.231"/>
    <path transform="scale(1.3333)" d="m66.602 18.363v2.086"/>
    <path transform="scale(1.3333)" d="m66.602 19.371h-3.598l0.504 0.359 0.359 0.36 0.145 0.359"/>
   </g>
   <g stroke="#840000">
    <path transform="scale(1.3333)" d="m60.844 10.156-0.145-0.218-0.215-0.36v-0.793l0.215-0.359 0.145-0.215 0.359-0.145h0.289l0.574 0.145 2.016 2.09v-2.235"/>
    <path transform="scale(1.3333)" d="m60.844 6.699-0.145-0.144-0.215-0.36v-0.863l0.215-0.359 0.145-0.145 0.359-0.219h0.289l0.574 0.219 2.016 2.016v-2.235"/>
    <path transform="scale(1.3333)" d="m57.82 14.617v-14.398"/>
   </g>
   <g stroke="#008484">
    <path transform="scale(1.3333)" d="m56.02 25.922-0.215 0.359v0.504l0.215 0.508 0.289 0.359 0.359 0.145 0.719 0.141h0.504l0.648-0.141 0.359-0.145 0.36-0.359 0.144-0.508v-0.359l-0.144-0.504-0.215-0.215h-1.152v0.719"/>
    <path transform="scale(1.3333)" d="m59.402 24.195h-3.597l3.597-2.09h-3.597"/>
    <path transform="scale(1.3333)" d="m59.402 20.449h-3.597v-0.863l0.215-0.504 0.289-0.359 0.359-0.215 0.719-0.145h0.504l0.648 0.145 0.359 0.215 0.36 0.359 0.144 0.504v0.863"/>
   </g>
   <g stroke="#840000">
    <path transform="scale(1.3333)" d="m53.645 10.156-0.145-0.218-0.219-0.36v-0.793l0.219-0.359 0.145-0.215 0.359-0.145h0.289l0.574 0.145 2.016 2.09v-2.235"/>
    <path transform="scale(1.3333)" d="m53.281 6.844v-2.235l1.371 1.227v-0.504l0.215-0.359 0.145-0.145 0.359-0.219h0.863l0.289 0.219 0.215 0.145 0.145 0.359v1.008l-0.145 0.359-0.215 0.145"/>
    <path transform="scale(1.3333)" d="m50.617 14.617v-14.398"/>
   </g>
   <g stroke="#008484">
    <path transform="scale(1.3333)" d="m48.602 27.652 3.601-1.226-3.601-1.223"/>
    <path transform="scale(1.3333)" d="m51.844 21.965 0.215 0.14 0.144 0.579v0.289l-0.144 0.504-0.36 0.359-0.359 0.215-0.649 0.144h-0.503l-0.719-0.144-0.364-0.215-0.285-0.359-0.218-0.504v-0.289l0.218-0.579 0.145-0.14"/>
    <path transform="scale(1.3333)" d="m51.844 18.363 0.215 0.145 0.144 0.574v0.289l-0.144 0.504-0.36 0.359-0.359 0.215-0.649 0.145h-0.503l-0.719-0.145-0.364-0.215-0.285-0.359-0.218-0.504v-0.289l0.218-0.574 0.145-0.145"/>
   </g>
   <g stroke="#840000">
    <path transform="scale(1.3333)" d="m46.441 10.156-0.14-0.218-0.219-0.36v-0.793l0.219-0.359 0.14-0.215 0.364-0.145h0.285l0.578 0.145 2.016 2.09v-2.235"/>
    <path transform="scale(1.3333)" d="m47.309 4.973h2.375"/>
    <path transform="scale(1.3333)" d="m45.938 5.836 2.523 0.863v-2.23"/>
    <path transform="scale(1.3333)" d="m14.617 29.02h-14.398"/>
   </g>
   <g stroke="#008484">
    <path transform="scale(1.3333)" d="m20.594 30.602-1.223-1.727"/>
    <path transform="scale(1.3333)" d="m18.508 30.602v-3.598h1.367l0.359 0.215 0.215 0.144 0.145 0.36v0.504l-0.145 0.359-0.215 0.144-0.359 0.145h-1.367"/>
    <path transform="scale(1.3333)" d="m21.965 29.594h1.726"/>
    <path transform="scale(1.3333)" d="m21.602 30.602 1.226-3.598 1.223 3.598"/>
    <path transform="scale(1.3333)" d="m25.059 27.363 0.144-0.144 0.359-0.215h0.864l0.359 0.215 0.145 0.144 0.144 0.36v0.289l-0.144 0.574-2.016 2.016h2.16"/>
    <path transform="scale(1.3333)" d="m28.516 27.363 0.144-0.144 0.36-0.215h0.863l0.289 0.215 0.215 0.144 0.144 0.36v0.289l-0.144 0.574-2.086 2.016h2.23"/>
   </g>
   <g stroke="#840000">
    <path transform="scale(1.3333)" d="m4.609 24.844 0.219-0.145 0.36-0.215h0.792l0.36 0.215 0.215 0.145 0.144 0.359v0.289l-0.144 0.574-2.086 2.016h2.23"/>
    <path transform="scale(1.3333)" d="m9.938 24.484h-1.727l-0.145 1.727 0.145-0.145 0.359-0.214h0.864l0.363 0.214 0.141 0.145 0.218 0.359v0.864l-0.218 0.289-0.141 0.215-0.363 0.144h-0.864l-0.359-0.144-0.145-0.215"/>
    <path transform="scale(1.3333)" d="m14.617 36.219h-14.398"/>
   </g>
   <g stroke="#008484">
    <path transform="scale(1.3333)" d="m18.363 36.797h1.727"/>
    <path transform="scale(1.3333)" d="m18.004 37.805 1.223-3.602 1.222 3.602"/>
    <path transform="scale(1.3333)" d="m21.461 36.797h1.727"/>
    <path transform="scale(1.3333)" d="m21.098 37.805 1.226-3.602 1.153 3.602"/>
    <path transform="scale(1.3333)" d="m26.57 37.805h-2.015"/>
    <path transform="scale(1.3333)" d="m25.562 37.805v-3.602l-0.359 0.504-0.289 0.359-0.359 0.145"/>
    <path transform="scale(1.3333)" d="m29.668 34.203h-0.648l-0.36 0.215-0.144 0.144-0.36 0.504-0.218 0.719v1.371l0.218 0.285 0.145 0.219 0.359 0.145h0.649l0.359-0.145 0.215-0.219 0.144-0.285v-0.863l-0.144-0.363-0.215-0.145-0.359-0.215h-0.649l-0.359 0.215-0.145 0.145-0.218 0.363"/>
   </g>
   <g stroke="#840000">
    <path transform="scale(1.3333)" d="m4.609 32.043 0.219-0.145 0.36-0.214h0.792l0.36 0.214 0.215 0.145 0.144 0.359v0.289l-0.144 0.575-2.086 2.015h2.23"/>
    <path transform="scale(1.3333)" d="m9.797 31.684h-0.723l-0.289 0.214-0.215 0.145-0.359 0.504-0.145 0.719v1.371l0.145 0.285 0.215 0.219 0.359 0.14h0.649l0.363-0.14 0.141-0.219 0.218-0.285v-0.867l-0.218-0.36-0.141-0.144-0.363-0.215h-0.649l-0.359 0.215-0.215 0.144-0.145 0.36"/>
    <path transform="scale(1.3333)" d="m14.617 43.418h-14.398"/>
   </g>
   <g stroke="#008484">
    <path transform="scale(1.3333)" d="m18.363 43.996h1.727"/>
    <path transform="scale(1.3333)" d="m18.004 45.004 1.223-3.602 1.222 3.602"/>
    <path transform="scale(1.3333)" d="m21.461 43.996h1.727"/>
    <path transform="scale(1.3333)" d="m21.098 45.004 1.226-3.602 1.153 3.602"/>
    <path transform="scale(1.3333)" d="m26.57 45.004h-2.015"/>
    <path transform="scale(1.3333)" d="m25.562 45.004v-3.602l-0.359 0.504-0.289 0.36-0.359 0.144"/>
    <path transform="scale(1.3333)" d="m29.883 41.402h-1.727l-0.218 1.731 0.218-0.145 0.36-0.218h0.793l0.359 0.218 0.215 0.145 0.144 0.359v0.863l-0.144 0.29-0.215 0.214-0.359 0.145h-0.793l-0.36-0.145-0.218-0.214"/>
   </g>
   <g stroke="#840000">
    <path transform="scale(1.3333)" d="m4.609 39.242 0.219-0.144 0.36-0.215h0.792l0.36 0.215 0.215 0.144 0.144 0.36v0.289l-0.144 0.578-2.086 2.015h2.23"/>
    <path transform="scale(1.3333)" d="m7.922 38.883h2.379l-1.516 3.601"/>
    <path transform="scale(1.3333)" d="m14.617 50.617h-14.398"/>
   </g>
   <g stroke="#008484">
    <path transform="scale(1.3333)" d="m18.363 51.195h1.727"/>
    <path transform="scale(1.3333)" d="m18.004 52.203 1.223-3.601 1.222 3.601"/>
    <path transform="scale(1.3333)" d="m21.461 51.195h1.727"/>
    <path transform="scale(1.3333)" d="m21.098 52.203 1.226-3.601 1.153 3.601"/>
    <path transform="scale(1.3333)" d="m26.57 52.203h-2.015"/>
    <path transform="scale(1.3333)" d="m25.562 52.203v-3.601l-0.359 0.503-0.289 0.364-0.359 0.14"/>
    <path transform="scale(1.3333)" d="m29.668 49.828v2.375"/>
    <path transform="scale(1.3333)" d="m28.805 48.461-0.867 2.519h2.234"/>
   </g>
   <g stroke="#840000">
    <path transform="scale(1.3333)" d="m4.609 46.441 0.219-0.14 0.36-0.219h0.792l0.36 0.219 0.215 0.14 0.144 0.364v0.285l-0.144 0.578-2.086 2.016h2.23"/>
    <path transform="scale(1.3333)" d="m8.785 47.668-0.359-0.219-0.215-0.14-0.145-0.364v-0.14l0.145-0.364 0.215-0.14 0.359-0.219h0.649l0.363 0.219 0.141 0.14 0.218 0.364v0.14l-0.218 0.364-0.141 0.14-0.363 0.219h-0.649l-0.359 0.144-0.215 0.141-0.145 0.363v0.719l0.145 0.289 0.215 0.215 0.359 0.145h0.649l0.363-0.145 0.141-0.215 0.218-0.289v-0.719l-0.218-0.363-0.141-0.141-0.363-0.144"/>
    <path transform="scale(1.3333)" d="m14.617 57.82h-14.398"/>
   </g>
   <g stroke="#008484">
    <path transform="scale(1.3333)" d="m18.363 58.395h1.727"/>
    <path transform="scale(1.3333)" d="m18.004 59.402 1.223-3.597 1.222 3.597"/>
    <path transform="scale(1.3333)" d="m21.461 58.395h1.727"/>
    <path transform="scale(1.3333)" d="m21.098 59.402 1.226-3.597 1.153 3.597"/>
    <path transform="scale(1.3333)" d="m26.57 59.402h-2.015"/>
    <path transform="scale(1.3333)" d="m25.562 59.402v-3.597l-0.359 0.504-0.289 0.359-0.359 0.144"/>
    <path transform="scale(1.3333)" d="m27.797 55.805h2.23l-1.222 1.367h0.504l0.359 0.215 0.215 0.144 0.144 0.36v0.863l-0.144 0.289-0.215 0.215-0.359 0.144h-1.008l-0.363-0.144-0.141-0.215"/>
   </g>
   <g stroke="#840000">
    <path transform="scale(1.3333)" d="m4.609 53.645 0.219-0.145 0.36-0.219h0.792l0.36 0.219 0.215 0.145 0.144 0.359v0.289l-0.144 0.574-2.086 2.016h2.23"/>
    <path transform="scale(1.3333)" d="m8.426 56.883h0.648l0.36-0.145 0.144-0.215 0.36-0.503 0.218-0.649v-1.367l-0.218-0.359-0.141-0.145-0.363-0.219h-0.649l-0.359 0.219-0.215 0.145-0.145 0.359v0.863l0.145 0.289 0.215 0.215 0.359 0.145h0.649l0.363-0.145 0.141-0.215 0.218-0.289"/>
    <path transform="scale(1.3333)" d="m65.02 93.82v14.399"/>
   </g>
   <g stroke="#008484">
    <path transform="scale(1.3333)" d="m65.594 90.004v-1.731"/>
    <path transform="scale(1.3333)" d="m66.602 90.363-3.598-1.222 3.598-1.227"/>
    <path transform="scale(1.3333)" d="m66.602 84.891v2.015"/>
    <path transform="scale(1.3333)" d="m66.602 85.898h-3.598l0.504 0.36 0.359 0.289 0.145 0.359"/>
    <path transform="scale(1.3333)" d="m63.004 81.578v1.731l1.726 0.214-0.144-0.214-0.215-0.364v-0.863l0.215-0.285 0.144-0.219 0.36-0.144h0.863l0.289 0.144 0.219 0.219 0.141 0.285v0.863l-0.141 0.364-0.219 0.214"/>
   </g>
   <path transform="scale(1.3333)" d="m60.484 102.17v-2.234l1.368 1.226v-0.504l0.214-0.359 0.145-0.145 0.359-0.218h0.864l0.289 0.218 0.215 0.145 0.144 0.359v1.008l-0.144 0.359-0.215 0.145" stroke="#840000"/>
   <path transform="scale(1.3333)" d="m14.617 65.02h-14.398" stroke="#840000"/>
   <g stroke="#008484">
    <path transform="scale(1.3333)" d="m17.715 61.996h4.105"/>
    <path transform="scale(1.3333)" d="m18.219 63.004 0.863 3.598 0.648-2.59 0.719 2.59 0.867-3.598"/>
    <path transform="scale(1.3333)" d="m21.82 61.996h3.598"/>
    <path transform="scale(1.3333)" d="m24.699 66.602-1.222-1.727"/>
    <path transform="scale(1.3333)" d="m22.684 66.602v-3.598h1.367l0.289 0.215 0.215 0.144 0.144 0.36v0.504l-0.144 0.359-0.215 0.144-0.289 0.145h-1.367"/>
   </g>
   <g stroke="#840000">
    <path transform="scale(1.3333)" d="m4.469 60.484h2.23l-1.222 1.368h0.503l0.36 0.214 0.215 0.145 0.144 0.359v0.864l-0.144 0.289-0.215 0.215-0.36 0.144h-1.007l-0.364-0.144-0.14-0.215"/>
    <path transform="scale(1.3333)" d="m8.93 60.484h0.363l0.285 0.215 0.219 0.145 0.141 0.359 0.218 0.649v0.863l-0.218 0.719-0.141 0.289-0.219 0.215-0.285 0.144h-0.363l-0.36-0.144-0.144-0.215-0.215-0.289-0.145-0.719v-0.863l0.145-0.649 0.215-0.359 0.144-0.145 0.36-0.215"/>
    <path transform="scale(1.3333)" d="m14.617 72.219h-14.398"/>
   </g>
   <g stroke="#008484">
    <path transform="scale(1.3333)" d="m17.715 69.195h3.601"/>
    <path transform="scale(1.3333)" d="m20.594 73.441-0.145 0.219-0.574 0.145h-0.289l-0.504-0.145-0.359-0.359-0.215-0.363-0.145-0.645v-0.508l0.145-0.719 0.215-0.359 0.359-0.289 0.504-0.215h0.289l0.574 0.215 0.145 0.144"/>
    <path transform="scale(1.3333)" d="m21.316 69.195h3.383"/>
    <path transform="scale(1.3333)" d="m21.965 73.66 0.504 0.145h0.863l0.359-0.145 0.145-0.219 0.215-0.285v-0.359l-0.215-0.363-0.145-0.141-0.359-0.219-0.648-0.144-0.36-0.145-0.219-0.215-0.14-0.359v-0.289l0.14-0.36 0.219-0.144 0.36-0.215h0.793l0.574 0.215"/>
   </g>
   <g stroke="#840000">
    <path transform="scale(1.3333)" d="m4.469 67.684h2.23l-1.222 1.367h0.503l0.36 0.215 0.215 0.144 0.144 0.36v0.867l-0.144 0.285-0.215 0.219-0.36 0.14h-1.007l-0.364-0.14-0.14-0.219"/>
    <path transform="scale(1.3333)" d="m10.156 71.281h-2.09"/>
    <path transform="scale(1.3333)" d="m9.074 71.281v-3.597l-0.289 0.504-0.359 0.359-0.36 0.144"/>
    <path transform="scale(1.3333)" d="m14.617 79.418h-14.398"/>
   </g>
   <g stroke="#008484">
    <path transform="scale(1.3333)" d="m18.363 79.996h1.727"/>
    <path transform="scale(1.3333)" d="m18.004 81.004 1.223-3.602 1.222 3.602"/>
    <path transform="scale(1.3333)" d="m23.477 81.004h-2.016"/>
    <path transform="scale(1.3333)" d="m22.469 81.004v-3.602l-0.364 0.504-0.285 0.36-0.359 0.144"/>
    <path transform="scale(1.3333)" d="m24.914 77.762 0.145-0.145 0.359-0.215h0.863l0.289 0.215 0.215 0.145 0.145 0.363v0.285l-0.145 0.578-2.086 2.016h2.231"/>
   </g>
   <g stroke="#840000">
    <path transform="scale(1.3333)" d="m4.469 74.883h2.23l-1.222 1.367h0.503l0.36 0.219 0.215 0.14 0.144 0.364v0.863l-0.144 0.289-0.215 0.215-0.36 0.144h-1.007l-0.364-0.144-0.14-0.215"/>
    <path transform="scale(1.3333)" d="m8.066 75.242 0.145-0.144 0.359-0.215h0.864l0.363 0.215 0.141 0.144 0.218 0.36v0.289l-0.218 0.578-2.016 2.015h2.234"/>
    <path transform="scale(1.3333)" d="m72.219 93.82v14.399"/>
   </g>
   <g stroke="#008484">
    <path transform="scale(1.3333)" d="m70.418 87.914-0.215 0.359v0.504l0.215 0.504 0.289 0.364 0.359 0.214 0.719 0.145h0.508l0.645-0.145 0.363-0.214 0.359-0.364 0.145-0.504v-0.285l-0.145-0.578-0.219-0.144h-1.148v0.722"/>
    <path transform="scale(1.3333)" d="m73.805 86.258h-3.602l3.602-2.086h-3.602"/>
    <path transform="scale(1.3333)" d="m73.805 82.441h-3.602v-0.863l0.215-0.504 0.289-0.359 0.359-0.145 0.719-0.144h0.508l0.645 0.144 0.363 0.145 0.359 0.359 0.145 0.504v0.863"/>
   </g>
   <g stroke="#840000">
    <path transform="scale(1.3333)" d="m68.906 100.3h2.375"/>
    <path transform="scale(1.3333)" d="m67.539 101.16 2.52 0.863v-2.23"/>
    <path transform="scale(1.3333)" d="m79.418 93.82v14.399"/>
   </g>
   <path transform="scale(1.3333)" d="m81.004 89.859h-3.602v-0.863l0.215-0.504 0.289-0.359 0.36-0.219 0.722-0.144h0.504l0.649 0.144 0.359 0.219 0.359 0.359 0.145 0.504v0.863" stroke="#008484"/>
   <path transform="scale(1.3333)" d="m77.402 85.539v-0.359l0.215-0.289 0.145-0.215 0.363-0.145 0.645-0.215h0.867l0.718 0.215 0.29 0.145 0.214 0.215 0.145 0.289v0.359l-0.145 0.359-0.214 0.145-0.29 0.215-0.718 0.144h-0.867l-0.645-0.144-0.363-0.215-0.145-0.145-0.215-0.359" stroke="#008484"/>
   <path transform="scale(1.3333)" d="m74.883 100.16v1.656l1.726 0.215-0.14-0.215-0.219-0.289v-0.863l0.219-0.359 0.14-0.145 0.364-0.218h0.863l0.289 0.218 0.215 0.145 0.144 0.359v0.863l-0.144 0.289-0.215 0.215" stroke="#840000"/>
   <path transform="scale(1.3333)" d="m86.617 93.82v14.399" stroke="#840000"/>
   <g stroke="#008484">
    <path transform="scale(1.3333)" d="m88.203 89.859h-3.601v-0.863l0.218-0.504 0.285-0.359 0.364-0.219 0.719-0.144h0.503l0.649 0.144 0.359 0.219 0.36 0.359 0.144 0.504v0.863"/>
    <path transform="scale(1.3333)" d="m88.203 84.316v2.086"/>
    <path transform="scale(1.3333)" d="m88.203 85.395h-3.601l0.503 0.289 0.364 0.359 0.14 0.359"/>
   </g>
   <path transform="scale(1.3333)" d="m82.082 100.3v0.719l0.219 0.289 0.14 0.214 0.504 0.289 0.723 0.215h1.367l0.289-0.215 0.215-0.144 0.145-0.359v-0.649l-0.145-0.359-0.215-0.145-0.289-0.218h-0.863l-0.36 0.218-0.144 0.145-0.219 0.359v0.649l0.219 0.359 0.144 0.144 0.36 0.215" stroke="#840000"/>
   <path transform="scale(1.3333)" d="m93.82 93.82v14.399" stroke="#840000"/>
   <path transform="scale(1.3333)" d="m95.402 89.859h-3.597v-0.863l0.215-0.504 0.289-0.359 0.359-0.219 0.719-0.144h0.504l0.648 0.144 0.359 0.219 0.36 0.359 0.144 0.504v0.863" stroke="#008484"/>
   <path transform="scale(1.3333)" d="m92.164 86.402-0.144-0.144-0.215-0.36v-0.863l0.215-0.359 0.144-0.145 0.359-0.215h0.289l0.575 0.215 2.015 2.016v-2.231" stroke="#008484"/>
   <path transform="scale(1.3333)" d="m89.281 102.17v-2.375l3.602 1.512" stroke="#840000"/>
   <path transform="scale(1.3333)" d="m101.02 93.82v14.399" stroke="#840000"/>
   <path transform="scale(1.3333)" d="m102.6 89.859h-3.598v-0.863l0.215-0.504 0.289-0.359 0.359-0.219 0.719-0.144h0.504l0.648 0.144 0.36 0.219 0.363 0.359 0.141 0.504v0.863" stroke="#008484"/>
   <path transform="scale(1.3333)" d="m99.004 86.547v-2.231l1.367 1.223v-0.504l0.215-0.359 0.144-0.145 0.36-0.215h0.863l0.289 0.215 0.219 0.145 0.141 0.359v1.008l-0.141 0.359-0.219 0.145" stroke="#008484"/>
   <path transform="scale(1.3333)" d="m98.066 101.31-0.214 0.359-0.145 0.144-0.359 0.215h-0.145l-0.359-0.215-0.145-0.144-0.215-0.359v-0.649l0.215-0.359 0.145-0.145 0.359-0.218h0.145l0.359 0.218 0.145 0.145 0.214 0.359v0.649l0.145 0.359 0.144 0.144 0.36 0.215h0.719l0.289-0.215 0.215-0.144 0.144-0.359v-0.649l-0.144-0.359-0.215-0.145-0.289-0.218h-0.719l-0.36 0.218-0.144 0.145-0.145 0.359" stroke="#840000"/>
   <path transform="scale(1.3333)" d="m137.02 79.418h14.398" stroke="#840000"/>
   <g stroke="#008484">
    <path transform="scale(1.3333)" d="m127.73 81.004v-3.602h0.864l0.504 0.215 0.363 0.289 0.141 0.36 0.144 0.722v0.504l-0.144 0.649-0.141 0.359-0.363 0.359-0.504 0.145h-0.864"/>
    <path transform="scale(1.3333)" d="m132.84 78.629v2.375"/>
    <path transform="scale(1.3333)" d="m131.98 77.258-0.867 2.519h2.235"/>
   </g>
   <path transform="scale(1.3333)" d="m143.5 78.484h0.719l0.289-0.144 0.215-0.215 0.289-0.508 0.215-0.644v-1.371l-0.215-0.36-0.145-0.144-0.359-0.215h-0.649l-0.359 0.215-0.145 0.144-0.214 0.36v0.867l0.214 0.285 0.145 0.219 0.359 0.14h0.649l0.359-0.14 0.145-0.219 0.215-0.285" stroke="#840000"/>
  </g>
 </g>
</svg>
