<?xml version="1.0" encoding="UTF-8"?>
<!-- Created with Inkscape (http://www.inkscape.org/) -->
<svg width="355.78" height="221.38" version="1.1" viewBox="0 0 355.78 221.38" xmlns="http://www.w3.org/2000/svg">
 <g stroke-linecap="round" stroke-linejoin="round" stroke-width=".432">
  <path transform="scale(1.3333)" d="m14.617 14.617h237.6v136.8h-237.6z" fill="#ffffc2" fill-opacity=".6" stroke="#840000"/>
  <g fill="none">
   <path transform="scale(1.3333)" d="m50.617 151.42v14.402" stroke="#840000"/>
   <g stroke="#008484">
    <path transform="scale(1.3333)" d="m51.195 147.6v-1.727"/>
    <path transform="scale(1.3333)" d="m52.203 147.96-3.601-1.227 3.601-1.222"/>
    <path transform="scale(1.3333)" d="m48.602 143.64v-0.364l0.218-0.285 0.145-0.219 0.359-0.14 0.649-0.145h0.863l0.719 0.145 0.289 0.14 0.215 0.219 0.144 0.285v0.364l-0.144 0.359-0.215 0.144-0.289 0.215-0.719 0.145h-0.863l-0.649-0.145-0.359-0.215-0.145-0.144-0.218-0.359"/>
   </g>
   <g stroke="#840000">
    <path transform="scale(1.3333)" d="m49.684 157.54v2.09"/>
    <path transform="scale(1.3333)" d="m49.684 158.62h-3.602l0.504 0.289 0.359 0.36 0.145 0.363"/>
    <path transform="scale(1.3333)" d="m57.82 151.42v14.402"/>
   </g>
   <g stroke="#008484">
    <path transform="scale(1.3333)" d="m58.395 147.6v-1.727"/>
    <path transform="scale(1.3333)" d="m59.402 147.96-3.597-1.227 3.597-1.222"/>
    <path transform="scale(1.3333)" d="m59.402 142.49v2.016"/>
    <path transform="scale(1.3333)" d="m59.402 143.5h-3.597l0.504 0.359 0.359 0.289 0.144 0.36"/>
   </g>
   <path transform="scale(1.3333)" d="m53.645 159.63-0.145-0.219-0.219-0.285v-0.867l0.219-0.36 0.145-0.144 0.359-0.215h0.289l0.574 0.215 2.016 2.016v-2.231" stroke="#840000"/>
   <path transform="scale(1.3333)" d="m65.02 151.42v14.402" stroke="#840000"/>
   <g stroke="#008484">
    <path transform="scale(1.3333)" d="m65.594 147.6v-1.727"/>
    <path transform="scale(1.3333)" d="m66.602 147.96-3.598-1.227 3.598-1.222"/>
    <path transform="scale(1.3333)" d="m63.363 144.51-0.144-0.145-0.215-0.359v-0.863l0.215-0.364 0.144-0.14 0.36-0.145h0.289l0.574 0.145 2.016 2.086v-2.231"/>
   </g>
   <path transform="scale(1.3333)" d="m60.484 159.77v-2.231l1.368 1.223v-0.504l0.214-0.36 0.145-0.144 0.359-0.215h0.864l0.289 0.215 0.215 0.144 0.144 0.36v1.008l-0.144 0.363-0.215 0.141" stroke="#840000"/>
   <path transform="scale(1.3333)" d="m72.219 151.42v14.402" stroke="#840000"/>
   <g stroke="#008484">
    <path transform="scale(1.3333)" d="m72.797 147.6v-1.727"/>
    <path transform="scale(1.3333)" d="m73.805 147.96-3.602-1.227 3.602-1.222"/>
    <path transform="scale(1.3333)" d="m70.203 144.72v-2.231l1.367 1.153v-0.504l0.215-0.364 0.145-0.14 0.363-0.145h0.863l0.285 0.145 0.219 0.14 0.145 0.364v1.007l-0.145 0.36-0.219 0.215"/>
   </g>
   <g stroke="#840000">
    <path transform="scale(1.3333)" d="m68.906 157.9h2.375"/>
    <path transform="scale(1.3333)" d="m67.539 158.76 2.52 0.867v-2.234"/>
    <path transform="scale(1.3333)" d="m79.418 151.42v14.402"/>
   </g>
   <g stroke="#008484">
    <path transform="scale(1.3333)" d="m79.996 147.6v-1.727"/>
    <path transform="scale(1.3333)" d="m81.004 147.96-3.602-1.227 3.602-1.222"/>
    <path transform="scale(1.3333)" d="m78.629 142.78h2.375"/>
    <path transform="scale(1.3333)" d="m77.258 143.64 2.519 0.863v-2.235"/>
   </g>
   <path transform="scale(1.3333)" d="m74.883 157.75v1.656l1.726 0.219-0.14-0.219-0.219-0.285v-0.867l0.219-0.36 0.14-0.144 0.364-0.215h0.863l0.289 0.215 0.215 0.144 0.144 0.36v0.867l-0.144 0.285-0.215 0.219" stroke="#840000"/>
   <path transform="scale(1.3333)" d="m86.617 151.42v14.402" stroke="#840000"/>
   <g stroke="#008484">
    <path transform="scale(1.3333)" d="m87.195 147.6v-1.727"/>
    <path transform="scale(1.3333)" d="m88.203 147.96-3.601-1.227 3.601-1.222"/>
    <path transform="scale(1.3333)" d="m84.602 142.64v1.726l1.73 0.145-0.144-0.145-0.215-0.359v-0.863l0.215-0.364 0.144-0.14 0.359-0.145h0.864l0.289 0.145 0.215 0.14 0.144 0.364v0.863l-0.144 0.359-0.215 0.145"/>
   </g>
   <path transform="scale(1.3333)" d="m82.082 157.9v0.719l0.219 0.289 0.14 0.219 0.504 0.285 0.723 0.219h1.367l0.289-0.219 0.215-0.144 0.145-0.36v-0.648l-0.145-0.36-0.215-0.144-0.289-0.215h-0.863l-0.36 0.215-0.144 0.144-0.219 0.36v0.648l0.219 0.36 0.144 0.144 0.36 0.219" stroke="#840000"/>
   <path transform="scale(1.3333)" d="m93.82 151.42v14.402" stroke="#840000"/>
   <g stroke="#008484">
    <path transform="scale(1.3333)" d="m94.395 147.6v-1.727"/>
    <path transform="scale(1.3333)" d="m95.402 147.96-3.597-1.227 3.597-1.222"/>
    <path transform="scale(1.3333)" d="m91.805 142.78v0.723l0.215 0.359 0.144 0.145 0.504 0.359 0.719 0.145h1.367l0.289-0.145 0.215-0.215 0.144-0.289v-0.718l-0.144-0.364-0.215-0.14-0.289-0.145h-0.863l-0.36 0.145-0.144 0.14-0.215 0.364v0.718l0.215 0.289 0.144 0.215 0.36 0.145"/>
   </g>
   <path transform="scale(1.3333)" d="m89.281 159.77v-2.375l3.602 1.511" stroke="#840000"/>
   <path transform="scale(1.3333)" d="m101.02 151.42v14.402" stroke="#840000"/>
   <g stroke="#008484">
    <path transform="scale(1.3333)" d="m101.59 147.6v-1.727"/>
    <path transform="scale(1.3333)" d="m102.6 147.96-3.598-1.227 3.598-1.222"/>
    <path transform="scale(1.3333)" d="m99.004 144.72v-2.45l3.598 1.586"/>
   </g>
   <path transform="scale(1.3333)" d="m98.066 158.91-0.214 0.36-0.145 0.144-0.359 0.219h-0.145l-0.359-0.219-0.145-0.144-0.215-0.36v-0.648l0.215-0.36 0.145-0.144 0.359-0.215h0.145l0.359 0.215 0.145 0.144 0.214 0.36v0.648l0.145 0.36 0.144 0.144 0.36 0.219h0.719l0.289-0.219 0.215-0.144 0.144-0.36v-0.648l-0.144-0.36-0.215-0.144-0.289-0.215h-0.719l-0.36 0.215-0.144 0.144-0.145 0.36" stroke="#840000"/>
   <path transform="scale(1.3333)" d="m108.22 151.42v14.402" stroke="#840000"/>
   <g stroke="#008484">
    <path transform="scale(1.3333)" d="m108.8 147.6v-1.727"/>
    <path transform="scale(1.3333)" d="m109.8 147.96-3.602-1.227 3.602-1.222"/>
    <path transform="scale(1.3333)" d="m107.78 143.86-0.215 0.289-0.144 0.215-0.36 0.145h-0.144l-0.36-0.145-0.144-0.215-0.215-0.289v-0.718l0.215-0.364 0.144-0.14 0.36-0.145h0.144l0.36 0.145 0.144 0.14 0.215 0.364v0.718l0.145 0.289 0.144 0.215 0.36 0.145h0.722l0.285-0.145 0.219-0.215 0.145-0.289v-0.718l-0.145-0.364-0.219-0.14-0.285-0.145h-0.722l-0.36 0.145-0.144 0.14-0.145 0.364"/>
   </g>
   <path transform="scale(1.3333)" d="m107.28 159.27v-0.649l-0.14-0.359-0.219-0.215-0.504-0.289-0.648-0.215h-1.368l-0.359 0.215-0.145 0.144-0.214 0.36v0.648l0.214 0.36 0.145 0.144 0.359 0.219h0.864l0.289-0.219 0.215-0.144 0.144-0.36v-0.648l-0.144-0.36-0.215-0.144-0.289-0.215" stroke="#840000"/>
   <path transform="scale(1.3333)" d="m115.42 151.42v14.402" stroke="#840000"/>
   <g stroke="#008484">
    <path transform="scale(1.3333)" d="m116 147.6v-1.727"/>
    <path transform="scale(1.3333)" d="m117 147.96-3.602-1.227 3.602-1.222"/>
    <path transform="scale(1.3333)" d="m117 144.15v-0.648l-0.145-0.359-0.214-0.145-0.504-0.359-0.649-0.145h-1.367l-0.363 0.145-0.145 0.14-0.215 0.364v0.718l0.215 0.289 0.145 0.215 0.363 0.145h0.863l0.285-0.145 0.219-0.215 0.145-0.289v-0.718l-0.145-0.364-0.219-0.14-0.285-0.145"/>
   </g>
   <g stroke="#840000">
    <path transform="scale(1.3333)" d="m114.48 159.27v2.089"/>
    <path transform="scale(1.3333)" d="m114.48 160.27h-3.601l0.504 0.364 0.359 0.359 0.145 0.359"/>
    <path transform="scale(1.3333)" d="m110.88 157.04v-0.359l0.215-0.289 0.144-0.215 0.36-0.145 0.648-0.215h0.863l0.723 0.215 0.289 0.145 0.215 0.215 0.144 0.289v0.359l-0.144 0.36-0.215 0.144-0.289 0.215-0.723 0.144h-0.863l-0.648-0.144-0.36-0.215-0.144-0.144-0.215-0.36"/>
    <path transform="scale(1.3333)" d="m122.62 151.42v14.402"/>
   </g>
   <g stroke="#008484">
    <path transform="scale(1.3333)" d="m123.2 147.6v-1.727"/>
    <path transform="scale(1.3333)" d="m124.2 147.96-3.601-1.227 3.601-1.222"/>
    <path transform="scale(1.3333)" d="m124.2 142.49v2.016"/>
    <path transform="scale(1.3333)" d="m124.2 143.5h-3.601l0.503 0.359 0.364 0.289 0.14 0.36"/>
    <path transform="scale(1.3333)" d="m120.6 140.26v-0.36l0.218-0.359 0.145-0.144 0.359-0.215 0.649-0.145h0.863l0.719 0.145 0.289 0.215 0.215 0.144 0.144 0.359v0.36l-0.144 0.289-0.215 0.215-0.289 0.144-0.719 0.219h-0.863l-0.649-0.219-0.359-0.144-0.145-0.215-0.218-0.289"/>
   </g>
   <g stroke="#840000">
    <path transform="scale(1.3333)" d="m121.68 159.27v2.089"/>
    <path transform="scale(1.3333)" d="m121.68 160.27h-3.602l0.504 0.364 0.359 0.359 0.145 0.359"/>
    <path transform="scale(1.3333)" d="m121.68 155.81v2.086"/>
    <path transform="scale(1.3333)" d="m121.68 156.89h-3.602l0.504 0.289 0.359 0.359 0.145 0.359"/>
    <path transform="scale(1.3333)" d="m129.82 151.42v14.402"/>
   </g>
   <g stroke="#008484">
    <path transform="scale(1.3333)" d="m130.4 147.6v-1.727"/>
    <path transform="scale(1.3333)" d="m131.4 147.96-3.597-1.227 3.597-1.222"/>
    <path transform="scale(1.3333)" d="m131.4 142.49v2.016"/>
    <path transform="scale(1.3333)" d="m131.4 143.5h-3.597l0.504 0.359 0.359 0.289 0.144 0.36"/>
    <path transform="scale(1.3333)" d="m131.4 139.04v2.09"/>
    <path transform="scale(1.3333)" d="m131.4 140.04h-3.597l0.504 0.359 0.359 0.36 0.144 0.363"/>
   </g>
   <g stroke="#840000">
    <path transform="scale(1.3333)" d="m128.88 159.27v2.089"/>
    <path transform="scale(1.3333)" d="m128.88 160.27h-3.602l0.504 0.364 0.363 0.359 0.145 0.359"/>
    <path transform="scale(1.3333)" d="m125.64 157.9-0.145-0.144-0.219-0.359v-0.864l0.219-0.359 0.145-0.145 0.359-0.215h0.289l0.574 0.215 2.016 2.016v-2.231"/>
    <path transform="scale(1.3333)" d="m137.02 151.42v14.402"/>
   </g>
   <g stroke="#008484">
    <path transform="scale(1.3333)" d="m137.59 147.6v-1.727"/>
    <path transform="scale(1.3333)" d="m138.6 147.96-3.598-1.227 3.598-1.222"/>
    <path transform="scale(1.3333)" d="m138.6 142.49v2.016"/>
    <path transform="scale(1.3333)" d="m138.6 143.5h-3.598l0.504 0.359 0.359 0.289 0.145 0.36"/>
    <path transform="scale(1.3333)" d="m135.36 141.12-0.144-0.219-0.215-0.359v-0.863l0.215-0.289 0.144-0.215 0.36-0.145h0.289l0.574 0.145 2.016 2.086v-2.231"/>
   </g>
   <g stroke="#840000">
    <path transform="scale(1.3333)" d="m136.08 159.27v2.089"/>
    <path transform="scale(1.3333)" d="m136.08 160.27h-3.598l0.504 0.364 0.36 0.359 0.144 0.359"/>
    <path transform="scale(1.3333)" d="m132.48 158.04v-2.231l1.368 1.223v-0.504l0.214-0.359 0.145-0.145 0.359-0.215h0.864l0.289 0.215 0.215 0.145 0.144 0.359v1.008l-0.144 0.359-0.215 0.145"/>
    <path transform="scale(1.3333)" d="m144.22 151.42v14.402"/>
   </g>
   <g stroke="#008484">
    <path transform="scale(1.3333)" d="m144.8 147.6v-1.727"/>
    <path transform="scale(1.3333)" d="m145.8 147.96-3.602-1.227 3.602-1.222"/>
    <path transform="scale(1.3333)" d="m145.8 142.49v2.016"/>
    <path transform="scale(1.3333)" d="m145.8 143.5h-3.602l0.504 0.359 0.359 0.289 0.145 0.36"/>
    <path transform="scale(1.3333)" d="m142.2 141.27v-2.231l1.367 1.223v-0.574l0.215-0.289 0.145-0.215 0.363-0.145h0.863l0.285 0.145 0.219 0.215 0.145 0.289v1.078l-0.145 0.363-0.219 0.141"/>
   </g>
   <g stroke="#840000">
    <path transform="scale(1.3333)" d="m143.28 159.27v2.089"/>
    <path transform="scale(1.3333)" d="m143.28 160.27h-3.597l0.504 0.364 0.359 0.359 0.144 0.359"/>
    <path transform="scale(1.3333)" d="m140.91 156.17h2.375"/>
    <path transform="scale(1.3333)" d="m139.54 157.04 2.52 0.863v-2.23"/>
    <path transform="scale(1.3333)" d="m151.42 151.42v14.402"/>
   </g>
   <g stroke="#008484">
    <path transform="scale(1.3333)" d="m152 147.6v-1.727"/>
    <path transform="scale(1.3333)" d="m153 147.96-3.602-1.227 3.602-1.222"/>
    <path transform="scale(1.3333)" d="m153 142.49v2.016"/>
    <path transform="scale(1.3333)" d="m153 143.5h-3.602l0.504 0.359 0.36 0.289 0.144 0.36"/>
    <path transform="scale(1.3333)" d="m150.63 139.4h2.375"/>
    <path transform="scale(1.3333)" d="m149.26 140.26 2.519 0.867v-2.234"/>
   </g>
   <g stroke="#840000">
    <path transform="scale(1.3333)" d="m150.48 159.27v2.089"/>
    <path transform="scale(1.3333)" d="m150.48 160.27h-3.601l0.504 0.364 0.359 0.359 0.145 0.359"/>
    <path transform="scale(1.3333)" d="m146.88 156.03v1.727l1.726 0.144-0.14-0.144-0.219-0.359v-0.864l0.219-0.359 0.14-0.145 0.364-0.215h0.863l0.289 0.215 0.215 0.145 0.144 0.359v0.864l-0.144 0.359-0.215 0.144"/>
    <path transform="scale(1.3333)" d="m158.62 151.42v14.402"/>
   </g>
   <g stroke="#008484">
    <path transform="scale(1.3333)" d="m159.2 147.6v-1.727"/>
    <path transform="scale(1.3333)" d="m160.2 147.96-3.601-1.227 3.601-1.222"/>
    <path transform="scale(1.3333)" d="m160.2 142.49v2.016"/>
    <path transform="scale(1.3333)" d="m160.2 143.5h-3.601l0.503 0.359 0.364 0.289 0.14 0.36"/>
    <path transform="scale(1.3333)" d="m156.6 139.18v1.726l1.73 0.219-0.144-0.219-0.215-0.359v-0.863l0.215-0.289 0.144-0.215 0.359-0.145h0.864l0.289 0.145 0.215 0.215 0.144 0.289v0.863l-0.144 0.359-0.215 0.219"/>
   </g>
   <g stroke="#840000">
    <path transform="scale(1.3333)" d="m157.68 159.27v2.089"/>
    <path transform="scale(1.3333)" d="m157.68 160.27h-3.602l0.504 0.364 0.359 0.359 0.145 0.359"/>
    <path transform="scale(1.3333)" d="m154.08 156.17v0.719l0.219 0.289 0.14 0.215 0.504 0.359 0.723 0.144h1.367l0.289-0.144 0.215-0.215 0.145-0.359v-0.649l-0.145-0.359-0.215-0.145-0.289-0.215h-0.863l-0.36 0.215-0.144 0.145-0.219 0.359v0.649l0.219 0.359 0.144 0.215 0.36 0.144"/>
    <path transform="scale(1.3333)" d="m165.82 151.42v14.402"/>
   </g>
   <path transform="scale(1.3333)" d="m167.4 147.46h-3.597v-0.867l0.215-0.504 0.289-0.36 0.359-0.214 0.719-0.145h0.504l0.648 0.145 0.359 0.214 0.36 0.36 0.144 0.504v0.867" stroke="#008484"/>
   <path transform="scale(1.3333)" d="m163.8 143.14v-0.364l0.215-0.285 0.144-0.219 0.359-0.14 0.649-0.219h0.863l0.719 0.219 0.289 0.14 0.215 0.219 0.144 0.285v0.364l-0.144 0.359-0.215 0.145-0.289 0.214-0.719 0.145h-0.863l-0.649-0.145-0.359-0.214-0.144-0.145-0.215-0.359" stroke="#008484"/>
   <g stroke="#840000">
    <path transform="scale(1.3333)" d="m164.88 159.27v2.089"/>
    <path transform="scale(1.3333)" d="m164.88 160.27h-3.602l0.504 0.364 0.363 0.359 0.145 0.359"/>
    <path transform="scale(1.3333)" d="m161.28 158.04v-2.375l3.602 1.512"/>
    <path transform="scale(1.3333)" d="m173.02 151.42v14.402"/>
   </g>
   <g stroke="#008484">
    <path transform="scale(1.3333)" d="m174.6 147.46h-3.598v-0.867l0.215-0.504 0.289-0.36 0.359-0.214 0.719-0.145h0.504l0.648 0.145 0.36 0.214 0.363 0.36 0.141 0.504v0.867"/>
    <path transform="scale(1.3333)" d="m174.6 141.91v2.09"/>
    <path transform="scale(1.3333)" d="m174.6 143h-3.598l0.504 0.285 0.359 0.364 0.145 0.359"/>
   </g>
   <g stroke="#840000">
    <path transform="scale(1.3333)" d="m172.08 159.27v2.089"/>
    <path transform="scale(1.3333)" d="m172.08 160.27h-3.598l0.504 0.364 0.36 0.359 0.144 0.359"/>
    <path transform="scale(1.3333)" d="m170.07 157.18-0.214 0.359-0.145 0.215-0.359 0.144h-0.145l-0.359-0.144-0.145-0.215-0.215-0.359v-0.649l0.215-0.359 0.145-0.145 0.359-0.215h0.145l0.359 0.215 0.145 0.145 0.214 0.359v0.649l0.145 0.359 0.144 0.215 0.36 0.144h0.719l0.289-0.144 0.215-0.215 0.144-0.359v-0.649l-0.144-0.359-0.215-0.145-0.289-0.215h-0.719l-0.36 0.215-0.144 0.145-0.145 0.359"/>
    <path transform="scale(1.3333)" d="m180.22 151.42v14.402"/>
   </g>
   <path transform="scale(1.3333)" d="m181.8 147.46h-3.602v-0.867l0.215-0.504 0.289-0.36 0.359-0.214 0.719-0.145h0.508l0.645 0.145 0.363 0.214 0.359 0.36 0.145 0.504v0.867" stroke="#008484"/>
   <path transform="scale(1.3333)" d="m178.56 144-0.144-0.145-0.215-0.359v-0.863l0.215-0.364 0.144-0.14 0.36-0.219h0.289l0.574 0.219 2.02 2.015v-2.234" stroke="#008484"/>
   <g stroke="#840000">
    <path transform="scale(1.3333)" d="m179.28 159.27v2.089"/>
    <path transform="scale(1.3333)" d="m179.28 160.27h-3.597l0.504 0.364 0.359 0.359 0.144 0.359"/>
    <path transform="scale(1.3333)" d="m179.28 157.54v-0.648l-0.14-0.36-0.219-0.144-0.504-0.36-0.648-0.215h-1.368l-0.359 0.215-0.145 0.145-0.214 0.359v0.649l0.214 0.359 0.145 0.215 0.359 0.144h0.864l0.289-0.144 0.215-0.215 0.144-0.359v-0.649l-0.144-0.359-0.215-0.145-0.289-0.215"/>
    <path transform="scale(1.3333)" d="m187.42 151.42v14.402"/>
   </g>
   <path transform="scale(1.3333)" d="m189 147.46h-3.602v-0.867l0.215-0.504 0.289-0.36 0.36-0.214 0.722-0.145h0.504l0.649 0.145 0.359 0.214 0.359 0.36 0.145 0.504v0.867" stroke="#008484"/>
   <path transform="scale(1.3333)" d="m185.4 144.15v-2.234l1.368 1.227v-0.504l0.218-0.364 0.145-0.14 0.359-0.219h0.863l0.29 0.219 0.214 0.14 0.145 0.364v1.008l-0.145 0.359-0.214 0.144" stroke="#008484"/>
   <g stroke="#840000">
    <path transform="scale(1.3333)" d="m183.24 161.36-0.144-0.214-0.215-0.364v-0.789l0.215-0.359 0.144-0.219 0.36-0.144h0.289l0.578 0.144 2.015 2.09v-2.234"/>
    <path transform="scale(1.3333)" d="m182.88 157.04v-0.359l0.215-0.289 0.144-0.215 0.36-0.145 0.648-0.215h0.863l0.723 0.215 0.289 0.145 0.215 0.215 0.144 0.289v0.359l-0.144 0.36-0.215 0.144-0.289 0.215-0.723 0.144h-0.863l-0.648-0.144-0.36-0.215-0.144-0.144-0.215-0.36"/>
    <path transform="scale(1.3333)" d="m194.62 151.42v14.402"/>
   </g>
   <g stroke="#008484">
    <path transform="scale(1.3333)" d="m196.2 147.46h-3.601v-0.867l0.218-0.504 0.285-0.36 0.364-0.214 0.719-0.145h0.503l0.649 0.145 0.359 0.214 0.36 0.36 0.144 0.504v0.867"/>
    <path transform="scale(1.3333)" d="m193.83 142.27h2.375"/>
    <path transform="scale(1.3333)" d="m192.46 143.14 2.519 0.863v-2.234"/>
   </g>
   <g stroke="#840000">
    <path transform="scale(1.3333)" d="m190.44 161.36-0.14-0.214-0.219-0.364v-0.789l0.219-0.359 0.14-0.219 0.364-0.144h0.285l0.578 0.144 2.016 2.09v-2.234"/>
    <path transform="scale(1.3333)" d="m193.68 155.81v2.086"/>
    <path transform="scale(1.3333)" d="m193.68 156.89h-3.602l0.504 0.289 0.359 0.359 0.145 0.359"/>
    <path transform="scale(1.3333)" d="m201.82 151.42v14.402"/>
   </g>
   <path transform="scale(1.3333)" d="m203.4 147.46h-3.597v-0.867l0.215-0.504 0.289-0.36 0.359-0.214 0.719-0.145h0.504l0.648 0.145 0.359 0.214 0.36 0.36 0.144 0.504v0.867" stroke="#008484"/>
   <path transform="scale(1.3333)" d="m199.8 142.13v1.726l1.726 0.145-0.144-0.145-0.215-0.359v-0.863l0.215-0.364 0.144-0.14 0.36-0.219h0.863l0.289 0.219 0.215 0.14 0.144 0.364v0.863l-0.144 0.359-0.215 0.145" stroke="#008484"/>
   <g stroke="#840000">
    <path transform="scale(1.3333)" d="m197.64 161.36-0.145-0.214-0.219-0.364v-0.789l0.219-0.359 0.145-0.219 0.359-0.144h0.289l0.574 0.144 2.016 2.09v-2.234"/>
    <path transform="scale(1.3333)" d="m197.64 157.9-0.145-0.144-0.219-0.359v-0.864l0.219-0.359 0.145-0.145 0.359-0.215h0.289l0.574 0.215 2.016 2.016v-2.231"/>
    <path transform="scale(1.3333)" d="m209.02 151.42v14.402"/>
   </g>
   <path transform="scale(1.3333)" d="m210.6 147.46h-3.598v-0.867l0.215-0.504 0.289-0.36 0.359-0.214 0.719-0.145h0.504l0.648 0.145 0.36 0.214 0.363 0.36 0.141 0.504v0.867" stroke="#008484"/>
   <path transform="scale(1.3333)" d="m207 142.27v0.723l0.215 0.285 0.144 0.219 0.504 0.359 0.719 0.145h1.367l0.289-0.145 0.219-0.214 0.141-0.364v-0.644l-0.141-0.364-0.219-0.14-0.289-0.219h-0.863l-0.36 0.219-0.144 0.14-0.215 0.364v0.644l0.215 0.364 0.144 0.214 0.36 0.145" stroke="#008484"/>
   <g stroke="#840000">
    <path transform="scale(1.3333)" d="m204.84 161.36-0.145-0.214-0.215-0.364v-0.789l0.215-0.359 0.145-0.219 0.359-0.144h0.289l0.574 0.144 2.016 2.09v-2.234"/>
    <path transform="scale(1.3333)" d="m204.48 158.04v-2.231l1.368 1.223v-0.504l0.214-0.359 0.145-0.145 0.359-0.215h0.864l0.289 0.215 0.215 0.145 0.144 0.359v1.008l-0.144 0.359-0.215 0.145"/>
    <path transform="scale(1.3333)" d="m216.22 151.42v14.402"/>
   </g>
   <path transform="scale(1.3333)" d="m217.8 147.46h-3.602v-0.867l0.215-0.504 0.289-0.36 0.359-0.214 0.719-0.145h0.508l0.645 0.145 0.363 0.214 0.359 0.36 0.145 0.504v0.867" stroke="#008484"/>
   <path transform="scale(1.3333)" d="m214.2 144.15v-2.378l3.602 1.511" stroke="#008484"/>
   <g stroke="#840000">
    <path transform="scale(1.3333)" d="m212.04 161.36-0.145-0.214-0.214-0.364v-0.789l0.214-0.359 0.145-0.219 0.359-0.144h0.289l0.575 0.144 2.015 2.09v-2.234"/>
    <path transform="scale(1.3333)" d="m212.91 156.17h2.375"/>
    <path transform="scale(1.3333)" d="m211.54 157.04 2.52 0.863v-2.23"/>
    <path transform="scale(1.3333)" d="m252.22 137.02h14.398"/>
   </g>
   <g stroke="#008484">
    <path transform="scale(1.3333)" d="m238.83 134h3.598"/>
    <path transform="scale(1.3333)" d="m241.71 138.6-1.223-1.727"/>
    <path transform="scale(1.3333)" d="m239.69 138.6v-3.598h1.368l0.289 0.215 0.214 0.144 0.145 0.36v0.504l-0.145 0.359-0.214 0.144-0.289 0.145h-1.368"/>
    <path transform="scale(1.3333)" d="m242.43 134h3.242"/>
    <path transform="scale(1.3333)" d="m243.29 136.73h1.148"/>
    <path transform="scale(1.3333)" d="m244.94 138.6h-1.652v-3.598h1.652"/>
    <path transform="scale(1.3333)" d="m245.67 134h3.457"/>
    <path transform="scale(1.3333)" d="m246.32 138.46 0.575 0.141h0.793l0.359-0.141 0.215-0.219 0.144-0.289v-0.359l-0.144-0.36-0.215-0.144-0.359-0.215-0.649-0.145-0.359-0.144-0.145-0.215-0.215-0.359v-0.289l0.215-0.36 0.145-0.144 0.359-0.215h0.863l0.504 0.215"/>
   </g>
   <g stroke="#840000">
    <path transform="scale(1.3333)" d="m256.61 132.84 0.219-0.145 0.36-0.215h0.792l0.36 0.215 0.215 0.145 0.144 0.359v0.289l-0.144 0.574-2.086 2.016h2.23"/>
    <path transform="scale(1.3333)" d="m261.94 132.48h-1.727l-0.145 1.727 0.145-0.145 0.359-0.214h0.864l0.363 0.214 0.141 0.145 0.218 0.359v0.864l-0.218 0.289-0.141 0.215-0.363 0.144h-0.864l-0.359-0.144-0.145-0.215"/>
    <path transform="scale(1.3333)" d="m252.22 129.82h14.398"/>
   </g>
   <g stroke="#008484">
    <path transform="scale(1.3333)" d="m240.84 127.8 1.222 3.597 1.227-3.597"/>
    <path transform="scale(1.3333)" d="m244.44 131.4v-3.597"/>
    <path transform="scale(1.3333)" d="m246.17 131.4v-3.597l2.086 3.597v-3.597"/>
   </g>
   <g stroke="#840000">
    <path transform="scale(1.3333)" d="m256.61 125.64 0.219-0.145 0.36-0.219h0.792l0.36 0.219 0.215 0.145 0.144 0.359v0.289l-0.144 0.574-2.086 2.016h2.23"/>
    <path transform="scale(1.3333)" d="m261.8 125.28h-0.723l-0.289 0.219-0.215 0.145-0.359 0.503-0.145 0.719v1.367l0.145 0.289 0.215 0.215 0.359 0.145h0.649l0.363-0.145 0.141-0.215 0.218-0.289v-0.863l-0.218-0.359-0.141-0.145-0.363-0.215h-0.649l-0.359 0.215-0.215 0.145-0.145 0.359"/>
    <path transform="scale(1.3333)" d="m252.22 122.62h14.398"/>
   </g>
   <g stroke="#008484">
    <path transform="scale(1.3333)" d="m239.11 124.06 0.578 0.144h0.793l0.36-0.144 0.215-0.215 0.144-0.289v-0.36l-0.144-0.359-0.215-0.145-0.36-0.214-0.648-0.145-0.359-0.144-0.145-0.215-0.219-0.364v-0.285l0.219-0.359 0.145-0.145 0.359-0.218h0.863l0.504 0.218"/>
    <path transform="scale(1.3333)" d="m243.43 120.6h0.648l0.359 0.218 0.364 0.285 0.14 0.723v1.152l-0.14 0.719-0.364 0.36-0.359 0.144h-0.648l-0.36-0.144-0.359-0.36-0.145-0.719v-1.152l0.145-0.723 0.359-0.285 0.36-0.218"/>
    <path transform="scale(1.3333)" d="m248.4 124.2h-2.086"/>
    <path transform="scale(1.3333)" d="m247.4 124.2v-3.601l-0.36 0.503-0.359 0.364-0.36 0.14"/>
   </g>
   <g stroke="#840000">
    <path transform="scale(1.3333)" d="m256.61 118.44 0.219-0.14 0.36-0.219h0.792l0.36 0.219 0.215 0.14 0.144 0.364v0.285l-0.144 0.578-2.086 2.016h2.23"/>
    <path transform="scale(1.3333)" d="m259.92 118.08h2.379l-1.516 3.602"/>
    <path transform="scale(1.3333)" d="m252.22 115.42h14.398"/>
   </g>
   <g stroke="#008484">
    <path transform="scale(1.3333)" d="m239.11 116.86 0.578 0.145h0.793l0.36-0.145 0.215-0.214 0.144-0.29v-0.359l-0.144-0.359-0.215-0.145-0.36-0.219-0.648-0.14-0.359-0.145-0.145-0.218-0.219-0.36v-0.285l0.219-0.363 0.145-0.145 0.359-0.215h0.863l0.504 0.215"/>
    <path transform="scale(1.3333)" d="m243.43 113.4h0.648l0.359 0.215 0.364 0.289 0.14 0.723v1.148l-0.14 0.723-0.364 0.359-0.359 0.145h-0.648l-0.36-0.145-0.359-0.359-0.145-0.723v-1.148l0.145-0.723 0.359-0.289 0.36-0.215"/>
    <path transform="scale(1.3333)" d="m246.32 113.76 0.215-0.145 0.36-0.215h0.793l0.359 0.215 0.215 0.145 0.144 0.363v0.285l-0.144 0.578-2.086 2.016h2.23"/>
   </g>
   <g stroke="#840000">
    <path transform="scale(1.3333)" d="m256.61 111.24 0.219-0.144 0.36-0.215h0.792l0.36 0.215 0.215 0.144 0.144 0.36v0.289l-0.144 0.578-2.086 2.015h2.23"/>
    <path transform="scale(1.3333)" d="m260.78 112.47-0.359-0.219-0.215-0.145-0.145-0.359v-0.144l0.145-0.36 0.215-0.144 0.359-0.215h0.649l0.363 0.215 0.141 0.144 0.218 0.36v0.144l-0.218 0.359-0.141 0.145-0.363 0.219h-0.649l-0.359 0.14-0.215 0.145-0.145 0.359v0.723l0.145 0.289 0.215 0.215 0.359 0.144h0.649l0.363-0.144 0.141-0.215 0.218-0.289v-0.723l-0.218-0.359-0.141-0.145-0.363-0.14"/>
    <path transform="scale(1.3333)" d="m252.22 108.22h14.398"/>
   </g>
   <g stroke="#008484">
    <path transform="scale(1.3333)" d="m238.83 109.8v-3.602l1.152 2.594 1.223-2.594v3.602"/>
    <path transform="scale(1.3333)" d="m242.93 109.8v-3.602h0.867l0.504 0.215 0.359 0.289 0.145 0.359 0.14 0.719v0.508l-0.14 0.645-0.145 0.363-0.359 0.359-0.504 0.145h-0.867"/>
    <path transform="scale(1.3333)" d="m246.17 106.2h2.375l-1.512 3.602"/>
   </g>
   <g stroke="#840000">
    <path transform="scale(1.3333)" d="m256.61 104.04 0.219-0.145 0.36-0.214h0.792l0.36 0.214 0.215 0.145 0.144 0.359v0.289l-0.144 0.575-2.086 2.015h2.23"/>
    <path transform="scale(1.3333)" d="m260.43 107.28h0.648l0.36-0.14 0.144-0.219 0.36-0.504 0.218-0.648v-1.368l-0.218-0.359-0.141-0.145-0.363-0.214h-0.649l-0.359 0.214-0.215 0.145-0.145 0.359v0.864l0.145 0.289 0.215 0.215 0.359 0.144h0.649l0.363-0.144 0.141-0.215 0.218-0.289"/>
    <path transform="scale(1.3333)" d="m252.22 101.02h14.398"/>
   </g>
   <g stroke="#008484">
    <path transform="scale(1.3333)" d="m238.83 102.6v-3.598l1.152 2.59 1.223-2.59v3.598"/>
    <path transform="scale(1.3333)" d="m242.93 102.6v-3.598h0.867l0.504 0.215 0.359 0.289 0.145 0.359 0.14 0.719v0.504l-0.14 0.648-0.145 0.36-0.359 0.363-0.504 0.141h-0.867"/>
    <path transform="scale(1.3333)" d="m248.04 99.004h-0.648l-0.36 0.215-0.144 0.144-0.36 0.504-0.215 0.719v1.367l0.215 0.289 0.145 0.219 0.359 0.141h0.649l0.359-0.141 0.215-0.219 0.144-0.289v-0.863l-0.144-0.36-0.215-0.144-0.359-0.215h-0.649l-0.359 0.215-0.145 0.144-0.215 0.36"/>
   </g>
   <g stroke="#840000">
    <path transform="scale(1.3333)" d="m256.47 96.484h2.23l-1.222 1.368h0.503l0.36 0.214 0.215 0.145 0.144 0.359v0.864l-0.144 0.289-0.215 0.215-0.36 0.144h-1.007l-0.364-0.144-0.14-0.215"/>
    <path transform="scale(1.3333)" d="m260.93 96.484h0.363l0.285 0.215 0.219 0.145 0.141 0.359 0.218 0.649v0.863l-0.218 0.719-0.141 0.289-0.219 0.215-0.285 0.144h-0.363l-0.36-0.144-0.144-0.215-0.215-0.289-0.145-0.719v-0.863l0.145-0.649 0.215-0.359 0.144-0.145 0.36-0.215"/>
    <path transform="scale(1.3333)" d="m252.22 93.82h14.398"/>
   </g>
   <g stroke="#008484">
    <path transform="scale(1.3333)" d="m238.83 95.402v-3.597l1.152 2.59 1.223-2.59v3.597"/>
    <path transform="scale(1.3333)" d="m242.93 95.402v-3.597h0.867l0.504 0.215 0.359 0.289 0.145 0.359 0.14 0.719v0.504l-0.14 0.648-0.145 0.359-0.359 0.36-0.504 0.144h-0.867"/>
    <path transform="scale(1.3333)" d="m248.26 91.805h-1.727l-0.215 1.726 0.215-0.144 0.36-0.215h0.793l0.359 0.215 0.215 0.144 0.144 0.36v0.863l-0.144 0.289-0.215 0.215-0.359 0.144h-0.793l-0.36-0.144-0.215-0.215"/>
   </g>
   <g stroke="#840000">
    <path transform="scale(1.3333)" d="m256.47 89.281h2.23l-1.222 1.371h0.503l0.36 0.215 0.215 0.145 0.144 0.359v0.863l-0.144 0.289-0.215 0.215-0.36 0.145h-1.007l-0.364-0.145-0.14-0.215"/>
    <path transform="scale(1.3333)" d="m262.16 92.883h-2.09"/>
    <path transform="scale(1.3333)" d="m261.07 92.883v-3.602l-0.289 0.504-0.359 0.363-0.36 0.145"/>
    <path transform="scale(1.3333)" d="m252.22 86.617h14.398"/>
   </g>
   <g stroke="#008484">
    <path transform="scale(1.3333)" d="m240.84 84.82-0.36-0.218h-0.504l-0.503 0.218-0.364 0.285-0.14 0.364-0.145 0.719v0.503l0.145 0.649 0.14 0.359 0.364 0.36 0.503 0.144h0.36l0.504-0.144 0.215-0.215v-1.153h-0.719"/>
    <path transform="scale(1.3333)" d="m242.57 88.203v-3.601l2.09 3.601v-3.601"/>
    <path transform="scale(1.3333)" d="m246.32 88.203v-3.601h0.864l0.504 0.218 0.359 0.285 0.215 0.364 0.144 0.719v0.503l-0.144 0.649-0.215 0.359-0.359 0.36-0.504 0.144h-0.864"/>
   </g>
   <g stroke="#840000">
    <path transform="scale(1.3333)" d="m256.47 82.082h2.23l-1.222 1.367h0.503l0.36 0.219 0.215 0.144 0.144 0.36v0.863l-0.144 0.289-0.215 0.215-0.36 0.145h-1.007l-0.364-0.145-0.14-0.215"/>
    <path transform="scale(1.3333)" d="m260.07 82.441 0.145-0.14 0.359-0.219h0.864l0.363 0.219 0.141 0.14 0.218 0.364v0.285l-0.218 0.578-2.016 2.016h2.234"/>
    <path transform="scale(1.3333)" d="m252.22 79.418h14.398"/>
   </g>
   <g stroke="#008484">
    <path transform="scale(1.3333)" d="m238.83 81.004v-3.602l1.152 2.594 1.223-2.594v3.602"/>
    <path transform="scale(1.3333)" d="m242.93 81.004v-3.602h0.867l0.504 0.215 0.359 0.289 0.145 0.36 0.14 0.722v0.504l-0.14 0.649-0.145 0.359-0.359 0.359-0.504 0.145h-0.867"/>
    <path transform="scale(1.3333)" d="m248.04 78.629v2.375"/>
    <path transform="scale(1.3333)" d="m247.18 77.258-0.864 2.519h2.231"/>
   </g>
   <g stroke="#840000">
    <path transform="scale(1.3333)" d="m256.47 74.883h2.23l-1.222 1.367h0.503l0.36 0.219 0.215 0.14 0.144 0.364v0.863l-0.144 0.289-0.215 0.215-0.36 0.144h-1.007l-0.364-0.144-0.14-0.215"/>
    <path transform="scale(1.3333)" d="m259.92 74.883h2.234l-1.226 1.367h0.504l0.363 0.219 0.141 0.14 0.218 0.364v0.863l-0.218 0.289-0.141 0.215-0.363 0.144h-1.008l-0.36-0.144-0.144-0.215"/>
    <path transform="scale(1.3333)" d="m252.22 72.219h14.398"/>
   </g>
   <g stroke="#008484">
    <path transform="scale(1.3333)" d="m238.83 73.805v-3.602l1.152 2.594 1.223-2.594v3.602"/>
    <path transform="scale(1.3333)" d="m242.93 73.805v-3.602h0.867l0.504 0.215 0.359 0.289 0.145 0.359 0.14 0.719v0.508l-0.14 0.645-0.145 0.363-0.359 0.359-0.504 0.145h-0.867"/>
    <path transform="scale(1.3333)" d="m246.17 70.203h2.23l-1.222 1.367h0.504l0.359 0.215 0.215 0.145 0.144 0.363v0.863l-0.144 0.285-0.215 0.219-0.359 0.145h-1.008l-0.36-0.145-0.144-0.219"/>
   </g>
   <g stroke="#840000">
    <path transform="scale(1.3333)" d="m256.47 67.684h2.23l-1.222 1.367h0.503l0.36 0.215 0.215 0.144 0.144 0.36v0.867l-0.144 0.285-0.215 0.219-0.36 0.14h-1.007l-0.364-0.14-0.14-0.219"/>
    <path transform="scale(1.3333)" d="m261.8 68.906v2.375"/>
    <path transform="scale(1.3333)" d="m260.93 67.539-0.864 2.52h2.235"/>
    <path transform="scale(1.3333)" d="m252.22 65.02h14.398"/>
   </g>
   <g stroke="#008484">
    <path transform="scale(1.3333)" d="m238.83 66.602v-3.598l1.152 2.59 1.223-2.59v3.598"/>
    <path transform="scale(1.3333)" d="m242.93 66.602v-3.598h0.867l0.504 0.215 0.359 0.289 0.145 0.359 0.14 0.719v0.504l-0.14 0.648-0.145 0.36-0.359 0.363-0.504 0.141h-0.867"/>
    <path transform="scale(1.3333)" d="m246.32 63.363 0.215-0.144 0.36-0.215h0.793l0.359 0.215 0.215 0.144 0.144 0.36v0.289l-0.144 0.574-2.086 2.016h2.23"/>
   </g>
   <g stroke="#840000">
    <path transform="scale(1.3333)" d="m256.47 60.484h2.23l-1.222 1.368h0.503l0.36 0.214 0.215 0.145 0.144 0.359v0.864l-0.144 0.289-0.215 0.215-0.36 0.144h-1.007l-0.364-0.144-0.14-0.215"/>
    <path transform="scale(1.3333)" d="m261.94 60.484h-1.727l-0.145 1.727 0.145-0.145 0.359-0.214h0.864l0.363 0.214 0.141 0.145 0.218 0.359v0.864l-0.218 0.289-0.141 0.215-0.363 0.144h-0.864l-0.359-0.144-0.145-0.215"/>
    <path transform="scale(1.3333)" d="m252.22 57.82h14.398"/>
   </g>
   <g stroke="#008484">
    <path transform="scale(1.3333)" d="m238.83 59.402v-3.597l1.152 2.59 1.223-2.59v3.597"/>
    <path transform="scale(1.3333)" d="m242.93 59.402v-3.597h0.867l0.504 0.215 0.359 0.289 0.145 0.359 0.14 0.719v0.504l-0.14 0.648-0.145 0.359-0.359 0.36-0.504 0.144h-0.867"/>
    <path transform="scale(1.3333)" d="m248.4 59.402h-2.086"/>
    <path transform="scale(1.3333)" d="m247.4 59.402v-3.597l-0.36 0.504-0.359 0.359-0.36 0.144"/>
   </g>
   <g stroke="#840000">
    <path transform="scale(1.3333)" d="m256.47 53.281h2.23l-1.222 1.371h0.503l0.36 0.215 0.215 0.145 0.144 0.359v0.863l-0.144 0.289-0.215 0.215-0.36 0.145h-1.007l-0.364-0.145-0.14-0.215"/>
    <path transform="scale(1.3333)" d="m261.8 53.281h-0.723l-0.289 0.219-0.215 0.145-0.359 0.503-0.145 0.719v1.367l0.145 0.289 0.215 0.215 0.359 0.145h0.649l0.363-0.145 0.141-0.215 0.218-0.289v-0.863l-0.218-0.359-0.141-0.145-0.363-0.215h-0.649l-0.359 0.215-0.215 0.145-0.145 0.359"/>
    <path transform="scale(1.3333)" d="m252.22 50.617h14.398"/>
   </g>
   <g stroke="#008484">
    <path transform="scale(1.3333)" d="m238.83 52.203v-3.601l1.152 2.593 1.223-2.593v3.601"/>
    <path transform="scale(1.3333)" d="m242.93 52.203v-3.601h0.867l0.504 0.218 0.359 0.285 0.145 0.364 0.14 0.719v0.503l-0.14 0.649-0.145 0.359-0.359 0.36-0.504 0.144h-0.867"/>
    <path transform="scale(1.3333)" d="m247.18 48.602h0.359l0.359 0.218 0.145 0.145 0.215 0.359 0.144 0.649v0.863l-0.144 0.719-0.215 0.289-0.145 0.215-0.359 0.144h-0.359l-0.289-0.144-0.215-0.215-0.145-0.289-0.215-0.719v-0.863l0.215-0.649 0.145-0.359 0.215-0.145 0.289-0.218"/>
   </g>
   <g stroke="#840000">
    <path transform="scale(1.3333)" d="m256.47 46.082h2.23l-1.222 1.367h0.503l0.36 0.219 0.215 0.144 0.144 0.36v0.863l-0.144 0.289-0.215 0.215-0.36 0.145h-1.007l-0.364-0.145-0.14-0.215"/>
    <path transform="scale(1.3333)" d="m259.92 46.082h2.379l-1.516 3.602"/>
    <path transform="scale(1.3333)" d="m252.22 43.418h14.398"/>
   </g>
   <g stroke="#008484">
    <path transform="scale(1.3333)" d="m236.09 44.859 0.504 0.145h0.867l0.285-0.145 0.219-0.214 0.14-0.29v-0.359l-0.14-0.359-0.219-0.145-0.285-0.219-0.723-0.14-0.359-0.145-0.145-0.218-0.144-0.36v-0.285l0.144-0.363 0.145-0.145 0.359-0.215h0.864l0.503 0.215"/>
    <path transform="scale(1.3333)" d="m240.34 41.402h0.719l0.289 0.215 0.359 0.289 0.215 0.723v1.148l-0.215 0.723-0.359 0.359-0.289 0.145h-0.719l-0.36-0.145-0.289-0.359-0.214-0.723v-1.148l0.214-0.723 0.289-0.289 0.36-0.215"/>
    <path transform="scale(1.3333)" d="m243.43 41.402v2.953l0.144 0.29 0.219 0.214 0.285 0.145h0.723l0.359-0.145 0.145-0.214 0.214-0.29v-2.953"/>
    <path transform="scale(1.3333)" d="m246.68 41.402h2.086"/>
    <path transform="scale(1.3333)" d="m247.68 45.004v-3.602"/>
   </g>
   <g stroke="#840000">
    <path transform="scale(1.3333)" d="m256.47 38.883h2.23l-1.222 1.367h0.503l0.36 0.219 0.215 0.14 0.144 0.364v0.863l-0.144 0.289-0.215 0.215-0.36 0.144h-1.007l-0.364-0.144-0.14-0.215"/>
    <path transform="scale(1.3333)" d="m260.78 40.469-0.359-0.219-0.215-0.145-0.145-0.359v-0.144l0.145-0.36 0.215-0.144 0.359-0.215h0.649l0.363 0.215 0.141 0.144 0.218 0.36v0.144l-0.218 0.359-0.141 0.145-0.363 0.219h-0.649l-0.359 0.14-0.215 0.145-0.145 0.359v0.723l0.145 0.289 0.215 0.215 0.359 0.144h0.649l0.363-0.144 0.141-0.215 0.218-0.289v-0.723l-0.218-0.359-0.141-0.145-0.363-0.14"/>
    <path transform="scale(1.3333)" d="m252.22 36.219h14.398"/>
   </g>
   <g stroke="#008484">
    <path transform="scale(1.3333)" d="m239.11 37.66 0.578 0.145h0.793l0.36-0.145 0.215-0.219 0.144-0.285v-0.359l-0.144-0.363-0.215-0.141-0.36-0.219-0.648-0.144-0.359-0.145-0.145-0.215-0.219-0.359v-0.289l0.219-0.36 0.145-0.144 0.359-0.215h0.863l0.504 0.215"/>
    <path transform="scale(1.3333)" d="m244.8 37.441-0.145 0.219-0.578 0.145h-0.285l-0.504-0.145-0.363-0.359-0.215-0.363-0.145-0.645v-0.508l0.145-0.719 0.215-0.359 0.363-0.289 0.504-0.215h0.285l0.578 0.215 0.145 0.144"/>
    <path transform="scale(1.3333)" d="m246.32 37.805v-3.602"/>
    <path transform="scale(1.3333)" d="m248.4 37.805-1.511-2.02"/>
    <path transform="scale(1.3333)" d="m248.4 34.203-2.086 2.09"/>
   </g>
   <g stroke="#840000">
    <path transform="scale(1.3333)" d="m256.47 31.684h2.23l-1.222 1.367h0.503l0.36 0.215 0.215 0.144 0.144 0.36v0.867l-0.144 0.285-0.215 0.219-0.36 0.14h-1.007l-0.364-0.14-0.14-0.219"/>
    <path transform="scale(1.3333)" d="m260.43 35.281h0.648l0.36-0.14 0.144-0.219 0.36-0.504 0.218-0.648v-1.368l-0.218-0.359-0.141-0.145-0.363-0.214h-0.649l-0.359 0.214-0.215 0.145-0.145 0.359v0.864l0.145 0.289 0.215 0.215 0.359 0.144h0.649l0.363-0.144 0.141-0.215 0.218-0.289"/>
    <path transform="scale(1.3333)" d="m252.22 29.02h14.398"/>
   </g>
   <g stroke="#008484">
    <path transform="scale(1.3333)" d="m240.84 30.461 0.504 0.141h0.863l0.359-0.141 0.145-0.219 0.215-0.289v-0.359l-0.215-0.36-0.145-0.144-0.359-0.215-0.649-0.145-0.359-0.144-0.144-0.215-0.215-0.359v-0.289l0.215-0.36 0.144-0.144 0.359-0.215h0.864l0.504 0.215"/>
    <path transform="scale(1.3333)" d="m244.44 30.602v-3.598"/>
    <path transform="scale(1.3333)" d="m246.17 30.602v-3.598l2.086 3.598v-3.598"/>
   </g>
   <g stroke="#840000">
    <path transform="scale(1.3333)" d="m258.34 25.707v2.375"/>
    <path transform="scale(1.3333)" d="m257.48 24.34-0.868 2.519h2.235"/>
    <path transform="scale(1.3333)" d="m260.93 24.484h0.363l0.285 0.215 0.219 0.145 0.141 0.359 0.218 0.649v0.863l-0.218 0.719-0.141 0.289-0.219 0.215-0.285 0.144h-0.363l-0.36-0.144-0.144-0.215-0.215-0.289-0.145-0.719v-0.863l0.145-0.649 0.215-0.359 0.144-0.145 0.36-0.215"/>
    <path transform="scale(1.3333)" d="m216.22 14.617v-14.398"/>
   </g>
   <g stroke="#008484">
    <path transform="scale(1.3333)" d="m217.44 25.562 0.219 0.145 0.145 0.574v0.289l-0.145 0.504-0.359 0.36-0.363 0.218-0.645 0.145h-0.508l-0.719-0.145-0.359-0.218-0.289-0.36-0.215-0.504v-0.289l0.215-0.574 0.144-0.145"/>
    <path transform="scale(1.3333)" d="m217.8 24.051h-3.602v-1.367l0.215-0.36 0.144-0.219 0.36-0.14h0.504l0.359 0.14 0.145 0.219 0.144 0.36v1.367"/>
    <path transform="scale(1.3333)" d="m214.42 18.508-0.215 0.359v0.504l0.215 0.504 0.289 0.359 0.359 0.215 0.719 0.145h0.508l0.645-0.145 0.363-0.215 0.359-0.359 0.145-0.504v-0.289l-0.145-0.574-0.219-0.145h-1.148v0.719"/>
   </g>
   <g stroke="#840000">
    <path transform="scale(1.3333)" d="m212.91 8.426h2.375"/>
    <path transform="scale(1.3333)" d="m211.54 9.293 2.52 0.863v-2.234"/>
    <path transform="scale(1.3333)" d="m215.28 4.609v2.09"/>
    <path transform="scale(1.3333)" d="m215.28 5.691h-3.597l0.504 0.289 0.359 0.36 0.144 0.359"/>
    <path transform="scale(1.3333)" d="m209.02 14.617v-14.398"/>
   </g>
   <g stroke="#008484">
    <path transform="scale(1.3333)" d="m210.24 24.914 0.219 0.145 0.141 0.503v0.36l-0.141 0.504-0.363 0.359-0.36 0.145-0.648 0.144h-0.504l-0.719-0.144-0.359-0.145-0.289-0.359-0.215-0.504v-0.36l0.215-0.503 0.144-0.145"/>
    <path transform="scale(1.3333)" d="m210.6 23.332h-3.598v-1.367l0.215-0.363 0.144-0.141 0.36-0.145h0.504l0.359 0.145 0.144 0.141 0.145 0.363v1.367"/>
    <path transform="scale(1.3333)" d="m210.6 18.004v1.726h-3.598"/>
   </g>
   <g stroke="#840000">
    <path transform="scale(1.3333)" d="m205.71 8.426h2.375"/>
    <path transform="scale(1.3333)" d="m204.34 9.293 2.519 0.863v-2.234"/>
    <path transform="scale(1.3333)" d="m204.84 6.699-0.145-0.144-0.215-0.36v-0.863l0.215-0.359 0.145-0.145 0.359-0.219h0.289l0.574 0.219 2.016 2.016v-2.235"/>
    <path transform="scale(1.3333)" d="m201.82 14.617v-14.398"/>
   </g>
   <g stroke="#008484">
    <path transform="scale(1.3333)" d="m203.26 23.188 0.144-0.504v-0.864l-0.144-0.359-0.215-0.145-0.289-0.218h-0.359l-0.36 0.218-0.144 0.145-0.215 0.359-0.145 0.649-0.144 0.359-0.215 0.145-0.36 0.215h-0.289l-0.359-0.215-0.144-0.145-0.215-0.359v-0.867l0.215-0.504"/>
    <path transform="scale(1.3333)" d="m199.8 20.09v-2.086"/>
    <path transform="scale(1.3333)" d="m203.4 19.082h-3.597"/>
   </g>
   <g stroke="#840000">
    <path transform="scale(1.3333)" d="m198.51 8.426h2.375"/>
    <path transform="scale(1.3333)" d="m197.14 9.293 2.519 0.863v-2.234"/>
    <path transform="scale(1.3333)" d="m197.28 6.844v-2.235l1.371 1.227v-0.504l0.215-0.359 0.145-0.145 0.359-0.219h0.863l0.289 0.219 0.215 0.145 0.145 0.359v1.008l-0.145 0.359-0.215 0.145"/>
    <path transform="scale(1.3333)" d="m194.62 14.617v-14.398"/>
   </g>
   <g stroke="#008484">
    <path transform="scale(1.3333)" d="m196.2 25.059v1.726h-3.601"/>
    <path transform="scale(1.3333)" d="m196.2 23.836h-3.601v-0.863l0.218-0.504 0.285-0.364 0.364-0.14 0.719-0.145h0.503l0.649 0.145 0.359 0.14 0.36 0.364 0.144 0.504v0.863"/>
    <path transform="scale(1.3333)" d="m192.6 19.586v-0.359l0.218-0.36 0.145-0.144 0.359-0.215 0.649-0.145h0.863l0.719 0.145 0.289 0.215 0.215 0.144 0.144 0.36v0.359l-0.144 0.289-0.215 0.215-0.289 0.144-0.719 0.215h-0.863l-0.649-0.215-0.359-0.144-0.145-0.215-0.218-0.289"/>
   </g>
   <g stroke="#840000">
    <path transform="scale(1.3333)" d="m191.31 8.426h2.375"/>
    <path transform="scale(1.3333)" d="m189.94 9.293 2.523 0.863v-2.234"/>
    <path transform="scale(1.3333)" d="m191.31 4.973h2.375"/>
    <path transform="scale(1.3333)" d="m189.94 5.836 2.523 0.863v-2.23"/>
    <path transform="scale(1.3333)" d="m187.42 14.617v-14.398"/>
   </g>
   <g stroke="#008484">
    <path transform="scale(1.3333)" d="m189 25.059v1.726h-3.602"/>
    <path transform="scale(1.3333)" d="m189 23.836h-3.602v-0.863l0.215-0.504 0.289-0.364 0.36-0.14 0.722-0.145h0.504l0.649 0.145 0.359 0.14 0.359 0.364 0.145 0.504v0.863"/>
    <path transform="scale(1.3333)" d="m189 18.363v2.086"/>
    <path transform="scale(1.3333)" d="m189 19.371h-3.602l0.504 0.359 0.36 0.36 0.144 0.359"/>
   </g>
   <g stroke="#840000">
    <path transform="scale(1.3333)" d="m184.1 8.426h2.379"/>
    <path transform="scale(1.3333)" d="m182.74 9.293 2.52 0.863v-2.234"/>
    <path transform="scale(1.3333)" d="m182.88 4.828v1.727l1.726 0.144-0.14-0.144-0.219-0.36v-0.863l0.219-0.359 0.14-0.145 0.364-0.219h0.863l0.289 0.219 0.215 0.145 0.144 0.359v0.863l-0.144 0.36-0.215 0.144"/>
    <path transform="scale(1.3333)" d="m180.22 14.617v-14.398"/>
   </g>
   <path transform="scale(1.3333)" d="m181.44 21.965 0.219 0.14 0.145 0.579v0.289l-0.145 0.504-0.359 0.359-0.363 0.215-0.645 0.144h-0.508l-0.719-0.144-0.359-0.215-0.289-0.359-0.215-0.504v-0.289l0.215-0.579 0.144-0.14" stroke="#008484"/>
   <path transform="scale(1.3333)" d="m181.8 20.449h-3.602v-1.367l0.215-0.359 0.144-0.215 0.36-0.145h0.504l0.359 0.145 0.145 0.215 0.144 0.359v1.367" stroke="#008484"/>
   <g stroke="#840000">
    <path transform="scale(1.3333)" d="m176.91 8.426h2.375"/>
    <path transform="scale(1.3333)" d="m175.54 9.293 2.52 0.863v-2.234"/>
    <path transform="scale(1.3333)" d="m175.68 4.973v0.718l0.214 0.289 0.145 0.215 0.504 0.36 0.719 0.144h1.371l0.285-0.144 0.219-0.215 0.14-0.36v-0.648l-0.14-0.359-0.219-0.145-0.285-0.219h-0.867l-0.36 0.219-0.144 0.145-0.215 0.359v0.648l0.215 0.36 0.144 0.215 0.36 0.144"/>
    <path transform="scale(1.3333)" d="m173.02 14.617v-14.398"/>
   </g>
   <g stroke="#008484">
    <path transform="scale(1.3333)" d="m172.73 22.324v1.153"/>
    <path transform="scale(1.3333)" d="m174.6 23.477h-3.598v-1.657"/>
    <path transform="scale(1.3333)" d="m174.6 18.363-1.727 1.223"/>
    <path transform="scale(1.3333)" d="m174.6 20.449h-3.598v-1.367l0.215-0.359 0.144-0.215 0.36-0.145h0.504l0.359 0.145 0.144 0.215 0.145 0.359v1.367"/>
   </g>
   <g stroke="#840000">
    <path transform="scale(1.3333)" d="m169.71 8.426h2.375"/>
    <path transform="scale(1.3333)" d="m168.34 9.293 2.519 0.863v-2.234"/>
    <path transform="scale(1.3333)" d="m168.48 6.844v-2.375l3.598 1.511"/>
    <path transform="scale(1.3333)" d="m165.82 14.617v-14.398"/>
   </g>
   <path transform="scale(1.3333)" d="m167.26 20.449 0.144-0.574v-0.793l-0.144-0.359-0.215-0.215-0.289-0.145h-0.359l-0.36 0.145-0.144 0.215-0.215 0.359-0.145 0.648-0.144 0.36-0.215 0.144-0.36 0.215h-0.289l-0.359-0.215-0.144-0.144-0.215-0.36v-0.863l0.215-0.504" stroke="#008484"/>
   <g stroke="#840000">
    <path transform="scale(1.3333)" d="m162.51 8.426h2.375"/>
    <path transform="scale(1.3333)" d="m161.14 9.293 2.519 0.863v-2.234"/>
    <path transform="scale(1.3333)" d="m162.87 5.98-0.215 0.36-0.144 0.215-0.36 0.144h-0.144l-0.359-0.144-0.145-0.215-0.219-0.36v-0.648l0.219-0.359 0.145-0.145 0.359-0.219h0.144l0.36 0.219 0.144 0.145 0.215 0.359v0.648l0.145 0.36 0.144 0.215 0.36 0.144h0.718l0.289-0.144 0.215-0.215 0.145-0.36v-0.648l-0.145-0.359-0.215-0.145-0.289-0.219h-0.718l-0.36 0.219-0.144 0.145-0.145 0.359"/>
    <path transform="scale(1.3333)" d="m158.62 14.617v-14.398"/>
   </g>
   <g stroke="#008484">
    <path transform="scale(1.3333)" d="m160.2 27.434h-3.601l2.593-1.153-2.593-1.222h3.601"/>
    <path transform="scale(1.3333)" d="m159.2 23.477v-1.657"/>
    <path transform="scale(1.3333)" d="m160.2 23.836-3.601-1.152 3.601-1.223"/>
    <path transform="scale(1.3333)" d="m156.6 19.586v-0.359l0.218-0.36 0.145-0.144 0.359-0.215 0.649-0.145h0.863l0.719 0.145 0.289 0.215 0.215 0.144 0.144 0.36v0.359l-0.144 0.289-0.215 0.215-0.289 0.144-0.719 0.215h-0.863l-0.649-0.215-0.359-0.144-0.145-0.215-0.218-0.289"/>
   </g>
   <g stroke="#840000">
    <path transform="scale(1.3333)" d="m155.31 8.426h2.375"/>
    <path transform="scale(1.3333)" d="m153.94 9.293 2.523 0.863v-2.234"/>
    <path transform="scale(1.3333)" d="m157.68 6.34v-0.649l-0.145-0.359-0.215-0.144-0.504-0.36-0.648-0.219h-1.367l-0.364 0.219-0.14 0.145-0.219 0.359v0.648l0.219 0.36 0.14 0.215 0.364 0.144h0.863l0.285-0.144 0.219-0.215 0.144-0.36v-0.648l-0.144-0.359-0.219-0.145-0.285-0.219"/>
    <path transform="scale(1.3333)" d="m151.42 14.617v-14.398"/>
   </g>
   <g stroke="#008484">
    <path transform="scale(1.3333)" d="m153 27.434h-3.602l2.594-1.153-2.594-1.222h3.602"/>
    <path transform="scale(1.3333)" d="m152 23.477v-1.657"/>
    <path transform="scale(1.3333)" d="m153 23.836-3.602-1.152 3.602-1.223"/>
    <path transform="scale(1.3333)" d="m153 18.363v2.086"/>
    <path transform="scale(1.3333)" d="m153 19.371h-3.602l0.504 0.359 0.36 0.36 0.144 0.359"/>
   </g>
   <g stroke="#840000">
    <path transform="scale(1.3333)" d="m146.88 8.211v1.727l1.726 0.218-0.14-0.218-0.219-0.36v-0.793l0.219-0.359 0.14-0.215 0.364-0.145h0.863l0.289 0.145 0.215 0.215 0.144 0.359v0.793l-0.144 0.36-0.215 0.218"/>
    <path transform="scale(1.3333)" d="m146.88 5.836v-0.359l0.215-0.289 0.144-0.215 0.36-0.145 0.648-0.219h0.863l0.723 0.219 0.289 0.145 0.215 0.215 0.144 0.289v0.359l-0.144 0.359-0.215 0.145-0.289 0.215-0.723 0.144h-0.863l-0.648-0.144-0.36-0.215-0.144-0.145-0.215-0.359"/>
    <path transform="scale(1.3333)" d="m144.22 14.617v-14.398"/>
   </g>
   <g stroke="#008484">
    <path transform="scale(1.3333)" d="m145.8 27.434h-3.602l2.594-1.153-2.594-1.222h3.602"/>
    <path transform="scale(1.3333)" d="m144.8 23.477v-1.657"/>
    <path transform="scale(1.3333)" d="m145.8 23.836-3.602-1.152 3.602-1.223"/>
    <path transform="scale(1.3333)" d="m142.56 20.449-0.144-0.215-0.215-0.359v-0.793l0.215-0.359 0.144-0.215 0.36-0.145h0.289l0.574 0.145 2.02 2.086v-2.231"/>
   </g>
   <g stroke="#840000">
    <path transform="scale(1.3333)" d="m139.68 8.211v1.727l1.726 0.218-0.144-0.218-0.215-0.36v-0.793l0.215-0.359 0.144-0.215 0.36-0.145h0.867l0.285 0.145 0.219 0.215 0.14 0.359v0.793l-0.14 0.36-0.219 0.218"/>
    <path transform="scale(1.3333)" d="m143.28 4.609v2.09"/>
    <path transform="scale(1.3333)" d="m143.28 5.691h-3.597l0.504 0.289 0.359 0.36 0.144 0.359"/>
    <path transform="scale(1.3333)" d="m137.02 14.617v-14.398"/>
   </g>
   <g stroke="#008484">
    <path transform="scale(1.3333)" d="m138.6 27.434h-3.598l2.59-1.153-2.59-1.222h3.598"/>
    <path transform="scale(1.3333)" d="m137.59 23.477v-1.657"/>
    <path transform="scale(1.3333)" d="m138.6 23.836-3.598-1.152 3.598-1.223"/>
    <path transform="scale(1.3333)" d="m135 20.594v-2.231l1.367 1.223v-0.504l0.215-0.359 0.144-0.215 0.36-0.145h0.863l0.289 0.145 0.219 0.215 0.141 0.359v1.008l-0.141 0.359-0.219 0.145"/>
   </g>
   <g stroke="#840000">
    <path transform="scale(1.3333)" d="m132.48 8.211v1.727l1.727 0.218-0.145-0.218-0.214-0.36v-0.793l0.214-0.359 0.145-0.215 0.359-0.145h0.864l0.289 0.145 0.215 0.215 0.144 0.359v0.793l-0.144 0.36-0.215 0.218"/>
    <path transform="scale(1.3333)" d="m132.84 6.699-0.145-0.144-0.215-0.36v-0.863l0.215-0.359 0.145-0.145 0.359-0.219h0.289l0.574 0.219 2.016 2.016v-2.235"/>
    <path transform="scale(1.3333)" d="m129.82 14.617v-14.398"/>
   </g>
   <g stroke="#008484">
    <path transform="scale(1.3333)" d="m127.8 27.652 3.597-1.226-3.597-1.223"/>
    <path transform="scale(1.3333)" d="m131.4 24.051h-3.597v-0.863l0.215-0.504 0.289-0.36 0.359-0.219 0.719-0.14h0.504l0.648 0.14 0.359 0.219 0.36 0.36 0.144 0.504v0.863"/>
    <path transform="scale(1.3333)" d="m131.4 20.449h-3.597v-0.863l0.215-0.504 0.289-0.359 0.359-0.215 0.719-0.145h0.504l0.648 0.145 0.359 0.215 0.36 0.359 0.144 0.504v0.863"/>
   </g>
   <g stroke="#840000">
    <path transform="scale(1.3333)" d="m125.28 8.211v1.727l1.731 0.218-0.145-0.218-0.215-0.36v-0.793l0.215-0.359 0.145-0.215 0.359-0.145h0.863l0.289 0.145 0.215 0.215 0.145 0.359v0.793l-0.145 0.36-0.215 0.218"/>
    <path transform="scale(1.3333)" d="m125.28 6.844v-2.235l1.371 1.227v-0.504l0.215-0.359 0.145-0.145 0.359-0.219h0.863l0.289 0.219 0.215 0.145 0.145 0.359v1.008l-0.145 0.359-0.215 0.145"/>
    <path transform="scale(1.3333)" d="m122.62 14.617v-14.398"/>
   </g>
   <g stroke="#008484">
    <path transform="scale(1.3333)" d="m124.2 27.434h-3.601l2.593-1.153-2.593-1.222h3.601"/>
    <path transform="scale(1.3333)" d="m123.2 23.477v-1.657"/>
    <path transform="scale(1.3333)" d="m124.2 23.836-3.601-1.152 3.601-1.223"/>
    <path transform="scale(1.3333)" d="m121.83 18.723h2.375"/>
    <path transform="scale(1.3333)" d="m120.46 19.586 2.519 0.863v-2.23"/>
   </g>
   <g stroke="#840000">
    <path transform="scale(1.3333)" d="m118.08 8.211v1.727l1.73 0.218-0.144-0.218-0.219-0.36v-0.793l0.219-0.359 0.144-0.215 0.36-0.145h0.863l0.289 0.145 0.215 0.215 0.145 0.359v0.793l-0.145 0.36-0.215 0.218"/>
    <path transform="scale(1.3333)" d="m119.31 4.973h2.375"/>
    <path transform="scale(1.3333)" d="m117.94 5.836 2.523 0.863v-2.23"/>
    <path transform="scale(1.3333)" d="m115.42 14.617v-14.398"/>
   </g>
   <g stroke="#008484">
    <path transform="scale(1.3333)" d="m117 27.434h-3.602l2.594-1.153-2.594-1.222h3.602"/>
    <path transform="scale(1.3333)" d="m116 23.477v-1.657"/>
    <path transform="scale(1.3333)" d="m117 23.836-3.602-1.152 3.602-1.223"/>
    <path transform="scale(1.3333)" d="m113.4 18.508v1.726l1.731 0.215-0.145-0.215-0.218-0.359v-0.793l0.218-0.359 0.145-0.215 0.359-0.145h0.863l0.29 0.145 0.214 0.215 0.145 0.359v0.793l-0.145 0.359-0.214 0.215"/>
   </g>
   <g stroke="#840000">
    <path transform="scale(1.3333)" d="m110.88 8.211v1.727l1.726 0.218-0.14-0.218-0.219-0.36v-0.793l0.219-0.359 0.14-0.215 0.364-0.145h0.863l0.289 0.145 0.215 0.215 0.144 0.359v0.793l-0.144 0.36-0.215 0.218"/>
    <path transform="scale(1.3333)" d="m110.88 4.828v1.727l1.726 0.144-0.14-0.144-0.219-0.36v-0.863l0.219-0.359 0.14-0.145 0.364-0.219h0.863l0.289 0.219 0.215 0.145 0.144 0.359v0.863l-0.144 0.36-0.215 0.144"/>
    <path transform="scale(1.3333)" d="m108.22 14.617v-14.398"/>
   </g>
   <g stroke="#008484">
    <path transform="scale(1.3333)" d="m109.8 27.434h-3.602l2.594-1.153-2.594-1.222h3.602"/>
    <path transform="scale(1.3333)" d="m108.8 23.477v-1.657"/>
    <path transform="scale(1.3333)" d="m109.8 23.836-3.602-1.152 3.602-1.223"/>
    <path transform="scale(1.3333)" d="m106.2 18.723v0.648l0.215 0.359 0.144 0.145 0.504 0.359 0.719 0.215h1.371l0.285-0.215 0.219-0.144 0.145-0.36v-0.648l-0.145-0.359-0.219-0.215-0.285-0.145h-0.863l-0.363 0.145-0.145 0.215-0.215 0.359v0.648l0.215 0.36 0.145 0.144 0.363 0.215"/>
   </g>
   <g stroke="#840000">
    <path transform="scale(1.3333)" d="m103.68 8.211v1.727l1.726 0.218-0.144-0.218-0.215-0.36v-0.793l0.215-0.359 0.144-0.215 0.36-0.145h0.867l0.285 0.145 0.219 0.215 0.14 0.359v0.793l-0.14 0.36-0.219 0.218"/>
    <path transform="scale(1.3333)" d="m103.68 4.973v0.718l0.214 0.289 0.145 0.215 0.504 0.36 0.719 0.144h1.371l0.285-0.144 0.219-0.215 0.14-0.36v-0.648l-0.14-0.359-0.219-0.145-0.285-0.219h-0.867l-0.36 0.219-0.144 0.145-0.215 0.359v0.648l0.215 0.36 0.144 0.215 0.36 0.144"/>
    <path transform="scale(1.3333)" d="m101.02 14.617v-14.398"/>
   </g>
   <g stroke="#008484">
    <path transform="scale(1.3333)" d="m102.6 27.434h-3.598l2.59-1.153-2.59-1.222h3.598"/>
    <path transform="scale(1.3333)" d="m101.59 23.477v-1.657"/>
    <path transform="scale(1.3333)" d="m102.6 23.836-3.598-1.152 3.598-1.223"/>
    <path transform="scale(1.3333)" d="m99.004 20.594v-2.375l3.598 1.511"/>
   </g>
   <g stroke="#840000">
    <path transform="scale(1.3333)" d="m96.484 8.211v1.727l1.727 0.218-0.145-0.218-0.214-0.36v-0.793l0.214-0.359 0.145-0.215 0.359-0.145h0.864l0.289 0.145 0.215 0.215 0.144 0.359v0.793l-0.144 0.36-0.215 0.218"/>
    <path transform="scale(1.3333)" d="m96.484 6.844v-2.375l3.598 1.511"/>
    <path transform="scale(1.3333)" d="m93.82 14.617v-14.398"/>
   </g>
   <g stroke="#008484">
    <path transform="scale(1.3333)" d="m95.402 30.891h-3.597l2.59-1.223-2.59-1.152h3.597"/>
    <path transform="scale(1.3333)" d="m94.395 26.93v-1.727"/>
    <path transform="scale(1.3333)" d="m95.402 27.293-3.597-1.227 3.597-1.152"/>
    <path transform="scale(1.3333)" d="m95.402 21.82v2.016"/>
    <path transform="scale(1.3333)" d="m95.402 22.828h-3.597l0.504 0.36 0.359 0.289 0.144 0.359"/>
    <path transform="scale(1.3333)" d="m92.164 20.449-0.144-0.215-0.215-0.359v-0.793l0.215-0.359 0.144-0.215 0.359-0.145h0.289l0.575 0.145 2.015 2.086v-2.231"/>
   </g>
   <g stroke="#840000">
    <path transform="scale(1.3333)" d="m89.281 8.211v1.727l1.731 0.218-0.145-0.218-0.215-0.36v-0.793l0.215-0.359 0.145-0.215 0.359-0.145h0.863l0.289 0.145 0.215 0.215 0.145 0.359v0.793l-0.145 0.36-0.215 0.218"/>
    <path transform="scale(1.3333)" d="m90.867 5.98-0.215 0.36-0.144 0.215-0.36 0.144h-0.144l-0.359-0.144-0.145-0.215-0.219-0.36v-0.648l0.219-0.359 0.145-0.145 0.359-0.219h0.144l0.36 0.219 0.144 0.145 0.215 0.359v0.648l0.145 0.36 0.144 0.215 0.36 0.144h0.718l0.289-0.144 0.215-0.215 0.145-0.36v-0.648l-0.145-0.359-0.215-0.145-0.289-0.219h-0.718l-0.36 0.219-0.144 0.145-0.145 0.359"/>
    <path transform="scale(1.3333)" d="m86.617 14.617v-14.398"/>
   </g>
   <g stroke="#008484">
    <path transform="scale(1.3333)" d="m83.594 28.805v-4.106"/>
    <path transform="scale(1.3333)" d="m88.203 27.938h-3.601l2.593-1.153-2.593-1.223h3.601"/>
    <path transform="scale(1.3333)" d="m83.594 24.699v-3.601"/>
    <path transform="scale(1.3333)" d="m87.844 21.82 0.215 0.145 0.144 0.504v0.359l-0.144 0.504-0.36 0.359-0.359 0.145-0.649 0.215h-0.503l-0.719-0.215-0.364-0.145-0.285-0.359-0.218-0.504v-0.359l0.218-0.504 0.145-0.145"/>
    <path transform="scale(1.3333)" d="m83.594 21.098v-3.383"/>
    <path transform="scale(1.3333)" d="m88.059 20.449 0.144-0.574v-0.793l-0.144-0.359-0.215-0.215-0.289-0.145h-0.36l-0.359 0.145-0.145 0.215-0.214 0.359-0.145 0.648-0.144 0.36-0.215 0.144-0.364 0.215h-0.285l-0.359-0.215-0.145-0.144-0.218-0.36v-0.863l0.218-0.504"/>
   </g>
   <g stroke="#840000">
    <path transform="scale(1.3333)" d="m82.082 8.211v1.727l1.73 0.218-0.144-0.218-0.219-0.36v-0.793l0.219-0.359 0.144-0.215 0.36-0.145h0.863l0.289 0.145 0.215 0.215 0.145 0.359v0.793l-0.145 0.36-0.215 0.218"/>
    <path transform="scale(1.3333)" d="m85.684 6.34v-0.649l-0.145-0.359-0.215-0.144-0.504-0.36-0.648-0.219h-1.367l-0.364 0.219-0.14 0.145-0.219 0.359v0.648l0.219 0.36 0.14 0.215 0.364 0.144h0.863l0.285-0.144 0.219-0.215 0.144-0.36v-0.648l-0.144-0.359-0.219-0.145-0.285-0.219"/>
    <path transform="scale(1.3333)" d="m79.418 14.617v-14.398"/>
   </g>
   <g stroke="#008484">
    <path transform="scale(1.3333)" d="m81.004 30.891h-3.602l2.594-1.223-2.594-1.152h3.602"/>
    <path transform="scale(1.3333)" d="m79.996 26.93v-1.727"/>
    <path transform="scale(1.3333)" d="m81.004 27.293-3.602-1.227 3.602-1.152"/>
    <path transform="scale(1.3333)" d="m81.004 21.82v2.016"/>
    <path transform="scale(1.3333)" d="m81.004 22.828h-3.602l0.504 0.36 0.36 0.289 0.144 0.359"/>
    <path transform="scale(1.3333)" d="m77.402 19.586v-0.359l0.215-0.36 0.145-0.144 0.363-0.215 0.645-0.145h0.867l0.718 0.145 0.29 0.215 0.214 0.144 0.145 0.36v0.359l-0.145 0.289-0.214 0.215-0.29 0.144-0.718 0.215h-0.867l-0.645-0.215-0.363-0.144-0.145-0.215-0.215-0.289"/>
   </g>
   <g stroke="#840000">
    <path transform="scale(1.3333)" d="m74.883 8.426v0.648l0.215 0.36 0.144 0.144 0.504 0.36 0.723 0.218h1.367l0.289-0.218 0.215-0.141 0.144-0.363v-0.649l-0.144-0.359-0.215-0.215-0.289-0.145h-0.863l-0.364 0.145-0.14 0.215-0.219 0.359v0.649l0.219 0.363 0.14 0.141 0.364 0.218"/>
    <path transform="scale(1.3333)" d="m74.883 5.836v-0.359l0.215-0.289 0.144-0.215 0.36-0.145 0.648-0.219h0.863l0.723 0.219 0.289 0.145 0.215 0.215 0.144 0.289v0.359l-0.144 0.359-0.215 0.145-0.289 0.215-0.723 0.144h-0.863l-0.648-0.144-0.36-0.215-0.144-0.145-0.215-0.359"/>
    <path transform="scale(1.3333)" d="m72.219 14.617v-14.398"/>
   </g>
   <g stroke="#008484">
    <path transform="scale(1.3333)" d="m69.195 29.02v-4.106"/>
    <path transform="scale(1.3333)" d="m73.805 28.156h-3.602l2.594-1.226-2.594-1.223h3.602"/>
    <path transform="scale(1.3333)" d="m69.195 24.914v-3.598"/>
    <path transform="scale(1.3333)" d="m73.805 21.965-1.731 1.223"/>
    <path transform="scale(1.3333)" d="m73.805 24.051h-3.602v-1.367l0.215-0.36 0.144-0.219 0.36-0.14h0.504l0.359 0.14 0.145 0.219 0.144 0.36v1.367"/>
    <path transform="scale(1.3333)" d="m69.195 21.316v-3.601"/>
    <path transform="scale(1.3333)" d="m73.805 20.449h-3.602v-0.863l0.215-0.504 0.289-0.359 0.359-0.215 0.719-0.145h0.508l0.645 0.145 0.363 0.215 0.359 0.359 0.145 0.504v0.863"/>
   </g>
   <g stroke="#840000">
    <path transform="scale(1.3333)" d="m67.684 8.426v0.648l0.214 0.36 0.145 0.144 0.504 0.36 0.719 0.218h1.371l0.285-0.218 0.219-0.141 0.14-0.363v-0.649l-0.14-0.359-0.219-0.215-0.285-0.145h-0.867l-0.36 0.145-0.144 0.215-0.215 0.359v0.649l0.215 0.363 0.144 0.141 0.36 0.218"/>
    <path transform="scale(1.3333)" d="m71.281 4.609v2.09"/>
    <path transform="scale(1.3333)" d="m71.281 5.691h-3.597l0.504 0.289 0.359 0.36 0.144 0.359"/>
    <path transform="scale(1.3333)" d="m65.02 14.617v-14.398"/>
   </g>
   <g stroke="#008484">
    <path transform="scale(1.3333)" d="m66.602 30.891h-3.598l2.59-1.223-2.59-1.152h3.598"/>
    <path transform="scale(1.3333)" d="m65.594 26.93v-1.727"/>
    <path transform="scale(1.3333)" d="m66.602 27.293-3.598-1.227 3.598-1.152"/>
    <path transform="scale(1.3333)" d="m66.602 21.82v2.016"/>
    <path transform="scale(1.3333)" d="m66.602 22.828h-3.598l0.504 0.36 0.359 0.289 0.145 0.359"/>
    <path transform="scale(1.3333)" d="m66.602 18.363v2.086"/>
    <path transform="scale(1.3333)" d="m66.602 19.371h-3.598l0.504 0.359 0.359 0.36 0.145 0.359"/>
   </g>
   <g stroke="#840000">
    <path transform="scale(1.3333)" d="m60.484 8.426v0.648l0.215 0.36 0.145 0.144 0.504 0.36 0.718 0.218h1.368l0.289-0.218 0.215-0.141 0.144-0.363v-0.649l-0.144-0.359-0.215-0.215-0.289-0.145h-0.864l-0.359 0.145-0.145 0.215-0.214 0.359v0.649l0.214 0.363 0.145 0.141 0.359 0.218"/>
    <path transform="scale(1.3333)" d="m60.844 6.699-0.145-0.144-0.215-0.36v-0.863l0.215-0.359 0.145-0.145 0.359-0.219h0.289l0.574 0.219 2.016 2.016v-2.235"/>
    <path transform="scale(1.3333)" d="m57.82 14.617v-14.398"/>
   </g>
   <g stroke="#008484">
    <path transform="scale(1.3333)" d="m59.402 27.434h-3.597l2.59-1.153-2.59-1.222h3.597"/>
    <path transform="scale(1.3333)" d="m58.395 23.477v-1.657"/>
    <path transform="scale(1.3333)" d="m59.402 23.836-3.597-1.152 3.597-1.223"/>
    <path transform="scale(1.3333)" d="m59.402 20.09v-0.719l-0.144-0.289-0.215-0.215-0.504-0.359-0.648-0.145h-1.368l-0.359 0.145-0.144 0.215-0.215 0.359v0.648l0.215 0.36 0.144 0.144 0.359 0.215h0.864l0.289-0.215 0.215-0.144 0.144-0.36v-0.648l-0.144-0.359-0.215-0.215-0.289-0.145"/>
   </g>
   <g stroke="#840000">
    <path transform="scale(1.3333)" d="m53.281 8.426v0.648l0.219 0.36 0.145 0.144 0.503 0.36 0.719 0.218h1.367l0.289-0.218 0.215-0.141 0.145-0.363v-0.649l-0.145-0.359-0.215-0.215-0.289-0.145h-0.863l-0.359 0.145-0.145 0.215-0.215 0.359v0.649l0.215 0.363 0.145 0.141 0.359 0.218"/>
    <path transform="scale(1.3333)" d="m53.281 6.844v-2.235l1.371 1.227v-0.504l0.215-0.359 0.145-0.145 0.359-0.219h0.863l0.289 0.219 0.215 0.145 0.145 0.359v1.008l-0.145 0.359-0.215 0.145"/>
    <path transform="scale(1.3333)" d="m50.617 14.617v-14.398"/>
   </g>
   <g stroke="#008484">
    <path transform="scale(1.3333)" d="m52.203 27.434h-3.601l2.593-1.153-2.593-1.222h3.601"/>
    <path transform="scale(1.3333)" d="m51.195 23.477v-1.657"/>
    <path transform="scale(1.3333)" d="m52.203 23.836-3.601-1.152 3.601-1.223"/>
    <path transform="scale(1.3333)" d="m50.188 19.73-0.215 0.36-0.145 0.144-0.359 0.215h-0.145l-0.359-0.215-0.145-0.144-0.218-0.36v-0.648l0.218-0.359 0.145-0.215 0.359-0.145h0.145l0.359 0.145 0.145 0.215 0.215 0.359v0.648l0.144 0.36 0.145 0.144 0.359 0.215h0.719l0.289-0.215 0.215-0.144 0.144-0.36v-0.648l-0.144-0.359-0.215-0.215-0.289-0.145h-0.719l-0.359 0.145-0.145 0.215-0.144 0.359"/>
   </g>
   <g stroke="#840000">
    <path transform="scale(1.3333)" d="m46.082 8.426v0.648l0.219 0.36 0.14 0.144 0.504 0.36 0.723 0.218h1.367l0.289-0.218 0.215-0.141 0.145-0.363v-0.649l-0.145-0.359-0.215-0.215-0.289-0.145h-0.863l-0.36 0.145-0.144 0.215-0.219 0.359v0.649l0.219 0.363 0.144 0.141 0.36 0.218"/>
    <path transform="scale(1.3333)" d="m47.309 4.973h2.375"/>
    <path transform="scale(1.3333)" d="m45.938 5.836 2.523 0.863v-2.23"/>
    <path transform="scale(1.3333)" d="m14.617 29.02h-14.398"/>
   </g>
   <g stroke="#008484">
    <path transform="scale(1.3333)" d="m17.715 25.996h4.105"/>
    <path transform="scale(1.3333)" d="m18.508 30.602v-3.598l1.222 2.59 1.223-2.59v3.598"/>
    <path transform="scale(1.3333)" d="m21.82 25.996h4.102"/>
    <path transform="scale(1.3333)" d="m22.324 27.004 0.864 3.598 0.648-2.59 0.719 2.59 0.863-3.598"/>
    <path transform="scale(1.3333)" d="m25.922 25.996h3.601"/>
    <path transform="scale(1.3333)" d="m28.805 30.602-1.153-1.727"/>
    <path transform="scale(1.3333)" d="m26.785 30.602v-3.598h1.371l0.36 0.215 0.144 0.144 0.145 0.36v0.504l-0.145 0.359-0.144 0.144-0.36 0.145h-1.371"/>
   </g>
   <g stroke="#840000">
    <path transform="scale(1.3333)" d="m6.34 24.484h-0.649l-0.359 0.215-0.144 0.145-0.36 0.504-0.219 0.718v1.368l0.219 0.289 0.145 0.215 0.359 0.144h0.648l0.36-0.144 0.215-0.215 0.144-0.289v-0.864l-0.144-0.359-0.215-0.145-0.36-0.214h-0.648l-0.359 0.214-0.145 0.145-0.219 0.359"/>
    <path transform="scale(1.3333)" d="m9.938 24.484h-1.727l-0.145 1.727 0.145-0.145 0.359-0.214h0.864l0.363 0.214 0.141 0.145 0.218 0.359v0.864l-0.218 0.289-0.141 0.215-0.363 0.144h-0.864l-0.359-0.144-0.145-0.215"/>
    <path transform="scale(1.3333)" d="m14.617 36.219h-14.398"/>
   </g>
   <g stroke="#008484">
    <path transform="scale(1.3333)" d="m20.594 37.441-0.145 0.219-0.574 0.145h-0.289l-0.504-0.145-0.359-0.359-0.215-0.363-0.145-0.645v-0.508l0.145-0.719 0.215-0.359 0.359-0.289 0.504-0.215h0.289l0.574 0.215 0.145 0.144"/>
    <path transform="scale(1.3333)" d="m22.105 37.805v-3.602"/>
    <path transform="scale(1.3333)" d="m24.195 37.805-1.511-2.02"/>
    <path transform="scale(1.3333)" d="m24.195 34.203-2.09 2.09"/>
    <path transform="scale(1.3333)" d="m25.562 34.562 0.145-0.144 0.359-0.215h0.864l0.363 0.215 0.141 0.144 0.218 0.36v0.289l-0.218 0.574-2.016 2.02h2.234"/>
   </g>
   <g stroke="#840000">
    <path transform="scale(1.3333)" d="m6.34 31.684h-0.649l-0.359 0.214-0.144 0.145-0.36 0.504-0.219 0.719v1.371l0.219 0.285 0.145 0.219 0.359 0.14h0.648l0.36-0.14 0.215-0.219 0.144-0.285v-0.867l-0.144-0.36-0.215-0.144-0.36-0.215h-0.648l-0.359 0.215-0.145 0.144-0.219 0.36"/>
    <path transform="scale(1.3333)" d="m9.797 31.684h-0.723l-0.289 0.214-0.215 0.145-0.359 0.504-0.145 0.719v1.371l0.145 0.285 0.215 0.219 0.359 0.14h0.649l0.363-0.14 0.141-0.219 0.218-0.285v-0.867l-0.218-0.36-0.141-0.144-0.363-0.215h-0.649l-0.359 0.215-0.215 0.144-0.145 0.36"/>
    <path transform="scale(1.3333)" d="m14.617 43.418h-14.398"/>
   </g>
   <g stroke="#008484">
    <path transform="scale(1.3333)" d="m20.594 44.645-0.145 0.214-0.574 0.145h-0.289l-0.504-0.145-0.359-0.359-0.215-0.359-0.145-0.649v-0.504l0.145-0.722 0.215-0.36 0.359-0.289 0.504-0.215h0.289l0.574 0.215 0.145 0.145"/>
    <path transform="scale(1.3333)" d="m22.105 45.004v-3.602"/>
    <path transform="scale(1.3333)" d="m24.195 45.004-1.511-2.016"/>
    <path transform="scale(1.3333)" d="m24.195 41.402-2.09 2.09"/>
    <path transform="scale(1.3333)" d="m27.652 45.004h-2.09"/>
    <path transform="scale(1.3333)" d="m26.57 45.004v-3.602l-0.289 0.504-0.359 0.36-0.36 0.144"/>
   </g>
   <g stroke="#840000">
    <path transform="scale(1.3333)" d="m6.34 38.883h-0.649l-0.359 0.215-0.144 0.144-0.36 0.504-0.219 0.723v1.367l0.219 0.289 0.145 0.215 0.359 0.144h0.648l0.36-0.144 0.215-0.215 0.144-0.289v-0.863l-0.144-0.364-0.215-0.14-0.36-0.219h-0.648l-0.359 0.219-0.145 0.14-0.219 0.364"/>
    <path transform="scale(1.3333)" d="m7.922 38.883h2.379l-1.516 3.601"/>
    <path transform="scale(1.3333)" d="m14.617 50.617h-14.398"/>
   </g>
   <g stroke="#008484">
    <path transform="scale(1.3333)" d="m18.508 52.203v-3.601h1.367l0.359 0.218 0.215 0.145 0.145 0.359v0.504l-0.145 0.36-0.215 0.144-0.359 0.145h-1.367"/>
    <path transform="scale(1.3333)" d="m24.051 52.203h-2.086"/>
    <path transform="scale(1.3333)" d="m22.973 52.203v-3.601l-0.289 0.503-0.36 0.364-0.359 0.14"/>
    <path transform="scale(1.3333)" d="m27.293 48.602h-1.731l-0.144 1.73 0.144-0.144 0.36-0.215h0.863l0.289 0.215 0.219 0.144 0.141 0.359v0.864l-0.141 0.289-0.219 0.215-0.289 0.144h-0.863l-0.36-0.144-0.144-0.215"/>
   </g>
   <g stroke="#840000">
    <path transform="scale(1.3333)" d="m6.34 46.082h-0.649l-0.359 0.219-0.144 0.14-0.36 0.504-0.219 0.723v1.367l0.219 0.289 0.145 0.215 0.359 0.145h0.648l0.36-0.145 0.215-0.215 0.144-0.289v-0.863l-0.144-0.36-0.215-0.144-0.36-0.219h-0.648l-0.359 0.219-0.145 0.144-0.219 0.36"/>
    <path transform="scale(1.3333)" d="m8.785 47.668-0.359-0.219-0.215-0.14-0.145-0.364v-0.14l0.145-0.364 0.215-0.14 0.359-0.219h0.649l0.363 0.219 0.141 0.14 0.218 0.364v0.14l-0.218 0.364-0.141 0.14-0.363 0.219h-0.649l-0.359 0.144-0.215 0.141-0.145 0.363v0.719l0.145 0.289 0.215 0.215 0.359 0.145h0.649l0.363-0.145 0.141-0.215 0.218-0.289v-0.719l-0.218-0.363-0.141-0.141-0.363-0.144"/>
    <path transform="scale(1.3333)" d="m14.617 57.82h-14.398"/>
   </g>
   <g stroke="#008484">
    <path transform="scale(1.3333)" d="m18.508 59.402v-3.597h1.367l0.359 0.215 0.215 0.144 0.145 0.359v0.504l-0.145 0.36-0.215 0.144-0.359 0.145h-1.367"/>
    <path transform="scale(1.3333)" d="m24.051 59.402h-2.086"/>
    <path transform="scale(1.3333)" d="m22.973 59.402v-3.597l-0.289 0.504-0.36 0.359-0.359 0.144"/>
    <path transform="scale(1.3333)" d="m27.074 57.027v2.375"/>
    <path transform="scale(1.3333)" d="m26.281 55.66-0.863 2.52h2.234"/>
   </g>
   <g stroke="#840000">
    <path transform="scale(1.3333)" d="m6.34 53.281h-0.649l-0.359 0.219-0.144 0.145-0.36 0.503-0.219 0.719v1.367l0.219 0.289 0.145 0.215 0.359 0.145h0.648l0.36-0.145 0.215-0.215 0.144-0.289v-0.863l-0.144-0.359-0.215-0.145-0.36-0.215h-0.648l-0.359 0.215-0.145 0.145-0.219 0.359"/>
    <path transform="scale(1.3333)" d="m8.426 56.883h0.648l0.36-0.145 0.144-0.215 0.36-0.503 0.218-0.649v-1.367l-0.218-0.359-0.141-0.145-0.363-0.219h-0.649l-0.359 0.219-0.215 0.145-0.145 0.359v0.863l0.145 0.289 0.215 0.215 0.359 0.145h0.649l0.363-0.145 0.141-0.215 0.218-0.289"/>
    <path transform="scale(1.3333)" d="m14.617 65.02h-14.398"/>
   </g>
   <g stroke="#008484">
    <path transform="scale(1.3333)" d="m18.508 66.602v-3.598h1.367l0.359 0.215 0.215 0.144 0.145 0.36v0.504l-0.145 0.359-0.215 0.144-0.359 0.145h-1.367"/>
    <path transform="scale(1.3333)" d="m24.051 66.602h-2.086"/>
    <path transform="scale(1.3333)" d="m22.973 66.602v-3.598l-0.289 0.504-0.36 0.359-0.359 0.145"/>
    <path transform="scale(1.3333)" d="m25.203 63.004h2.231l-1.153 1.367h0.504l0.289 0.215 0.219 0.144 0.141 0.36v0.863l-0.141 0.289-0.219 0.219-0.289 0.141h-1.078l-0.289-0.141-0.215-0.219"/>
   </g>
   <g stroke="#840000">
    <path transform="scale(1.3333)" d="m4.469 60.484h2.375l-1.512 3.598"/>
    <path transform="scale(1.3333)" d="m8.93 60.484h0.363l0.285 0.215 0.219 0.145 0.141 0.359 0.218 0.649v0.863l-0.218 0.719-0.141 0.289-0.219 0.215-0.285 0.144h-0.363l-0.36-0.144-0.144-0.215-0.215-0.289-0.145-0.719v-0.863l0.145-0.649 0.215-0.359 0.144-0.145 0.36-0.215"/>
    <path transform="scale(1.3333)" d="m14.617 72.219h-14.398"/>
   </g>
   <g stroke="#008484">
    <path transform="scale(1.3333)" d="m18.508 73.805v-3.602h1.367l0.359 0.215 0.215 0.144 0.145 0.36v0.504l-0.145 0.359-0.215 0.145-0.359 0.144h-1.367"/>
    <path transform="scale(1.3333)" d="m24.051 73.805h-2.086"/>
    <path transform="scale(1.3333)" d="m22.973 73.805v-3.602l-0.289 0.504-0.36 0.359-0.359 0.145"/>
    <path transform="scale(1.3333)" d="m25.418 70.562 0.144-0.144 0.36-0.215h0.863l0.289 0.215 0.219 0.144 0.141 0.36v0.289l-0.141 0.574-2.09 2.02h2.231"/>
   </g>
   <g stroke="#840000">
    <path transform="scale(1.3333)" d="m4.469 67.684h2.375l-1.512 3.597"/>
    <path transform="scale(1.3333)" d="m10.156 71.281h-2.09"/>
    <path transform="scale(1.3333)" d="m9.074 71.281v-3.597l-0.289 0.504-0.359 0.359-0.36 0.144"/>
    <path transform="scale(1.3333)" d="m14.617 79.418h-14.398"/>
   </g>
   <g stroke="#008484">
    <path transform="scale(1.3333)" d="m20.449 77.617-0.359-0.215h-0.504l-0.504 0.215-0.359 0.289-0.215 0.36-0.145 0.722v0.504l0.145 0.649 0.215 0.359 0.359 0.359 0.504 0.145h0.289l0.574-0.145 0.145-0.214v-1.153h-0.719"/>
    <path transform="scale(1.3333)" d="m22.105 81.004v-3.602l2.09 3.602v-3.602"/>
    <path transform="scale(1.3333)" d="m25.922 81.004v-3.602h0.863l0.508 0.215 0.359 0.289 0.145 0.36 0.141 0.722v0.504l-0.141 0.649-0.145 0.359-0.359 0.359-0.508 0.145h-0.863"/>
   </g>
   <g stroke="#840000">
    <path transform="scale(1.3333)" d="m4.469 74.883h2.375l-1.512 3.601"/>
    <path transform="scale(1.3333)" d="m8.066 75.242 0.145-0.144 0.359-0.215h0.864l0.363 0.215 0.141 0.144 0.218 0.36v0.289l-0.218 0.578-2.016 2.015h2.234"/>
    <path transform="scale(1.3333)" d="m14.617 86.617h-14.398"/>
   </g>
   <g stroke="#008484">
    <path transform="scale(1.3333)" d="m18.508 88.203v-3.601h1.367l0.359 0.218 0.215 0.145 0.145 0.359v0.504l-0.145 0.36-0.215 0.144-0.359 0.145h-1.367"/>
    <path transform="scale(1.3333)" d="m24.051 88.203h-2.086"/>
    <path transform="scale(1.3333)" d="m22.973 88.203v-3.601l-0.289 0.503-0.36 0.364-0.359 0.14"/>
    <path transform="scale(1.3333)" d="m27.434 88.203h-2.016"/>
    <path transform="scale(1.3333)" d="m26.426 88.203v-3.601l-0.36 0.503-0.359 0.364-0.289 0.14"/>
   </g>
   <g stroke="#840000">
    <path transform="scale(1.3333)" d="m4.469 82.082h2.375l-1.512 3.602"/>
    <path transform="scale(1.3333)" d="m7.922 82.082h2.234l-1.226 1.367h0.504l0.363 0.219 0.141 0.144 0.218 0.36v0.863l-0.218 0.289-0.141 0.215-0.363 0.145h-1.008l-0.36-0.145-0.144-0.215"/>
    <path transform="scale(1.3333)" d="m14.617 93.82h-14.398"/>
   </g>
   <g stroke="#008484">
    <path transform="scale(1.3333)" d="m18.508 95.402v-3.597h1.367l0.359 0.215 0.215 0.144 0.145 0.359v0.504l-0.145 0.36-0.215 0.144-0.359 0.145h-1.367"/>
    <path transform="scale(1.3333)" d="m24.051 95.402h-2.086"/>
    <path transform="scale(1.3333)" d="m22.973 95.402v-3.597l-0.289 0.504-0.36 0.359-0.359 0.144"/>
    <path transform="scale(1.3333)" d="m26.281 91.805h0.289l0.36 0.215 0.144 0.144 0.219 0.359 0.141 0.649v0.863l-0.141 0.719-0.219 0.289-0.144 0.215-0.36 0.144h-0.289l-0.359-0.144-0.215-0.215-0.145-0.289-0.144-0.719v-0.863l0.144-0.649 0.145-0.359 0.215-0.144 0.359-0.215"/>
   </g>
   <g stroke="#840000">
    <path transform="scale(1.3333)" d="m4.469 89.281h2.375l-1.512 3.602"/>
    <path transform="scale(1.3333)" d="m9.797 90.508v2.375"/>
    <path transform="scale(1.3333)" d="m8.93 89.141-0.864 2.519h2.235"/>
    <path transform="scale(1.3333)" d="m14.617 101.02h-14.398"/>
   </g>
   <g stroke="#008484">
    <path transform="scale(1.3333)" d="m18.004 99.004h2.086"/>
    <path transform="scale(1.3333)" d="m19.082 102.6v-3.598"/>
    <path transform="scale(1.3333)" d="m21.098 99.363 0.218-0.144 0.286-0.215h0.867l0.359 0.215 0.145 0.144 0.215 0.36v0.289l-0.215 0.574-2.02 2.016h2.235"/>
   </g>
   <g stroke="#840000">
    <path transform="scale(1.3333)" d="m4.469 96.484h2.375l-1.512 3.598"/>
    <path transform="scale(1.3333)" d="m9.938 96.484h-1.727l-0.145 1.727 0.145-0.145 0.359-0.214h0.864l0.363 0.214 0.141 0.145 0.218 0.359v0.864l-0.218 0.289-0.141 0.215-0.363 0.144h-0.864l-0.359-0.144-0.145-0.215"/>
    <path transform="scale(1.3333)" d="m14.617 108.22h-14.398"/>
   </g>
   <g stroke="#008484">
    <path transform="scale(1.3333)" d="m18.004 106.2h2.086"/>
    <path transform="scale(1.3333)" d="m19.082 109.8v-3.602"/>
    <path transform="scale(1.3333)" d="m23.188 109.8h-2.09"/>
    <path transform="scale(1.3333)" d="m22.105 109.8v-3.602l-0.285 0.504-0.359 0.359-0.363 0.145"/>
   </g>
   <g stroke="#840000">
    <path transform="scale(1.3333)" d="m4.469 103.68h2.375l-1.512 3.597"/>
    <path transform="scale(1.3333)" d="m9.797 103.68h-0.723l-0.289 0.214-0.215 0.145-0.359 0.504-0.145 0.719v1.371l0.145 0.285 0.215 0.219 0.359 0.14h0.649l0.363-0.14 0.141-0.219 0.218-0.285v-0.867l-0.218-0.36-0.141-0.144-0.363-0.215h-0.649l-0.359 0.215-0.215 0.144-0.145 0.36"/>
    <path transform="scale(1.3333)" d="m14.617 115.42h-14.398"/>
   </g>
   <g stroke="#008484">
    <path transform="scale(1.3333)" d="m18.508 117v-3.602h1.367l0.359 0.215 0.215 0.145 0.145 0.363v0.504l-0.145 0.359-0.215 0.145-0.359 0.14h-1.367"/>
    <path transform="scale(1.3333)" d="m22.105 117v-3.602"/>
    <path transform="scale(1.3333)" d="m22.105 115.13h2.09"/>
    <path transform="scale(1.3333)" d="m24.195 117v-3.602"/>
    <path transform="scale(1.3333)" d="m25.922 117v-3.602"/>
   </g>
   <g stroke="#840000">
    <path transform="scale(1.3333)" d="m4.469 110.88h2.375l-1.512 3.601"/>
    <path transform="scale(1.3333)" d="m7.922 110.88h2.379l-1.516 3.601"/>
    <path transform="scale(1.3333)" d="m14.617 122.62h-14.398"/>
   </g>
   <g stroke="#008484">
    <path transform="scale(1.3333)" d="m17.715 119.59h4.105"/>
    <path transform="scale(1.3333)" d="m18.219 120.6 0.863 3.601 0.648-2.594 0.719 2.594 0.867-3.601"/>
    <path transform="scale(1.3333)" d="m21.82 119.59h3.598"/>
    <path transform="scale(1.3333)" d="m24.699 124.2-1.222-1.726"/>
    <path transform="scale(1.3333)" d="m22.684 124.2v-3.601h1.367l0.289 0.218 0.215 0.145 0.144 0.359v0.504l-0.144 0.36-0.215 0.144-0.289 0.145h-1.367"/>
   </g>
   <g stroke="#840000">
    <path transform="scale(1.3333)" d="m4.469 118.08h2.375l-1.512 3.602"/>
    <path transform="scale(1.3333)" d="m8.785 119.67-0.359-0.219-0.215-0.14-0.145-0.364v-0.14l0.145-0.364 0.215-0.14 0.359-0.219h0.649l0.363 0.219 0.141 0.14 0.218 0.364v0.14l-0.218 0.364-0.141 0.14-0.363 0.219h-0.649l-0.359 0.144-0.215 0.141-0.145 0.363v0.719l0.145 0.289 0.215 0.215 0.359 0.145h0.649l0.363-0.145 0.141-0.215 0.218-0.289v-0.719l-0.218-0.363-0.141-0.141-0.363-0.144"/>
    <path transform="scale(1.3333)" d="m14.617 129.82h-14.398"/>
   </g>
   <g stroke="#008484">
    <path transform="scale(1.3333)" d="m17.715 126.8h3.601"/>
    <path transform="scale(1.3333)" d="m20.594 131.4-1.223-1.726"/>
    <path transform="scale(1.3333)" d="m18.508 131.4v-3.597h1.367l0.359 0.215 0.215 0.144 0.145 0.359v0.504l-0.145 0.36-0.215 0.144-0.359 0.145h-1.367"/>
    <path transform="scale(1.3333)" d="m21.316 126.8h3.598"/>
    <path transform="scale(1.3333)" d="m22.105 131.4v-3.597h0.868l0.504 0.215 0.359 0.289 0.215 0.359 0.144 0.719v0.504l-0.144 0.648-0.215 0.359-0.359 0.36-0.504 0.144h-0.868"/>
   </g>
   <g stroke="#840000">
    <path transform="scale(1.3333)" d="m4.469 125.28h2.375l-1.512 3.602"/>
    <path transform="scale(1.3333)" d="m8.426 128.88h0.648l0.36-0.145 0.144-0.215 0.36-0.503 0.218-0.649v-1.367l-0.218-0.359-0.141-0.145-0.363-0.219h-0.649l-0.359 0.219-0.215 0.145-0.145 0.359v0.863l0.145 0.289 0.215 0.215 0.359 0.145h0.649l0.363-0.145 0.141-0.215 0.218-0.289"/>
    <path transform="scale(1.3333)" d="m14.617 137.02h-14.398"/>
   </g>
   <g stroke="#008484">
    <path transform="scale(1.3333)" d="m17.715 134h3.601"/>
    <path transform="scale(1.3333)" d="m20.594 138.24-0.145 0.219-0.574 0.141h-0.289l-0.504-0.141-0.359-0.363-0.215-0.36-0.145-0.648v-0.504l0.145-0.719 0.215-0.359 0.359-0.289 0.504-0.215h0.289l0.574 0.215 0.145 0.144"/>
    <path transform="scale(1.3333)" d="m21.316 134h3.383"/>
    <path transform="scale(1.3333)" d="m21.965 138.46 0.504 0.141h0.863l0.359-0.141 0.145-0.219 0.215-0.289v-0.359l-0.215-0.36-0.145-0.144-0.359-0.215-0.648-0.145-0.36-0.144-0.219-0.215-0.14-0.359v-0.289l0.14-0.36 0.219-0.144 0.36-0.215h0.793l0.574 0.215"/>
   </g>
   <path transform="scale(1.3333)" d="m5.332 134.07-0.359-0.214-0.145-0.145-0.219-0.359v-0.145l0.219-0.359 0.145-0.145 0.359-0.215h0.648l0.36 0.215 0.215 0.145 0.144 0.359v0.145l-0.144 0.359-0.215 0.145-0.36 0.214h-0.648l-0.359 0.145-0.145 0.144-0.219 0.36v0.719l0.219 0.289 0.145 0.215 0.359 0.144h0.648l0.36-0.144 0.215-0.215 0.144-0.289v-0.719l-0.144-0.36-0.215-0.144-0.36-0.145" stroke="#840000"/>
   <path transform="scale(1.3333)" d="m8.93 132.48h0.363l0.285 0.215 0.219 0.145 0.141 0.359 0.218 0.649v0.863l-0.218 0.719-0.141 0.289-0.219 0.215-0.285 0.144h-0.363l-0.36-0.144-0.144-0.215-0.215-0.289-0.145-0.719v-0.863l0.145-0.649 0.215-0.359 0.144-0.145 0.36-0.215" stroke="#840000"/>
  </g>
 </g>
</svg>
